<svg id="Layer_1" data-name="Layer 1" xmlns="http://www.w3.org/2000/svg" xmlns:xlink="http://www.w3.org/1999/xlink" viewBox="0 0 188 252"><defs><style>.cls-1{fill:none;}.cls-2{fill:#333;}.cls-3{fill:#0485b7;}.cls-4{clip-path:url(#clip-path);}</style><clipPath id="clip-path"><path class="cls-1" d="M94.18,38.57c-15.65,8.8-31.29,14.86-46.57,15.81v50.56c0,34.24,46.57,49.24,46.57,49.24h0s46.57-15,46.57-49.24V54.38C125.48,53.43,109.83,47.37,94.18,38.57Z"/></clipPath></defs><title>sams-logo-sams-color-text-below</title><path class="cls-2" d="M20.31,239.1h0l7.37-.72h0s1.35,4.3,2.71,5.46a8.19,8.19,0,0,0,5.5,1.74A8.42,8.42,0,0,0,41.44,244a4.6,4.6,0,0,0,1.86-3.63,3.42,3.42,0,0,0-.78-2.27,6.16,6.16,0,0,0-2.73-1.63q-1.34-.47-6.09-1.64a37.28,37.28,0,0,1-8.56-3.72h0s-3.46-4.59-3.46-7.56a9.65,9.65,0,0,1,1.63-5.38A10.15,10.15,0,0,1,28,214.38a18.74,18.74,0,0,1,7.41-1.31q7.08,0,10.66,3.1c2.39,2.07,3.76,8.28,3.76,8.28s0,0,0,0l-7.58.34h0s-1-3.32-2.09-4.16a7.63,7.63,0,0,0-4.81-1.27,15.63,15.63,0,0,0-5.17,1.35h0a4.94,4.94,0,0,0-1.2,2.33,2.92,2.92,0,0,0,1.13,2.29c1,.8,3.28,1.64,7,2.51a36.72,36.72,0,0,1,8.2,2.71,10.6,10.6,0,0,1,4.16,3.82,11.21,11.21,0,0,1,1.5,6,11.06,11.06,0,0,1-1.8,6.06,10.82,10.82,0,0,1-5.08,4.2A21.43,21.43,0,0,1,35.83,252c-4.75,0-8.41-1.1-10.95-3.3S20.31,239.1,20.31,239.1Z"/><path class="cls-2" d="M91.21,251.32H83a0,0,0,0,1,0,0l-3.28-8.52a0,0,0,0,0,0,0h-15s0,0,0,0l-3.1,8.52H53.47l14.65-37.6h8Zm-14-14.87h0L72.05,222.5h0L67,236.44s0,0,0,0Z"/><path class="cls-2" d="M95.15,251.33a0,0,0,0,1,0,0v-37.6h11.37l6.82,25.64h0l6.74-25.64h11.4v37.6s0,0,0,0h-7a0,0,0,0,1,0,0V221.73h0L117,251.32a0,0,0,0,1,0,0h-7.3a0,0,0,0,1,0,0l-7.44-29.59h0v29.59s0,0,0,0Z"/><path class="cls-2" d="M137.1,239.1h0l7.37-.72h0s1.34,4.3,2.7,5.46a8.22,8.22,0,0,0,5.51,1.74,8.46,8.46,0,0,0,5.53-1.55,4.6,4.6,0,0,0,1.86-3.63,3.38,3.38,0,0,0-.79-2.27,6.16,6.16,0,0,0-2.73-1.63q-1.34-.47-6.08-1.64a37.28,37.28,0,0,1-8.56-3.72h0s-3.46-4.59-3.46-7.56a9.73,9.73,0,0,1,1.63-5.38,10.17,10.17,0,0,1,4.7-3.81,18.66,18.66,0,0,1,7.4-1.31q7.08,0,10.67,3.1c2.38,2.07,3.75,8.28,3.75,8.28h0l-7.58.34a0,0,0,0,1,0,0s-1-3.32-2.09-4.16a7.66,7.66,0,0,0-4.82-1.27,15.72,15.72,0,0,0-5.17,1.35h0a5,5,0,0,0-1.19,2.33,2.91,2.91,0,0,0,1.12,2.29q1.44,1.2,7,2.51a36.79,36.79,0,0,1,8.19,2.71,10.53,10.53,0,0,1,4.16,3.82,11.87,11.87,0,0,1-.29,12.05,10.8,10.8,0,0,1-5.09,4.2,21.34,21.34,0,0,1-8.18,1.37q-7.14,0-11-3.3C139.12,246.5,137.1,239.1,137.1,239.1Z"/><path class="cls-1" d="M94.18,25.44c-19.56,11-39.12,17.1-58.21,18.3v63.2c0,42.79,58.21,61.54,58.21,61.54h0s58.21-18.75,58.21-61.54V43.74C133.3,42.54,113.74,36.44,94.18,25.44Z"/><path class="cls-3" d="M153,41c-18.52-1.17-37.46-8.31-56.31-18.91a3.23,3.23,0,0,0-3.16,0C74.67,32.66,55.72,39.8,37.2,41a3.27,3.27,0,0,0-3.05,3.21v62.68a50.25,50.25,0,0,0,9.6,29.28A81.2,81.2,0,0,0,64.4,155.93a129.21,129.21,0,0,0,20.37,11.33c2.87,1.27,5.24,2.2,6.72,2.76,2.9,1.08,3.06,1.08,3.6,1.08a3.28,3.28,0,0,0,1-.15,126.45,126.45,0,0,0,29.71-15,81.2,81.2,0,0,0,20.65-19.79,50.25,50.25,0,0,0,9.6-29.28V44.18A3.27,3.27,0,0,0,153,41Zm-4.22,65.89c0,16.46-9.21,31.17-27.36,43.73a123.93,123.93,0,0,1-27.22,14,123.21,123.21,0,0,1-27.07-13.87c-18.25-12.58-27.5-27.33-27.5-43.83V47.11c18-1.6,36.37-8.64,54.57-18.64,18.2,10,36.54,17,54.58,18.64v59.75Z"/><g class="cls-4"><path class="cls-2" d="M104,111.27V102.7a7.08,7.08,0,0,0-6.21-7.16,6.85,6.85,0,0,0-7.46,6.8V111a42.46,42.46,0,0,1-10.91,28.43L69,150.9a2.28,2.28,0,1,0,3.39,3l10.4-11.56a46.91,46.91,0,0,0,12-31.39v-8.73a2.28,2.28,0,0,1,4.55,0v9A53.52,53.52,0,0,1,85.5,147.32l-9.77,10.74a2.28,2.28,0,0,0,1.69,3.81,2.24,2.24,0,0,0,1.68-.75l9.77-10.74A58,58,0,0,0,104,111.27Z"/><path class="cls-2" d="M113.1,102.73c0-8.34-6.17-15.67-14.48-16.41a16,16,0,0,0-17.41,15.87V111a33.09,33.09,0,0,1-8.49,22.14l-7.39,8.22a2.27,2.27,0,1,0,3.38,3l7.43-8.25A37.52,37.52,0,0,0,85.77,111v-8.43c0-5.84,4.18-11.09,10-11.79a11.4,11.4,0,0,1,12.79,11.3v9.07a63.18,63.18,0,0,1-16.46,42.59l-8.24,9.06a2.28,2.28,0,0,0,3.37,3.07l8.24-9.06a67.78,67.78,0,0,0,17.65-45.66Z"/><path class="cls-2" d="M122.21,102.42A25.85,25.85,0,0,0,92.54,76.89c-12.12,1.76-22,13.79-22,26v8a23.7,23.7,0,0,1-6.08,15.84l-6.61,7.34a2.28,2.28,0,1,0,3.39,3.05l6.64-7.38A28.12,28.12,0,0,0,75.14,111v-8c0-11.46,8.79-21.37,20.24-21.9a21.27,21.27,0,0,1,22.27,21.23v8.84a72.89,72.89,0,0,1-19,49.13l-2.28,2.51a2.28,2.28,0,0,0,1.68,3.81,2.3,2.3,0,0,0,1.69-.75l2.28-2.51a77.44,77.44,0,0,0,20.18-52.19v-8.77Z"/><path class="cls-2" d="M61.72,102.39a2.21,2.21,0,0,0,4.41,0A30.8,30.8,0,0,1,92.48,72a2.2,2.2,0,1,0-.63-4.36,35.19,35.19,0,0,0-30.13,34.8Z"/><path class="cls-2" d="M66.13,111.12a2.21,2.21,0,1,0-4.41,0,14.24,14.24,0,0,1-3.67,9.54l-5.52,6.14a2.21,2.21,0,0,0,.16,3.12,2.22,2.22,0,0,0,3.12-.17l5.52-6.14A18.6,18.6,0,0,0,66.13,111.12Z"/><path class="cls-2" d="M127.7,130.81a2.21,2.21,0,0,0-2.69,1.58,80.26,80.26,0,0,1-3,9.19,2.21,2.21,0,0,0,1.24,2.87,2.32,2.32,0,0,0,.81.15,2.21,2.21,0,0,0,2.06-1.39,85.16,85.16,0,0,0,3.17-9.7A2.21,2.21,0,0,0,127.7,130.81Z"/><path class="cls-2" d="M120.79,75.46a2.28,2.28,0,1,0-3.05,3.39,31.78,31.78,0,0,1,10.54,23.6v11.66c0,2.17-.62,7.63-.79,9.8a2.28,2.28,0,0,0,2,2.43l.32,0a2.28,2.28,0,0,0,2.25-2,88.46,88.46,0,0,0,.82-12v-10A36.34,36.34,0,0,0,120.79,75.46Z"/><path class="cls-2" d="M110,74.61a2.3,2.3,0,0,0,.95.21,2.21,2.21,0,0,0,1-4.2,35,35,0,0,0-10-3,2.2,2.2,0,1,0-.62,4.36A30.37,30.37,0,0,1,110,74.61Z"/><path class="cls-2" d="M95.94,56.91c-.85,0-1.71,0-2.56.07a2.27,2.27,0,1,0,.25,4.54q1.16-.06,2.31-.06a41.5,41.5,0,0,1,41.45,41.45v10a2.28,2.28,0,0,0,4.56,0v-10A46.05,46.05,0,0,0,95.94,56.91Z"/><path class="cls-2" d="M72.75,69.79a2.16,2.16,0,0,0,1.25-.4,40,40,0,0,1,12-5.66,2.21,2.21,0,0,0-1.2-4.25,44.12,44.12,0,0,0-13.3,6.29,2.21,2.21,0,0,0,1.26,4Z"/><path class="cls-2" d="M56.92,111.6v-9a41.26,41.26,0,0,1,11.3-28.41,2.28,2.28,0,0,0-3.32-3.13,45.84,45.84,0,0,0-12.53,31.54v9A5,5,0,0,1,51.08,115l-2.81,3.12a2.28,2.28,0,0,0,3.39,3.05L54.47,118A9.56,9.56,0,0,0,56.92,111.6Z"/><path class="cls-2" d="M148.06,85.21a53.67,53.67,0,0,0-11.44-19.32,2.21,2.21,0,0,0-3.25,3,49.17,49.17,0,0,1,10.5,17.73A2.22,2.22,0,0,0,146,88.12a2.16,2.16,0,0,0,.71-.12A2.22,2.22,0,0,0,148.06,85.21Z"/><path class="cls-2" d="M114.31,51.29a2.2,2.2,0,0,0-1.43,4.17,49.68,49.68,0,0,1,13.58,7.17,2.2,2.2,0,1,0,2.64-3.53A53.66,53.66,0,0,0,114.31,51.29Z"/><path class="cls-2" d="M62.59,66.61A49.55,49.55,0,0,1,104,53.32a2.21,2.21,0,1,0,.63-4.37,55.66,55.66,0,0,0-7.75-.55A54,54,0,0,0,42.94,99.93a2.22,2.22,0,0,0,2.11,2.31h.1a2.2,2.2,0,0,0,2.2-2.11A49.31,49.31,0,0,1,62.59,66.61Z"/><path class="cls-2" d="M96.87,39a63.36,63.36,0,0,0-14.61,1.7,2.2,2.2,0,1,0,1,4.29A59,59,0,0,1,139.4,61.55a2.21,2.21,0,0,0,3.18-3.06A63.15,63.15,0,0,0,96.87,39Z"/><path class="cls-2" d="M47.31,66.46a2.16,2.16,0,0,0,1.36.47,2.23,2.23,0,0,0,1.74-.84A59.3,59.3,0,0,1,74.35,47.87a2.21,2.21,0,0,0-1.69-4.08A63.81,63.81,0,0,0,46.93,63.37,2.2,2.2,0,0,0,47.31,66.46Z"/><path class="cls-2" d="M66.28,41a2.21,2.21,0,0,0,1-.22A67.68,67.68,0,0,1,96.87,34a68.79,68.79,0,0,1,16,1.89,2.21,2.21,0,1,0,1-4.29,73.19,73.19,0,0,0-17-2,71.93,71.93,0,0,0-31.55,7.2,2.2,2.2,0,0,0,1,4.19Z"/><path class="cls-2" d="M122.1,38.8a68.69,68.69,0,0,1,6.69,3.1,2.25,2.25,0,0,0,1,.26,2.21,2.21,0,0,0,1-4.16,75.4,75.4,0,0,0-7.13-3.3,2.21,2.21,0,0,0-1.63,4.1Z"/></g><path class="cls-2" d="M94,12.25a4.09,4.09,0,0,0,4.08-4.09V4.08a4.08,4.08,0,1,0-8.16,0V8.16A4.09,4.09,0,0,0,94,12.25Z"/><path class="cls-2" d="M94,175.52a4.08,4.08,0,0,0-4.08,4.08v4.08a4.08,4.08,0,0,0,8.16,0V179.6A4.08,4.08,0,0,0,94,175.52Z"/><path class="cls-2" d="M183.8,89.8h-4.08a4.08,4.08,0,0,0,0,8.16h4.08a4.08,4.08,0,0,0,0-8.16Z"/><path class="cls-2" d="M8.28,89.8H4.2A4.08,4.08,0,1,0,4.2,98H8.28a4.08,4.08,0,1,0,0-8.16Z"/><path class="cls-2" d="M154.61,27.5l-2.88,2.88a4.08,4.08,0,1,0,5.77,5.77l2.88-2.88a4.08,4.08,0,1,0-5.77-5.77Z"/><path class="cls-2" d="M30.5,151.61l-2.88,2.88a4.08,4.08,0,0,0,5.77,5.78l2.88-2.89a4.08,4.08,0,1,0-5.77-5.77Z"/><path class="cls-2" d="M157.5,151.61a4.08,4.08,0,0,0-5.77,5.77l2.88,2.89a4.08,4.08,0,0,0,5.77-5.78Z"/><path class="cls-2" d="M33.39,27.5a4.08,4.08,0,0,0-5.77,5.77l2.88,2.88a4.08,4.08,0,1,0,5.77-5.77Z"/></svg>