<svg id="Layer_1" data-name="Layer 1" xmlns="http://www.w3.org/2000/svg" xmlns:xlink="http://www.w3.org/1999/xlink" viewBox="0 0 240 240"><defs><style>.cls-1{fill:none;}.cls-2{fill:#0485b7;}.cls-3{clip-path:url(#clip-path);}.cls-4{fill:#333;}</style><clipPath id="clip-path"><path class="cls-1" d="M120.23,49.3c-20,11.25-40,19-59.52,20.21v64.63c0,43.76,59.52,62.93,59.52,62.93h0s59.53-19.17,59.53-62.93V69.51C160.23,68.29,140.23,60.55,120.23,49.3Z"/></clipPath></defs><title>sams-logo-sams-color-no-text</title><path class="cls-1" d="M120.23,32.52c-25,14.06-50,21.86-74.4,23.39v80.78c0,54.7,74.4,78.66,74.4,78.66h0s74.41-24,74.41-78.66V55.91C170.23,54.38,145.23,46.58,120.23,32.52Z"/><path class="cls-2" d="M195.39,52.37c-23.67-1.49-47.89-10.62-72-24.17a4.13,4.13,0,0,0-4,0c-24.09,13.55-48.31,22.68-72,24.17a4.18,4.18,0,0,0-3.9,4.1v80.12c0,13.23,4.13,25.82,12.27,37.43,6.41,9.12,15.29,17.63,26.4,25.29a165.19,165.19,0,0,0,26,14.48c3.67,1.63,6.7,2.81,8.59,3.52,3.7,1.39,3.91,1.39,4.6,1.39a4.15,4.15,0,0,0,1.26-.2,161.3,161.3,0,0,0,38-19.19c11.11-7.66,20-16.17,26.39-25.29,8.15-11.61,12.28-24.2,12.28-37.43V56.47A4.19,4.19,0,0,0,195.39,52.37ZM190,136.59c0,21-11.77,39.84-35,55.9a158,158,0,0,1-34.79,17.84,157.38,157.38,0,0,1-34.6-17.71c-23.33-16.09-35.15-34.94-35.15-56V60.21c23.05-2,46.49-11,69.75-23.82C143.5,49.17,166.93,58.17,190,60.21v76.38Z"/><g class="cls-3"><path class="cls-4" d="M132.77,142.22V131.28a9,9,0,0,0-7.93-9.16,8.74,8.74,0,0,0-9.54,8.7v11a54.35,54.35,0,0,1-14,36.35L88.1,192.88a2.91,2.91,0,1,0,4.33,3.9L105.73,182a60,60,0,0,0,15.39-40.12V130.73a2.92,2.92,0,1,1,5.83,0v11.49a68.36,68.36,0,0,1-17.82,46.08L96.65,202a2.91,2.91,0,0,0,.2,4.11,2.87,2.87,0,0,0,2,.76,2.91,2.91,0,0,0,2.16-1l12.48-13.73A74.2,74.2,0,0,0,132.77,142.22Z"/><path class="cls-4" d="M144.41,131.31c0-10.66-7.89-20-18.5-21a20.39,20.39,0,0,0-22.25,20.29v11.24a42.32,42.32,0,0,1-10.86,28.3l-9.45,10.5a2.91,2.91,0,1,0,4.33,3.89L97.17,174a47.93,47.93,0,0,0,12.31-32.07V131.16c0-7.47,5.34-14.18,12.75-15.08a14.58,14.58,0,0,1,16.36,14.45v11.59a80.73,80.73,0,0,1-21,54.44L107,208.14a2.91,2.91,0,0,0,4.31,3.92l10.53-11.58a86.59,86.59,0,0,0,22.56-58.36Z"/><path class="cls-4" d="M156.06,130.91a33,33,0,0,0-37.92-32.63c-15.5,2.26-28.07,17.63-28.07,33.29v10.28A30.28,30.28,0,0,1,82.3,162.1l-8.44,9.39a2.91,2.91,0,1,0,4.32,3.89l8.5-9.43a36,36,0,0,0,9.21-24V131.68c0-14.65,11.24-27.31,25.88-28a27.21,27.21,0,0,1,28.47,27.14v11.3A93.21,93.21,0,0,1,126,204.92l-2.92,3.2A2.91,2.91,0,0,0,125.2,213a2.89,2.89,0,0,0,2.15-1l2.91-3.21a98.92,98.92,0,0,0,25.8-66.71V130.91Z"/><path class="cls-4" d="M78.73,130.87a2.82,2.82,0,1,0,5.64,0A39.37,39.37,0,0,1,118.06,92a2.82,2.82,0,1,0-.81-5.58,45,45,0,0,0-38.52,44.48Z"/><path class="cls-4" d="M84.37,142a2.82,2.82,0,0,0-5.64,0,18.22,18.22,0,0,1-4.68,12.2L67,162.07a2.82,2.82,0,0,0,2.1,4.71,2.78,2.78,0,0,0,2.09-.93L78.25,158A23.83,23.83,0,0,0,84.37,142Z"/><path class="cls-4" d="M163.07,167.2a2.83,2.83,0,0,0-3.44,2A102.74,102.74,0,0,1,155.78,181a2.82,2.82,0,0,0,1.58,3.66,2.74,2.74,0,0,0,1,.2,2.81,2.81,0,0,0,2.62-1.78,108.25,108.25,0,0,0,4.07-12.4A2.83,2.83,0,0,0,163.07,167.2Z"/><path class="cls-4" d="M154.24,96.45a2.91,2.91,0,1,0-3.89,4.33A40.64,40.64,0,0,1,163.82,131v14.9c0,2.78-.79,9.76-1,12.53a2.9,2.9,0,0,0,2.5,3.1,2.83,2.83,0,0,0,.41,0A2.91,2.91,0,0,0,168.6,159a113.33,113.33,0,0,0,1-15.3V131A46.47,46.47,0,0,0,154.24,96.45Z"/><path class="cls-4" d="M140.5,95.36a2.75,2.75,0,0,0,1.21.28,2.82,2.82,0,0,0,1.22-5.37,44.54,44.54,0,0,0-12.84-3.88,2.82,2.82,0,1,0-.8,5.58A39,39,0,0,1,140.5,95.36Z"/><path class="cls-4" d="M122.48,72.74c-1.09,0-2.19,0-3.27.09a2.91,2.91,0,1,0,.32,5.81c1,0,2-.08,3-.08a53,53,0,0,1,53,53V144.3a2.92,2.92,0,0,0,5.83,0V131.54A58.87,58.87,0,0,0,122.48,72.74Z"/><path class="cls-4" d="M92.83,89.2a2.81,2.81,0,0,0,1.61-.5,51.06,51.06,0,0,1,15.32-7.25A2.82,2.82,0,0,0,108.23,76a56.86,56.86,0,0,0-17,8,2.82,2.82,0,0,0-.7,3.93A2.79,2.79,0,0,0,92.83,89.2Z"/><path class="cls-4" d="M72.61,142.65V131.13A52.73,52.73,0,0,1,87.05,94.81a2.91,2.91,0,0,0-4.24-4,58.53,58.53,0,0,0-16,40.31v11.52a6.37,6.37,0,0,1-1.64,4.28l-3.59,4a2.92,2.92,0,0,0,2.16,4.86,3,3,0,0,0,2.17-1l3.59-4A12.24,12.24,0,0,0,72.61,142.65Z"/><path class="cls-4" d="M189.09,108.91a68.68,68.68,0,0,0-14.61-24.69A2.82,2.82,0,0,0,170.33,88a63.08,63.08,0,0,1,13.42,22.67,2.82,2.82,0,1,0,5.34-1.8Z"/><path class="cls-4" d="M146,65.56a2.82,2.82,0,0,0-1.83,5.33,63.4,63.4,0,0,1,17.36,9.17,2.82,2.82,0,1,0,3.37-4.52A68.52,68.52,0,0,0,146,65.56Z"/><path class="cls-4" d="M79.85,85.14a63.22,63.22,0,0,1,52.92-17,2.82,2.82,0,0,0,.81-5.59,69.75,69.75,0,0,0-9.91-.71,69.09,69.09,0,0,0-68.93,65.87,2.82,2.82,0,0,0,2.69,3h.13A2.82,2.82,0,0,0,60.37,128,63.07,63.07,0,0,1,79.85,85.14Z"/><path class="cls-4" d="M123.67,49.83A81.25,81.25,0,0,0,105,52a2.82,2.82,0,0,0,1.3,5.49,75.55,75.55,0,0,1,17.38-2A74.76,74.76,0,0,1,178,78.67a2.81,2.81,0,0,0,4,.08,2.83,2.83,0,0,0,.08-4,80.88,80.88,0,0,0-58.43-24.93Z"/><path class="cls-4" d="M60.32,85a2.79,2.79,0,0,0,1.74.6,2.83,2.83,0,0,0,2.22-1.08,76,76,0,0,1,30.6-23.29A2.82,2.82,0,1,0,92.72,56,81.48,81.48,0,0,0,59.84,81,2.81,2.81,0,0,0,60.32,85Z"/><path class="cls-4" d="M84.57,52.36a2.82,2.82,0,0,0,1.22-.28,86.31,86.31,0,0,1,37.88-8.64,87.73,87.73,0,0,1,20.46,2.41,2.82,2.82,0,0,0,1.32-5.48,93.07,93.07,0,0,0-21.78-2.57A91.92,91.92,0,0,0,83.34,47a2.82,2.82,0,0,0,1.23,5.36Z"/><path class="cls-4" d="M155.92,49.6a90.52,90.52,0,0,1,8.55,3.95,2.72,2.72,0,0,0,1.32.33,2.82,2.82,0,0,0,1.32-5.31A92.68,92.68,0,0,0,158,44.36a2.82,2.82,0,1,0-2.08,5.24Z"/></g><path class="cls-4" d="M120,15.65a5.22,5.22,0,0,0,5.22-5.22V5.22a5.22,5.22,0,0,0-10.44,0v5.21A5.22,5.22,0,0,0,120,15.65Z"/><path class="cls-4" d="M120,224.35a5.22,5.22,0,0,0-5.22,5.22v5.21a5.22,5.22,0,0,0,10.44,0v-5.21A5.22,5.22,0,0,0,120,224.35Z"/><path class="cls-4" d="M234.78,114.78h-5.21a5.22,5.22,0,0,0,0,10.44h5.21a5.22,5.22,0,0,0,0-10.44Z"/><path class="cls-4" d="M10.43,114.78H5.22a5.22,5.22,0,0,0,0,10.44h5.21a5.22,5.22,0,1,0,0-10.44Z"/><path class="cls-4" d="M197.47,35.14l-3.69,3.69a5.22,5.22,0,1,0,7.38,7.38l3.69-3.69a5.22,5.22,0,1,0-7.38-7.38Z"/><path class="cls-4" d="M38.84,193.78l-3.69,3.69a5.22,5.22,0,1,0,7.38,7.38l3.69-3.69a5.22,5.22,0,0,0-7.38-7.38Z"/><path class="cls-4" d="M201.16,193.78a5.22,5.22,0,0,0-7.38,7.38l3.69,3.69a5.22,5.22,0,0,0,7.38-7.38Z"/><path class="cls-4" d="M42.53,35.14a5.22,5.22,0,0,0-7.38,7.38l3.69,3.69a5.22,5.22,0,0,0,7.38-7.38Z"/></svg>