<svg id="Layer_1" data-name="Layer 1" xmlns="http://www.w3.org/2000/svg" xmlns:xlink="http://www.w3.org/1999/xlink" viewBox="0 0 283 110"><defs><style>.cls-1{fill:none;}.cls-2{fill:#333;}.cls-3{fill:#0485b7;}.cls-4{clip-path:url(#clip-path);}</style><clipPath id="clip-path"><path class="cls-1" d="M55.11,22.6c-9.17,5.15-18.34,8.7-27.29,9.26V61.48c0,20.06,27.29,28.84,27.29,28.84h0s27.28-8.78,27.28-28.84V31.86C73.44,31.3,64.27,27.75,55.11,22.6Z"/></clipPath></defs><title>sams-logo-sams-color-text-side</title><path class="cls-2" d="M132.62,61.57h0l7.37-.72h0s1.34,4.29,2.7,5.45a8.17,8.17,0,0,0,5.51,1.75,8.48,8.48,0,0,0,5.53-1.55,4.63,4.63,0,0,0,1.86-3.63,3.47,3.47,0,0,0-.78-2.28A6.3,6.3,0,0,0,152.09,59c-.89-.31-2.91-.86-6.08-1.65a37.46,37.46,0,0,1-8.56-3.71l0,0S134,49,134,46a9.72,9.72,0,0,1,1.62-5.38,10.35,10.35,0,0,1,4.7-3.81,18.87,18.87,0,0,1,7.4-1.31q7.1,0,10.67,3.11c2.38,2.07,3.76,8.28,3.76,8.28h0l-7.58.33h0s-1-3.31-2.09-4.16a7.63,7.63,0,0,0-4.81-1.27,15.64,15.64,0,0,0-5.18,1.36h0a4.88,4.88,0,0,0-1.2,2.33,2.86,2.86,0,0,0,1.13,2.28c1,.81,3.28,1.64,7,2.52a37,37,0,0,1,8.2,2.7,10.59,10.59,0,0,1,4.15,3.83,11.81,11.81,0,0,1-.29,12.05,10.74,10.74,0,0,1-5.08,4.19,21.22,21.22,0,0,1-8.19,1.38q-7.12,0-11-3.3C134.63,69,132.62,61.57,132.62,61.57Z"/><path class="cls-2" d="M203.52,73.79h-8.26L192,65.26h-15l-3.1,8.53h-8.05s0,0,0,0l14.64-37.6h8Zm-14-14.88s0,0,0,0L184.36,45h0L179.27,58.9h10.26Z"/><path class="cls-2" d="M207.46,73.8h0V36.19h11.37l6.82,25.64h0l6.74-25.64h11.4v37.6h-7.06V44.19h0l-7.46,29.6H222l-7.44-29.6h0v29.6h-7Z"/><path class="cls-2" d="M249.41,61.57h0l7.37-.72h0s1.35,4.29,2.71,5.45a8.14,8.14,0,0,0,5.5,1.75,8.48,8.48,0,0,0,5.53-1.55,4.63,4.63,0,0,0,1.86-3.63,3.47,3.47,0,0,0-.78-2.28A6.25,6.25,0,0,0,268.89,59q-1.33-.47-6.08-1.65a37.41,37.41,0,0,1-8.57-3.71v0S250.77,49,250.77,46a9.65,9.65,0,0,1,1.63-5.38,10.3,10.3,0,0,1,4.7-3.81,18.84,18.84,0,0,1,7.4-1.31q7.08,0,10.66,3.11c2.39,2.07,3.76,8.28,3.76,8.28h0l-7.57.33h0s-1-3.31-2.08-4.16a7.66,7.66,0,0,0-4.82-1.27,15.63,15.63,0,0,0-5.17,1.36h0a4.88,4.88,0,0,0-1.2,2.33,2.89,2.89,0,0,0,1.13,2.28c1,.81,3.29,1.64,7,2.52a36.8,36.8,0,0,1,8.2,2.7,10.62,10.62,0,0,1,4.16,3.83,11.84,11.84,0,0,1-.3,12.05,10.7,10.7,0,0,1-5.08,4.19,21.2,21.2,0,0,1-8.18,1.38q-7.14,0-11-3.3C251.43,69,249.41,61.57,249.41,61.57Z"/><path class="cls-1" d="M55.11,14.91C43.65,21.35,32.19,24.92,21,25.62v37C21,87.72,55.11,98.7,55.11,98.7h0s34.1-11,34.1-36.05v-37C78,24.92,66.56,21.35,55.11,14.91Z"/><path class="cls-3" d="M89.55,24c-10.85-.68-21.94-4.87-33-11.07a1.85,1.85,0,0,0-1.85,0c-11,6.2-22.14,10.39-33,11.07a1.92,1.92,0,0,0-1.78,1.88V62.6a29.47,29.47,0,0,0,5.62,17.16,47.74,47.74,0,0,0,12.1,11.59A75.63,75.63,0,0,0,49.59,98c1.68.74,3.07,1.29,3.94,1.61,1.7.64,1.79.64,2.11.64a1.84,1.84,0,0,0,.57-.09,74.32,74.32,0,0,0,17.41-8.8,47.74,47.74,0,0,0,12.1-11.59A29.47,29.47,0,0,0,91.34,62.6V25.88A1.92,1.92,0,0,0,89.55,24ZM87.08,62.61c0,9.63-5.39,18.25-16,25.61A71.91,71.91,0,0,1,55.11,96.4a71.94,71.94,0,0,1-15.86-8.12c-10.69-7.37-16.12-16-16.12-25.67v-35c10.57-.94,21.31-5.06,32-10.92,10.66,5.86,21.4,10,32,10.92v35Z"/><g class="cls-4"><path class="cls-2" d="M60.85,65.18v-5A4.14,4.14,0,0,0,57.22,56a4,4,0,0,0-4.37,4v5a24.91,24.91,0,0,1-6.4,16.66l-6.07,6.75a1.33,1.33,0,1,0,2,1.78l6.1-6.77A27.51,27.51,0,0,0,55.52,65V59.92a1.33,1.33,0,1,1,2.66,0v5.26A31.39,31.39,0,0,1,50,86.31L44.3,92.6a1.33,1.33,0,1,0,2,1.79L52,88.1A34,34,0,0,0,60.85,65.18Z"/><path class="cls-2" d="M66.19,60.18a9.55,9.55,0,0,0-8.48-9.61,9.35,9.35,0,0,0-10.2,9.3V65a19.36,19.36,0,0,1-5,13L38.2,82.8a1.33,1.33,0,0,0,2,1.79l4.36-4.84a22,22,0,0,0,5.64-14.7V60.11A6.86,6.86,0,0,1,56,53.21a6.68,6.68,0,0,1,7.5,6.62v5.31a37,37,0,0,1-9.65,25L49.05,95.4a1.32,1.32,0,0,0,.09,1.88,1.27,1.27,0,0,0,.89.35,1.32,1.32,0,0,0,1-.44l4.83-5.3A39.7,39.7,0,0,0,66.19,65.14Z"/><path class="cls-2" d="M71.53,60A15.15,15.15,0,0,0,54.15,45c-7.11,1-12.87,8.08-12.87,15.26V65a13.9,13.9,0,0,1-3.56,9.28l-3.87,4.3a1.33,1.33,0,0,0,2,1.78l3.9-4.32a16.46,16.46,0,0,0,4.22-11V60.36A12.72,12.72,0,0,1,55.81,47.52,12.47,12.47,0,0,1,68.86,60v5.18A42.67,42.67,0,0,1,57.73,93.92l-1.34,1.47a1.34,1.34,0,0,0,.09,1.88,1.31,1.31,0,0,0,.9.35,1.36,1.36,0,0,0,1-.43l1.33-1.47A45.36,45.36,0,0,0,71.53,65.14V60Z"/><path class="cls-2" d="M36.09,60a1.29,1.29,0,0,0,2.58,0A18,18,0,0,1,54.11,42.15a1.27,1.27,0,0,0,1.09-1.46,1.29,1.29,0,0,0-1.46-1.1A20.64,20.64,0,0,0,36.09,60Z"/><path class="cls-2" d="M38.67,65.1a1.29,1.29,0,1,0-2.58,0,8.38,8.38,0,0,1-2.15,5.59L30.7,74.28a1.29,1.29,0,0,0,1,2.16,1.28,1.28,0,0,0,1-.43l3.23-3.59A11,11,0,0,0,38.67,65.1Z"/><path class="cls-2" d="M74.74,76.63a1.3,1.3,0,0,0-1.58.93A47.1,47.1,0,0,1,71.4,83a1.29,1.29,0,0,0,.72,1.67,1.17,1.17,0,0,0,.48.09,1.27,1.27,0,0,0,1.2-.81,49.16,49.16,0,0,0,1.87-5.69A1.3,1.3,0,0,0,74.74,76.63Z"/><path class="cls-2" d="M70.69,44.21a1.33,1.33,0,1,0-1.78,2A18.64,18.64,0,0,1,75.08,60v6.83c0,1.27-.36,4.47-.46,5.74A1.33,1.33,0,0,0,75.77,74L76,74a1.34,1.34,0,0,0,1.32-1.16,51.28,51.28,0,0,0,.48-7V60A21.27,21.27,0,0,0,70.69,44.21Z"/><path class="cls-2" d="M64.4,43.71a1.33,1.33,0,0,0,.55.12,1.29,1.29,0,0,0,.56-2.46,20.8,20.8,0,0,0-5.89-1.78,1.29,1.29,0,1,0-.36,2.56A17.87,17.87,0,0,1,64.4,43.71Z"/><path class="cls-2" d="M56.14,33.34c-.5,0-1,0-1.5,0A1.33,1.33,0,1,0,54.78,36c.45,0,.91,0,1.36,0A24.3,24.3,0,0,1,80.42,60.29v5.85a1.34,1.34,0,0,0,2.67,0V60.29A27,27,0,0,0,56.14,33.34Z"/><path class="cls-2" d="M42.55,40.88a1.29,1.29,0,0,0,.74-.23,23.56,23.56,0,0,1,7-3.32,1.29,1.29,0,0,0-.71-2.49,26.16,26.16,0,0,0-7.79,3.69,1.29,1.29,0,0,0,.74,2.35Z"/><path class="cls-2" d="M33.28,65.38V60.1A24.16,24.16,0,0,1,39.9,43.46,1.34,1.34,0,1,0,38,41.63,26.84,26.84,0,0,0,30.61,60.1v5.28a2.94,2.94,0,0,1-.75,2l-1.65,1.83a1.34,1.34,0,0,0,.1,1.89,1.31,1.31,0,0,0,.89.34,1.32,1.32,0,0,0,1-.44l1.65-1.83A5.58,5.58,0,0,0,33.28,65.38Z"/><path class="cls-2" d="M86.67,49.92A31.46,31.46,0,0,0,80,38.6a1.29,1.29,0,0,0-1.9,1.75,28.88,28.88,0,0,1,6.15,10.39,1.28,1.28,0,0,0,1.22.88,1.23,1.23,0,0,0,.42-.07A1.29,1.29,0,0,0,86.67,49.92Z"/><path class="cls-2" d="M66.9,30.05a1.29,1.29,0,0,0-.84,2.44,29.2,29.2,0,0,1,8,4.2,1.23,1.23,0,0,0,.77.26,1.28,1.28,0,0,0,1-.52,1.29,1.29,0,0,0-.26-1.81A31.54,31.54,0,0,0,66.9,30.05Z"/><path class="cls-2" d="M36.6,39a29,29,0,0,1,24.25-7.78,1.29,1.29,0,1,0,.37-2.56A31.66,31.66,0,0,0,25.09,58.54a1.29,1.29,0,0,0,1.23,1.35h.06a1.3,1.3,0,0,0,1.29-1.24A29,29,0,0,1,36.6,39Z"/><path class="cls-2" d="M56.68,22.84a37.23,37.23,0,0,0-8.56,1,1.31,1.31,0,0,0-1,1.56,1.29,1.29,0,0,0,1.56,1,34.79,34.79,0,0,1,8-.93A34.27,34.27,0,0,1,81.6,36.06a1.3,1.3,0,0,0,.93.4,1.25,1.25,0,0,0,.89-.37,1.27,1.27,0,0,0,0-1.82A37,37,0,0,0,56.68,22.84Z"/><path class="cls-2" d="M27.65,38.94a1.3,1.3,0,0,0,1.81-.22A34.84,34.84,0,0,1,43.49,28a1.29,1.29,0,0,0-1-2.39A37.33,37.33,0,0,0,27.43,37.12,1.29,1.29,0,0,0,27.65,38.94Z"/><path class="cls-2" d="M38.76,24a1.24,1.24,0,0,0,.56-.13A40.08,40.08,0,0,1,66.06,21a1.3,1.3,0,1,0,.6-2.52,42.83,42.83,0,0,0-10-1.18A42.11,42.11,0,0,0,38.2,21.54a1.29,1.29,0,0,0-.61,1.73A1.31,1.31,0,0,0,38.76,24Z"/><path class="cls-2" d="M71.46,22.73a38.63,38.63,0,0,1,3.92,1.82,1.34,1.34,0,0,0,.61.15A1.29,1.29,0,0,0,77.13,24a1.3,1.3,0,0,0-.54-1.75,45,45,0,0,0-4.17-1.93,1.29,1.29,0,1,0-1,2.4Z"/></g><path class="cls-2" d="M55,7.17a2.38,2.38,0,0,0,2.39-2.39V2.39a2.39,2.39,0,0,0-4.78,0V4.78A2.38,2.38,0,0,0,55,7.17Z"/><path class="cls-2" d="M55,102.83a2.38,2.38,0,0,0-2.39,2.39v2.39a2.39,2.39,0,1,0,4.78,0v-2.39A2.38,2.38,0,0,0,55,102.83Z"/><path class="cls-2" d="M107.61,52.61h-2.39a2.39,2.39,0,0,0,0,4.78h2.39a2.39,2.39,0,1,0,0-4.78Z"/><path class="cls-2" d="M4.78,52.61H2.39a2.39,2.39,0,0,0,0,4.78H4.78a2.39,2.39,0,0,0,0-4.78Z"/><path class="cls-2" d="M90.51,16.11,88.82,17.8a2.39,2.39,0,0,0,3.38,3.38l1.69-1.69a2.39,2.39,0,1,0-3.38-3.38Z"/><path class="cls-2" d="M17.8,88.82l-1.69,1.69a2.39,2.39,0,0,0,1.69,4.08,2.36,2.36,0,0,0,1.69-.7l1.69-1.69a2.39,2.39,0,1,0-3.38-3.38Z"/><path class="cls-2" d="M92.2,88.82a2.39,2.39,0,1,0-3.38,3.38l1.69,1.69a2.39,2.39,0,0,0,3.38,0,2.4,2.4,0,0,0,0-3.38Z"/><path class="cls-2" d="M19.49,16.11a2.39,2.39,0,1,0-3.38,3.38l1.69,1.69a2.39,2.39,0,1,0,3.38-3.38Z"/></svg>