<svg width="24" height="24" viewBox="0 0 24 24" version="1.1" xmlns="http://www.w3.org/2000/svg" xmlns:xlink="http://www.w3.org/1999/xlink">
<title>Group</title>
<desc>Created using Figma</desc>
<g id="Canvas" transform="translate(-17599 -1631)">
<g id="Group">
<g id="Group">
<g id="Vector">
<use xlink:href="#path0_fill" transform="translate(17599 1631)" fill="#FFFFFF"/>
</g>
<g id="Vector">
<use xlink:href="#path1_fill" transform="translate(17603.7 1647.61)" fill="#FFFFFF"/>
</g>
<g id="Vector">
<use xlink:href="#path2_fill" transform="translate(17607.5 1649.93)" fill="#FFFFFF"/>
</g>
<g id="Vector">
<use xlink:href="#path3_fill" transform="translate(17604.1 1635.95)" fill="#FFFFFF"/>
</g>
<g id="Vector">
<use xlink:href="#path4_fill" transform="translate(17615.5 1638.69)" fill="#FFFFFF"/>
</g>
<g id="Vector">
<use xlink:href="#path5_fill" transform="translate(17612.7 1641.49)" fill="#FFFFFF"/>
</g>
<g id="Vector">
<use xlink:href="#path6_fill" transform="translate(17609.9 1642.9)" fill="#FFFFFF"/>
</g>
<g id="Vector">
<use xlink:href="#path7_fill" transform="translate(17607.1 1642.2)" fill="#FFFFFF"/>
</g>
</g>
</g>
</g>
<defs>
<path id="path0_fill" d="M 12 0C 5.37225 0 0 5.37225 0 12C 0 18.6278 5.37225 24 12 24C 18.6278 24 24 18.6278 24 12C 24 5.37225 18.6278 0 12 0ZM 12 23.625C 5.58975 23.625 0.375 18.4102 0.375 12C 0.375 5.58975 5.58975 0.375 12 0.375C 18.4102 0.375 23.625 5.58975 23.625 12C 23.625 18.4102 18.4102 23.625 12 23.625Z"/>
<path id="path1_fill" d="M 14.625 0L 0 0L 0 0.375L 14.625 0.375L 14.625 0Z"/>
<path id="path2_fill" d="M 6.933 0L 0 0L 0 0.374999L 6.933 0.374999L 6.933 0Z"/>
<path id="path3_fill" d="M 3.78675 3.219L 6.28725 5.7195L 11.742 0.2655L 11.4765 1.23024e-07L 6.28725 5.18925L 3.78675 2.68875L 1.71661e-08 6.4755L 0.2655 6.74025L 3.78675 3.219Z"/>
<path id="path4_fill" d="M 0.374999 0L 0 0L 0 6.34575L 0.374999 6.34575L 0.374999 0Z"/>
<path id="path5_fill" d="M 0.374999 0L 0 0L 0 3.55125L 0.374999 3.55125L 0.374999 0Z"/>
<path id="path6_fill" d="M 0.375 0L 0 0L 0 2.145L 0.375 2.145L 0.375 0Z"/>
<path id="path7_fill" d="M 0.375 0L 0 0L 0 2.8395L 0.375 2.8395L 0.375 0Z"/>
</defs>
</svg>
