<svg width="24" height="24" viewBox="0 0 24 24" version="1.1" xmlns="http://www.w3.org/2000/svg" xmlns:xlink="http://www.w3.org/1999/xlink">
<title>noun_1480847_cc</title>
<desc>Created using Figma</desc>
<g id="Canvas" transform="translate(-17599 -1537)">
<g id="noun_1480847_cc">
<g id="Group">
<g id="Vector">
<use xlink:href="#path0_fill" transform="translate(17602.8 1537)" fill="#FFFFFF"/>
</g>
</g>
<g id="Vector">
<use xlink:href="#path1_fill" transform="translate(17599 1543.19)" fill="#FFFFFF"/>
</g>
<g id="Group">
<g id="Group">
<g id="Vector">
<use xlink:href="#path2_fill" transform="translate(17600.5 1538.12)" fill="#FFFFFF"/>
</g>
</g>
<g id="Group">
<g id="Vector">
<use xlink:href="#path2_fill" transform="translate(17600.5 1540.38)" fill="#FFFFFF"/>
</g>
</g>
<g id="Group">
<g id="Vector">
<use xlink:href="#path2_fill" transform="translate(17600.5 1542.62)" fill="#FFFFFF"/>
</g>
</g>
<g id="Group">
<g id="Group">
<g id="Vector">
<use xlink:href="#path2_fill" transform="translate(17600.5 1544.88)" fill="#FFFFFF"/>
</g>
</g>
<g id="Group">
<g id="Vector">
<use xlink:href="#path2_fill" transform="translate(17600.5 1547.12)" fill="#FFFFFF"/>
</g>
</g>
<g id="Group">
<g id="Vector">
<use xlink:href="#path2_fill" transform="translate(17600.5 1549.38)" fill="#FFFFFF"/>
</g>
</g>
</g>
<g id="Group">
<g id="Group">
<g id="Vector">
<use xlink:href="#path2_fill" transform="translate(17600.5 1551.62)" fill="#FFFFFF"/>
</g>
</g>
<g id="Group">
<g id="Vector">
<use xlink:href="#path2_fill" transform="translate(17600.5 1553.88)" fill="#FFFFFF"/>
</g>
</g>
<g id="Group">
<g id="Vector">
<use xlink:href="#path2_fill" transform="translate(17600.5 1556.12)" fill="#FFFFFF"/>
</g>
</g>
</g>
<g id="Group">
<g id="Group">
<g id="Vector">
<use xlink:href="#path2_fill" transform="translate(17600.5 1558.38)" fill="#FFFFFF"/>
</g>
</g>
</g>
</g>
</g>
</g>
<defs>
<path id="path0_fill" d="M 0.374916 24C 0.168712 24 0 23.8312 0 23.625L 0 0.375C 0 0.16875 0.168712 0 0.374916 0C 0.58112 0 0.749832 0.16875 0.749832 0.375L 0.749832 23.625C 0.749832 23.8312 0.58112 24 0.374916 24Z"/>
<path id="path1_fill" d="M 23.6197 17.0625L 22.8699 17.0625L 22.8699 5.25L 23.3198 5.25C 23.9197 5.25 24.1821 4.8375 23.8634 4.35L 21.9139 0.375C 21.7639 0.13125 21.5577 0 21.3702 0C 21.1828 0 20.9766 0.13125 20.8266 0.375L 18.877 4.33125C 18.5771 4.8375 18.8208 5.23125 19.4207 5.23125L 19.8706 5.23125L 19.8706 17.0438L 16.8712 17.0438L 16.8712 9.75L 17.3211 9.75C 17.921 9.75 18.1834 9.3375 17.8648 8.85L 15.9152 4.875C 15.7652 4.63125 15.559 4.5 15.3716 4.5C 15.1841 4.5 14.9779 4.63125 14.8279 4.875L 12.8784 8.85C 12.5784 9.35625 12.8221 9.75 13.422 9.75L 13.8719 9.75L 13.8719 17.0625L 10.8726 17.0625L 10.8726 14.25L 11.3225 14.25C 11.9223 14.25 12.1848 13.8375 11.8661 13.35L 9.91653 9.375C 9.76657 9.13125 9.56036 9 9.3729 9C 9.18545 9 8.97924 9.13125 8.82928 9.375L 6.87971 13.3312C 6.57978 13.8375 6.82347 14.2313 7.42334 14.2313L 7.87324 14.2313L 7.87324 17.0438L 0.374916 17.0438C 0.168712 17.0438 0 17.2125 0 17.4188C 0 17.625 0.168712 17.7938 0.374916 17.7938L 23.6197 17.7938C 23.8259 17.7938 23.9946 17.625 23.9946 17.4188C 23.9946 17.2125 23.8259 17.0625 23.6197 17.0625ZM 8.62307 17.0625L 8.62307 13.5L 7.87324 13.5L 7.62954 13.5L 9.3729 9.95625L 11.1163 13.5L 10.8726 13.5L 10.1415 13.5L 10.1415 17.0625L 8.62307 17.0625ZM 13.8719 9L 13.6282 9L 15.3716 5.45625L 17.1149 9L 16.8712 9L 16.1214 9L 16.1214 17.0625L 14.6217 17.0625L 14.6217 9L 13.8719 9ZM 20.6204 17.0625L 20.6204 4.5L 19.8706 4.5L 19.6269 4.5L 21.3702 0.95625L 23.1136 4.5L 22.8699 4.5L 22.1201 4.5L 22.1201 17.0625L 20.6204 17.0625Z"/>
<path id="path2_fill" d="M 1.12475 0.75L 0.374916 0.75C 0.168712 0.75 0 0.58125 0 0.375C 0 0.16875 0.168712 0 0.374916 0L 1.12475 0C 1.33095 0 1.49966 0.16875 1.49966 0.375C 1.49966 0.58125 1.33095 0.75 1.12475 0.75Z"/>
</defs>
</svg>
