<svg width="24" height="24" viewBox="0 0 24 24" version="1.1" xmlns="http://www.w3.org/2000/svg" xmlns:xlink="http://www.w3.org/1999/xlink">
<title>noun_247253_cc</title>
<desc>Created using Figma</desc>
<g id="Canvas" transform="translate(-17599 -1255)">
<g id="noun_247253_cc">
<g id="Group">
<g id="Group">
<g id="Vector">
<use xlink:href="#path0_fill" transform="translate(17604.1 1255.84)" fill="#FFFFFF"/>
</g>
<g id="Vector">
<use xlink:href="#path1_fill" transform="translate(17615.5 1255.84)" fill="#FFFFFF"/>
</g>
<g id="Vector">
<use xlink:href="#path2_fill" transform="translate(17599.6 1258.16)" fill="#FFFFFF"/>
</g>
<g id="Vector">
<use xlink:href="#path3_fill" transform="translate(17601 1262.25)" fill="#FFFFFF"/>
</g>
<g id="Vector">
<use xlink:href="#path4_fill" transform="translate(17609.6 1264.07)" fill="#FFFFFF"/>
</g>
<g id="Vector">
<use xlink:href="#path5_fill" transform="translate(17612.6 1264.07)" fill="#FFFFFF"/>
</g>
<g id="Vector">
<use xlink:href="#path6_fill" transform="translate(17615.5 1264.07)" fill="#FFFFFF"/>
</g>
<g id="Vector">
<use xlink:href="#path7_fill" transform="translate(17618.5 1264.07)" fill="#FFFFFF"/>
</g>
<g id="Vector">
<use xlink:href="#path8_fill" transform="translate(17600.8 1267.32)" fill="#FFFFFF"/>
</g>
<g id="Vector">
<use xlink:href="#path9_fill" transform="translate(17603.8 1267.32)" fill="#FFFFFF"/>
</g>
<g id="Vector">
<use xlink:href="#path10_fill" transform="translate(17606.7 1267.32)" fill="#FFFFFF"/>
</g>
<g id="Vector">
<use xlink:href="#path11_fill" transform="translate(17609.8 1267.46)" fill="#FFFFFF"/>
</g>
<g id="Vector">
<use xlink:href="#path12_fill" transform="translate(17612.6 1267.32)" fill="#FFFFFF"/>
</g>
<g id="Vector">
<use xlink:href="#path13_fill" transform="translate(17615.5 1267.32)" fill="#FFFFFF"/>
</g>
<g id="Vector">
<use xlink:href="#path14_fill" transform="translate(17618.5 1267.32)" fill="#FFFFFF"/>
</g>
<g id="Vector">
<use xlink:href="#path15_fill" transform="translate(17600.8 1270.57)" fill="#FFFFFF"/>
</g>
<g id="Vector">
<use xlink:href="#path16_fill" transform="translate(17603.8 1270.57)" fill="#FFFFFF"/>
</g>
<g id="Vector">
<use xlink:href="#path17_fill" transform="translate(17606.7 1270.57)" fill="#FFFFFF"/>
</g>
<g id="Vector">
<use xlink:href="#path18_fill" transform="translate(17609.6 1270.57)" fill="#FFFFFF"/>
</g>
<g id="Vector">
<use xlink:href="#path19_fill" transform="translate(17612.6 1270.57)" fill="#FFFFFF"/>
</g>
<g id="Vector">
<use xlink:href="#path20_fill" transform="translate(17615.5 1270.57)" fill="#FFFFFF"/>
</g>
<g id="Vector">
<use xlink:href="#path21_fill" transform="translate(17618.5 1270.57)" fill="#FFFFFF"/>
</g>
<g id="Vector">
<use xlink:href="#path22_fill" transform="translate(17600.8 1273.81)" fill="#FFFFFF"/>
</g>
<g id="Vector">
<use xlink:href="#path23_fill" transform="translate(17603.8 1273.81)" fill="#FFFFFF"/>
</g>
<g id="Vector">
<use xlink:href="#path24_fill" transform="translate(17606.7 1273.81)" fill="#FFFFFF"/>
</g>
<g id="Vector">
<use xlink:href="#path25_fill" transform="translate(17609.6 1273.81)" fill="#FFFFFF"/>
</g>
<g id="Vector">
<use xlink:href="#path26_fill" transform="translate(17612.6 1273.81)" fill="#FFFFFF"/>
</g>
</g>
</g>
</g>
</g>
<defs>
<path id="path0_fill" d="M 1.03519 4.66667C 0.46311 4.66667 0 4.17391 0 3.56522L 0 1.10145C 0 0.492754 0.46311 2.76427e-08 1.03519 2.76427e-08C 1.60726 2.76427e-08 2.07037 0.492754 2.07037 1.10145L 2.07037 3.56522C 2.07037 4.17391 1.60726 4.66667 1.03519 4.66667Z"/>
<path id="path1_fill" d="M 1.03519 4.66667C 0.463111 4.66667 0 4.17391 0 3.56522L 0 1.10145C 0 0.492754 0.463111 2.76427e-08 1.03519 2.76427e-08C 1.60727 2.76427e-08 2.07037 0.492754 2.07037 1.10145L 2.07037 3.56522C 2.09762 4.17391 1.60727 4.66667 1.03519 4.66667Z"/>
<path id="path2_fill" d="M 20.622 0.57971C 21.3576 0.57971 21.9569 1.21739 21.9569 2L 21.9569 17.913C 21.9569 18.6957 21.3576 19.3333 20.622 19.3333L 1.85244 19.3333C 1.11691 19.3333 0.517594 18.6957 0.517594 17.913L 0.517594 2C 0.517594 1.21739 1.11691 0.57971 1.85244 0.57971L 3.4597 0.57971L 3.4597 1.33333C 3.4597 2.52174 4.35868 3.47826 5.4756 3.47826C 6.59251 3.47826 7.49149 2.52174 7.49149 1.33333L 7.49149 0.57971L 14.9285 0.57971L 14.9285 1.33333C 14.9285 2.52174 15.8275 3.47826 16.9444 3.47826C 18.0613 3.47826 18.9603 2.52174 18.9603 1.33333L 18.9603 0.57971L 20.622 0.57971ZM 20.622 -1.10571e-07L 18.4699 -1.10571e-07L 18.4699 1.33333C 18.4699 2.2029 17.8161 2.89855 16.9989 2.89855C 16.1816 2.89855 15.5278 2.2029 15.5278 1.33333L 15.5278 -1.10571e-07L 6.97389 -1.10571e-07L 6.97389 1.33333C 6.97389 2.2029 6.32009 2.89855 5.50284 2.89855C 4.68558 2.89855 4.03178 2.2029 4.03178 1.33333L 4.03178 -1.10571e-07L 1.87968 -1.10571e-07C 0.844495 -1.10571e-07 -2.59798e-08 0.89855 -2.59798e-08 2L -2.59798e-08 17.913C -2.59798e-08 19.0145 0.844495 19.913 1.87968 19.913L 20.6493 19.913C 21.6845 19.913 22.5289 19.0145 22.5289 17.913L 22.5289 2C 22.5289 0.89855 21.6572 -1.10571e-07 20.622 -1.10571e-07Z"/>
<path id="path3_fill" d="M 19.7503 0L 0 0L 0 0.57971L 19.7503 0.57971L 19.7503 0Z"/>
<path id="path4_fill" d="M 2.04313 2.69565L 0.490351 2.69565C 0.217934 2.69565 -2.07838e-07 2.46377 -2.07838e-07 2.17391L -2.07838e-07 0.521739C -2.07838e-07 0.231884 0.217934 -2.21142e-07 0.490351 -2.21142e-07L 2.04313 -2.21142e-07C 2.31555 -2.21142e-07 2.53348 0.231884 2.53348 0.521739L 2.53348 2.17391C 2.53348 2.46377 2.31555 2.69565 2.04313 2.69565ZM 0.490351 0.289855C 0.381384 0.289855 0.272417 0.376811 0.272417 0.521739L 0.272417 2.17391C 0.272417 2.28985 0.354143 2.4058 0.490351 2.4058L 2.04313 2.4058C 2.1521 2.4058 2.26107 2.31884 2.26107 2.17391L 2.26107 0.521739C 2.26107 0.405797 2.17934 0.289855 2.04313 0.289855L 0.490351 0.289855Z"/>
<path id="path5_fill" d="M 2.04313 2.69565L 0.490352 2.69565C 0.217935 2.69565 -4.15676e-07 2.46377 -4.15676e-07 2.17391L -4.15676e-07 0.521739C -4.15676e-07 0.231884 0.217935 -2.21142e-07 0.490352 -2.21142e-07L 2.04313 -2.21142e-07C 2.31555 -2.21142e-07 2.53348 0.231884 2.53348 0.521739L 2.53348 2.17391C 2.53348 2.46377 2.31555 2.69565 2.04313 2.69565ZM 0.490352 0.289855C 0.381385 0.289855 0.272417 0.376811 0.272417 0.521739L 0.272417 2.17391C 0.272417 2.28985 0.354143 2.4058 0.490352 2.4058L 2.04313 2.4058C 2.1521 2.4058 2.26107 2.31884 2.26107 2.17391L 2.26107 0.521739C 2.26107 0.405797 2.17934 0.289855 2.04313 0.289855L 0.490352 0.289855Z"/>
<path id="path6_fill" d="M 2.04313 2.69565L 0.490352 2.69565C 0.217934 2.69565 4.15676e-07 2.46377 4.15676e-07 2.17391L 4.15676e-07 0.521739C 4.15676e-07 0.231884 0.217934 -2.21142e-07 0.490352 -2.21142e-07L 2.04313 -2.21142e-07C 2.31555 -2.21142e-07 2.53348 0.231884 2.53348 0.521739L 2.53348 2.17391C 2.53348 2.46377 2.31555 2.69565 2.04313 2.69565ZM 0.490352 0.289855C 0.381385 0.289855 0.272418 0.376811 0.272418 0.521739L 0.272418 2.17391C 0.272418 2.28985 0.354143 2.4058 0.490352 2.4058L 2.04313 2.4058C 2.1521 2.4058 2.26107 2.31884 2.26107 2.17391L 2.26107 0.521739C 2.26107 0.405797 2.17934 0.289855 2.04313 0.289855L 0.490352 0.289855Z"/>
<path id="path7_fill" d="M 2.04313 2.69565L 0.490352 2.69565C 0.217934 2.69565 -8.31353e-07 2.46377 -8.31353e-07 2.17391L -8.31353e-07 0.521739C -8.31353e-07 0.231884 0.217934 -2.21142e-07 0.490352 -2.21142e-07L 2.04313 -2.21142e-07C 2.31555 -2.21142e-07 2.53348 0.231884 2.53348 0.521739L 2.53348 2.17391C 2.53348 2.46377 2.31555 2.69565 2.04313 2.69565ZM 0.490352 0.289855C 0.381385 0.289855 0.272417 0.376811 0.272417 0.521739L 0.272417 2.17391C 0.272417 2.28985 0.354143 2.4058 0.490352 2.4058L 2.04313 2.4058C 2.1521 2.4058 2.26107 2.31884 2.26107 2.17391L 2.26107 0.521739C 2.26107 0.405797 2.17934 0.289855 2.04313 0.289855L 0.490352 0.289855Z"/>
<path id="path8_fill" d="M 2.04313 2.69565L 0.490352 2.69565C 0.217934 2.69565 0 2.46377 0 2.17391L 0 0.521739C 0 0.231884 0.217934 0 0.490352 0L 2.04313 0C 2.31555 0 2.53348 0.231884 2.53348 0.521739L 2.53348 2.17391C 2.53348 2.46377 2.31555 2.69565 2.04313 2.69565ZM 0.490352 0.289855C 0.381385 0.289855 0.272418 0.376811 0.272418 0.521739L 0.272418 2.17391C 0.272418 2.28986 0.354143 2.4058 0.490352 2.4058L 2.04313 2.4058C 2.1521 2.4058 2.26107 2.31884 2.26107 2.17391L 2.26107 0.521739C 2.26107 0.405797 2.17934 0.289855 2.04313 0.289855L 0.490352 0.289855Z"/>
<path id="path9_fill" d="M 2.04313 2.69565L 0.490352 2.69565C 0.217934 2.69565 -2.07838e-07 2.46377 -2.07838e-07 2.17391L -2.07838e-07 0.521739C -2.07838e-07 0.231884 0.217934 0 0.490352 0L 2.04313 0C 2.31555 0 2.53348 0.231884 2.53348 0.521739L 2.53348 2.17391C 2.50624 2.46377 2.28831 2.69565 2.04313 2.69565ZM 0.490352 0.289855C 0.381385 0.289855 0.272417 0.376811 0.272417 0.521739L 0.272417 2.17391C 0.272417 2.28986 0.354143 2.4058 0.490352 2.4058L 2.04313 2.4058C 2.1521 2.4058 2.26107 2.31884 2.26107 2.17391L 2.26107 0.521739C 2.26107 0.405797 2.17934 0.289855 2.04313 0.289855L 0.490352 0.289855Z"/>
<path id="path10_fill" d="M 2.04313 2.69565L 0.490352 2.69565C 0.217934 2.69565 0 2.46377 0 2.17391L 0 0.521739C 0 0.231884 0.217934 0 0.490352 0L 2.04313 0C 2.31555 0 2.53348 0.231884 2.53348 0.521739L 2.53348 2.17391C 2.53348 2.46377 2.31555 2.69565 2.04313 2.69565ZM 0.517594 0.289855C 0.408626 0.289855 0.29966 0.376811 0.29966 0.521739L 0.29966 2.17391C 0.29966 2.28986 0.381385 2.4058 0.517594 2.4058L 2.04313 2.4058C 2.1521 2.4058 2.26107 2.31884 2.26107 2.17391L 2.26107 0.521739C 2.26107 0.405797 2.17934 0.289855 2.04313 0.289855L 0.517594 0.289855Z"/>
<path id="path11_fill" d="M 1.90692 2.4058L 0.354143 2.4058C 0.16345 2.4058 -2.07838e-07 2.23188 -2.07838e-07 2.02899L -2.07838e-07 0.376811C -2.07838e-07 0.173913 0.16345 0 0.354143 0L 1.90692 0C 2.09762 0 2.26107 0.173913 2.26107 0.376811L 2.26107 2.02899C 2.26107 2.23188 2.09762 2.4058 1.90692 2.4058Z"/>
<path id="path12_fill" d="M 2.04313 2.69565L 0.490352 2.69565C 0.217935 2.69565 -4.15676e-07 2.46377 -4.15676e-07 2.17391L -4.15676e-07 0.521739C -4.15676e-07 0.231884 0.217935 0 0.490352 0L 2.04313 0C 2.31555 0 2.53348 0.231884 2.53348 0.521739L 2.53348 2.17391C 2.53348 2.46377 2.31555 2.69565 2.04313 2.69565ZM 0.490352 0.289855C 0.381385 0.289855 0.272417 0.376811 0.272417 0.521739L 0.272417 2.17391C 0.272417 2.28986 0.354143 2.4058 0.490352 2.4058L 2.04313 2.4058C 2.1521 2.4058 2.26107 2.31884 2.26107 2.17391L 2.26107 0.521739C 2.26107 0.405797 2.17934 0.289855 2.04313 0.289855L 0.490352 0.289855Z"/>
<path id="path13_fill" d="M 2.04313 2.69565L 0.490352 2.69565C 0.217934 2.69565 4.15676e-07 2.46377 4.15676e-07 2.17391L 4.15676e-07 0.521739C 4.15676e-07 0.231884 0.217934 0 0.490352 0L 2.04313 0C 2.31555 0 2.53348 0.231884 2.53348 0.521739L 2.53348 2.17391C 2.53348 2.46377 2.31555 2.69565 2.04313 2.69565ZM 0.490352 0.289855C 0.381385 0.289855 0.272418 0.376811 0.272418 0.521739L 0.272418 2.17391C 0.272418 2.28986 0.354143 2.4058 0.490352 2.4058L 2.04313 2.4058C 2.1521 2.4058 2.26107 2.31884 2.26107 2.17391L 2.26107 0.521739C 2.26107 0.405797 2.17934 0.289855 2.04313 0.289855L 0.490352 0.289855Z"/>
<path id="path14_fill" d="M 2.04313 2.69565L 0.490352 2.69565C 0.217934 2.69565 -8.31353e-07 2.46377 -8.31353e-07 2.17391L -8.31353e-07 0.521739C -8.31353e-07 0.231884 0.217934 0 0.490352 0L 2.04313 0C 2.31555 0 2.53348 0.231884 2.53348 0.521739L 2.53348 2.17391C 2.53348 2.46377 2.31555 2.69565 2.04313 2.69565ZM 0.490352 0.289855C 0.381385 0.289855 0.272417 0.376811 0.272417 0.521739L 0.272417 2.17391C 0.272417 2.28986 0.354143 2.4058 0.490352 2.4058L 2.04313 2.4058C 2.1521 2.4058 2.26107 2.31884 2.26107 2.17391L 2.26107 0.521739C 2.26107 0.405797 2.17934 0.289855 2.04313 0.289855L 0.490352 0.289855Z"/>
<path id="path15_fill" d="M 2.04313 2.69565L 0.490352 2.69565C 0.217934 2.69565 0 2.46377 0 2.17391L 0 0.521739C 0 0.231884 0.217934 2.21142e-07 0.490352 2.21142e-07L 2.04313 2.21142e-07C 2.31555 2.21142e-07 2.53348 0.231884 2.53348 0.521739L 2.53348 2.17391C 2.53348 2.46377 2.31555 2.69565 2.04313 2.69565ZM 0.490352 0.289855C 0.381385 0.289855 0.272418 0.376812 0.272418 0.521739L 0.272418 2.17391C 0.272418 2.28985 0.381385 2.4058 0.490352 2.4058L 2.04313 2.4058C 2.1521 2.4058 2.26107 2.31884 2.26107 2.17391L 2.26107 0.521739C 2.26107 0.405797 2.17934 0.289855 2.04313 0.289855L 0.490352 0.289855Z"/>
<path id="path16_fill" d="M 2.04313 2.69565L 0.490352 2.69565C 0.217934 2.69565 -2.07838e-07 2.46377 -2.07838e-07 2.17391L -2.07838e-07 0.521739C -2.07838e-07 0.231884 0.217934 2.21142e-07 0.490352 2.21142e-07L 2.04313 2.21142e-07C 2.31555 2.21142e-07 2.53348 0.231884 2.53348 0.521739L 2.53348 2.17391C 2.50624 2.46377 2.28831 2.69565 2.04313 2.69565ZM 0.490352 0.289855C 0.381385 0.289855 0.272417 0.376812 0.272417 0.521739L 0.272417 2.17391C 0.272417 2.28985 0.354143 2.4058 0.490352 2.4058L 2.04313 2.4058C 2.1521 2.4058 2.26107 2.31884 2.26107 2.17391L 2.26107 0.521739C 2.26107 0.405797 2.17934 0.289855 2.04313 0.289855L 0.490352 0.289855Z"/>
<path id="path17_fill" d="M 2.04313 2.69565L 0.490352 2.69565C 0.217934 2.69565 0 2.46377 0 2.17391L 0 0.521739C 0 0.231884 0.217934 2.21142e-07 0.490352 2.21142e-07L 2.04313 2.21142e-07C 2.31555 2.21142e-07 2.53348 0.231884 2.53348 0.521739L 2.53348 2.17391C 2.53348 2.46377 2.31555 2.69565 2.04313 2.69565ZM 0.517594 0.289855C 0.408626 0.289855 0.29966 0.376812 0.29966 0.521739L 0.29966 2.17391C 0.29966 2.28985 0.381385 2.4058 0.517594 2.4058L 2.04313 2.4058C 2.1521 2.4058 2.26107 2.31884 2.26107 2.17391L 2.26107 0.521739C 2.26107 0.405797 2.17934 0.289855 2.04313 0.289855L 0.517594 0.289855Z"/>
<path id="path18_fill" d="M 2.04313 2.69565L 0.490351 2.69565C 0.217934 2.69565 -2.07838e-07 2.46377 -2.07838e-07 2.17391L -2.07838e-07 0.521739C -2.07838e-07 0.231884 0.217934 2.21142e-07 0.490351 2.21142e-07L 2.04313 2.21142e-07C 2.31555 2.21142e-07 2.53348 0.231884 2.53348 0.521739L 2.53348 2.17391C 2.53348 2.46377 2.31555 2.69565 2.04313 2.69565ZM 0.490351 0.289855C 0.381384 0.289855 0.272417 0.376812 0.272417 0.521739L 0.272417 2.17391C 0.272417 2.28985 0.354143 2.4058 0.490351 2.4058L 2.04313 2.4058C 2.1521 2.4058 2.26107 2.31884 2.26107 2.17391L 2.26107 0.521739C 2.26107 0.405797 2.17934 0.289855 2.04313 0.289855L 0.490351 0.289855Z"/>
<path id="path19_fill" d="M 2.04313 2.69565L 0.490352 2.69565C 0.217935 2.69565 -4.15676e-07 2.46377 -4.15676e-07 2.17391L -4.15676e-07 0.521739C -4.15676e-07 0.231884 0.217935 2.21142e-07 0.490352 2.21142e-07L 2.04313 2.21142e-07C 2.31555 2.21142e-07 2.53348 0.231884 2.53348 0.521739L 2.53348 2.17391C 2.53348 2.46377 2.31555 2.69565 2.04313 2.69565ZM 0.490352 0.289855C 0.381385 0.289855 0.272417 0.376812 0.272417 0.521739L 0.272417 2.17391C 0.272417 2.28985 0.354143 2.4058 0.490352 2.4058L 2.04313 2.4058C 2.1521 2.4058 2.26107 2.31884 2.26107 2.17391L 2.26107 0.521739C 2.26107 0.405797 2.17934 0.289855 2.04313 0.289855L 0.490352 0.289855Z"/>
<path id="path20_fill" d="M 2.04313 2.69565L 0.490352 2.69565C 0.217934 2.69565 4.15676e-07 2.46377 4.15676e-07 2.17391L 4.15676e-07 0.521739C 4.15676e-07 0.231884 0.217934 2.21142e-07 0.490352 2.21142e-07L 2.04313 2.21142e-07C 2.31555 2.21142e-07 2.53348 0.231884 2.53348 0.521739L 2.53348 2.17391C 2.53348 2.46377 2.31555 2.69565 2.04313 2.69565ZM 0.490352 0.289855C 0.381385 0.289855 0.272418 0.376812 0.272418 0.521739L 0.272418 2.17391C 0.272418 2.28985 0.354143 2.4058 0.490352 2.4058L 2.04313 2.4058C 2.1521 2.4058 2.26107 2.31884 2.26107 2.17391L 2.26107 0.521739C 2.26107 0.405797 2.17934 0.289855 2.04313 0.289855L 0.490352 0.289855Z"/>
<path id="path21_fill" d="M 2.04313 2.69565L 0.490352 2.69565C 0.217934 2.69565 -8.31353e-07 2.46377 -8.31353e-07 2.17391L -8.31353e-07 0.521739C -8.31353e-07 0.231884 0.217934 2.21142e-07 0.490352 2.21142e-07L 2.04313 2.21142e-07C 2.31555 2.21142e-07 2.53348 0.231884 2.53348 0.521739L 2.53348 2.17391C 2.53348 2.46377 2.31555 2.69565 2.04313 2.69565ZM 0.490352 0.289855C 0.381385 0.289855 0.272417 0.376812 0.272417 0.521739L 0.272417 2.17391C 0.272417 2.28985 0.354143 2.4058 0.490352 2.4058L 2.04313 2.4058C 2.1521 2.4058 2.26107 2.31884 2.26107 2.17391L 2.26107 0.521739C 2.26107 0.405797 2.17934 0.289855 2.04313 0.289855L 0.490352 0.289855Z"/>
<path id="path22_fill" d="M 2.04313 2.69565L 0.490352 2.69565C 0.217934 2.69565 0 2.46377 0 2.17391L 0 0.521738C 0 0.231883 0.217934 4.42284e-07 0.490352 4.42284e-07L 2.04313 4.42284e-07C 2.31555 4.42284e-07 2.53348 0.231883 2.53348 0.521738L 2.53348 2.17391C 2.53348 2.46377 2.31555 2.69565 2.04313 2.69565ZM 0.490352 0.318841C 0.381385 0.318841 0.272418 0.405796 0.272418 0.521738L 0.272418 2.17391C 0.272418 2.28986 0.354143 2.4058 0.490352 2.4058L 2.04313 2.4058C 2.1521 2.4058 2.26107 2.31884 2.26107 2.17391L 2.26107 0.521738C 2.26107 0.405796 2.17934 0.289856 2.04313 0.289856L 0.490352 0.289856L 0.490352 0.318841Z"/>
<path id="path23_fill" d="M 2.04313 2.69565L 0.490352 2.69565C 0.217934 2.69565 -2.07838e-07 2.46377 -2.07838e-07 2.17391L -2.07838e-07 0.521738C -2.07838e-07 0.231883 0.217934 4.42284e-07 0.490352 4.42284e-07L 2.04313 4.42284e-07C 2.31555 4.42284e-07 2.53348 0.231883 2.53348 0.521738L 2.53348 2.17391C 2.50624 2.46377 2.28831 2.69565 2.04313 2.69565ZM 0.490352 0.318841C 0.381385 0.318841 0.272417 0.405798 0.272417 0.550726L 0.272417 2.2029C 0.272417 2.31884 0.354143 2.43478 0.490352 2.43478L 2.04313 2.43478C 2.1521 2.43478 2.26107 2.34783 2.26107 2.2029L 2.26107 0.550726C 2.26107 0.434783 2.17934 0.318841 2.04313 0.318841L 0.490352 0.318841Z"/>
<path id="path24_fill" d="M 2.04313 2.69565L 0.490352 2.69565C 0.217934 2.69565 0 2.46377 0 2.17391L 0 0.521738C 0 0.231883 0.217934 4.42284e-07 0.490352 4.42284e-07L 2.04313 4.42284e-07C 2.31555 4.42284e-07 2.53348 0.231883 2.53348 0.521738L 2.53348 2.17391C 2.53348 2.46377 2.31555 2.69565 2.04313 2.69565ZM 0.517594 0.318841C 0.408626 0.318841 0.29966 0.405798 0.29966 0.550726L 0.29966 2.2029C 0.29966 2.31884 0.381385 2.43478 0.517594 2.43478L 2.04313 2.43478C 2.1521 2.43478 2.26107 2.34783 2.26107 2.2029L 2.26107 0.550726C 2.26107 0.434783 2.17934 0.318841 2.04313 0.318841L 0.517594 0.318841Z"/>
<path id="path25_fill" d="M 2.04313 2.69565L 0.490351 2.69565C 0.217934 2.69565 -2.07838e-07 2.46377 -2.07838e-07 2.17391L -2.07838e-07 0.521738C -2.07838e-07 0.231883 0.217934 4.42284e-07 0.490351 4.42284e-07L 2.04313 4.42284e-07C 2.31555 4.42284e-07 2.53348 0.231883 2.53348 0.521738L 2.53348 2.17391C 2.53348 2.46377 2.31555 2.69565 2.04313 2.69565ZM 0.490351 0.318841C 0.381384 0.318841 0.272417 0.405798 0.272417 0.550726L 0.272417 2.2029C 0.272417 2.31884 0.354143 2.43478 0.490351 2.43478L 2.04313 2.43478C 2.1521 2.43478 2.26107 2.34783 2.26107 2.2029L 2.26107 0.550726C 2.26107 0.434783 2.17934 0.318841 2.04313 0.318841L 0.490351 0.318841Z"/>
<path id="path26_fill" d="M 2.04313 2.69565L 0.490352 2.69565C 0.217935 2.69565 -4.15676e-07 2.46377 -4.15676e-07 2.17391L -4.15676e-07 0.521738C -4.15676e-07 0.231883 0.217935 4.42284e-07 0.490352 4.42284e-07L 2.04313 4.42284e-07C 2.31555 4.42284e-07 2.53348 0.231883 2.53348 0.521738L 2.53348 2.17391C 2.53348 2.46377 2.31555 2.69565 2.04313 2.69565ZM 0.490352 0.318841C 0.381385 0.318841 0.272417 0.405798 0.272417 0.550726L 0.272417 2.2029C 0.272417 2.31884 0.354143 2.43478 0.490352 2.43478L 2.04313 2.43478C 2.1521 2.43478 2.26107 2.34783 2.26107 2.2029L 2.26107 0.550726C 2.26107 0.434783 2.17934 0.318841 2.04313 0.318841L 0.490352 0.318841Z"/>
</defs>
</svg>
