<svg width="24" height="24" viewBox="0 0 24 24" version="1.1" xmlns="http://www.w3.org/2000/svg" xmlns:xlink="http://www.w3.org/1999/xlink">
<title>noun_230273_cc</title>
<desc>Created using Figma</desc>
<g id="Canvas" transform="translate(-17599 -1725)">
<g id="noun_230273_cc">
<g id="Group">
<g id="Group">
<g id="Vector">
<use xlink:href="#path0_fill" transform="translate(17599 1725)" fill="#FFFFFF"/>
</g>
</g>
<g id="Group">
<g id="Group">
<g id="Group">
<g id="Group">
<g id="Vector">
<use xlink:href="#path1_fill" transform="translate(17611.9 1738)" fill="#FFFFFF"/>
</g>
</g>
</g>
<g id="Group">
<g id="Vector">
<use xlink:href="#path2_fill" transform="translate(17613.9 1741.5)" fill="#FFFFFF"/>
</g>
</g>
</g>
</g>
</g>
</g>
</g>
<defs>
<path id="path0_fill" d="M 12.6112 23L 9.11963 23C 8.58768 23 8.13578 22.613 8.07093 22.101L 7.68894 19.472C 7.17118 19.241 6.66963 18.953 6.19138 18.614L 3.67957 19.61C 3.1689 19.793 2.61263 19.589 2.3654 19.144L 0.142366 15.349C -0.116009 14.879 -0.00455346 14.317 0.401754 14L 2.53259 12.356C 2.49915 12.04 2.48294 11.763 2.48294 11.5C 2.48294 11.237 2.49915 10.96 2.53157 10.643L 0.40378 9.001C -0.0116461 8.677 -0.122089 8.096 0.145405 7.648L 2.37148 3.847C 2.62074 3.4 3.18207 3.2 3.67552 3.389L 6.19442 4.388C 6.69394 4.038 7.18638 3.755 7.68894 3.529L 8.07194 0.891C 8.13578 0.387 8.58667 0 9.11963 0L 13.5779 0C 14.1108 0 14.5627 0.387 14.6266 0.9L 15.0086 3.528C 15.5263 3.759 16.0279 4.047 16.5061 4.386L 19.0179 3.39C 19.5266 3.209 20.0859 3.411 20.3311 3.857L 22.5541 7.651C 22.8135 8.122 22.701 8.684 22.2947 9L 20.1649 10.644C 20.1912 10.896 20.2135 11.19 20.2135 11.501C 20.2135 11.519 20.2085 11.6 20.2064 11.618C 20.1912 11.756 20.1173 11.91 20.0038 11.993C 19.8903 12.076 19.7414 12.136 19.6076 12.112C 18.5073 11.914 17.5356 11.984 16.5497 12.274C 16.3926 12.318 16.2204 12.288 16.0917 12.187C 15.963 12.086 15.8911 11.93 15.8992 11.768C 15.9022 11.714 15.9093 11.661 15.9164 11.608C 15.9255 9.038 13.8758 7.015 11.3558 7.015C 8.83592 7.015 6.78615 9.038 6.78615 11.526C 6.78615 14.013 8.83592 16.036 11.3558 16.036C 11.4936 16.019 11.5473 16.012 11.6021 16.009C 11.7672 16.004 11.9253 16.072 12.0266 16.199C 12.1279 16.326 12.1614 16.495 12.1148 16.651C 11.9324 17.258 11.8402 17.881 11.8402 18.503C 11.8402 19.836 12.2495 21.121 13.0257 22.217C 13.1331 22.37 13.1462 22.569 13.0591 22.734C 12.974 22.896 12.8007 23 12.6112 23ZM 6.26636 17.545C 6.37579 17.545 6.48522 17.58 6.5754 17.649C 7.13166 18.071 7.72542 18.412 8.34248 18.661C 8.50865 18.728 8.62618 18.877 8.65253 19.053L 9.07606 21.968L 11.7054 21.992C 11.1309 20.919 10.83 19.727 10.83 18.5C 10.83 18.005 10.8806 17.51 10.9809 17.021C 8.07802 16.829 5.77595 14.437 5.77595 11.523C 5.77595 8.484 8.28067 6.012 11.3589 6.012C 14.3104 6.012 16.7341 8.284 16.9296 11.149C 17.6713 11.001 18.413 10.959 19.1871 11.04C 19.1729 10.84 19.1507 10.652 19.1294 10.484C 19.1071 10.31 19.18 10.136 19.3199 10.028L 21.6716 8.213L 19.4475 4.348L 16.6196 5.419C 16.4524 5.485 16.2629 5.46 16.1221 5.352C 15.5658 4.929 14.9711 4.589 14.355 4.34C 14.1888 4.273 14.0713 4.124 14.045 3.948L 13.6214 1.033L 9.11963 1L 8.65151 3.948C 8.62618 4.124 8.50763 4.272 8.34146 4.34C 7.74771 4.58 7.16814 4.912 6.57033 5.355C 6.42848 5.46 6.24204 5.484 6.07688 5.419L 3.30163 4.319L 1.02084 8.153L 3.37965 10.028C 3.51948 10.136 3.59243 10.31 3.57014 10.484C 3.51948 10.882 3.49617 11.205 3.49617 11.5C 3.49617 11.795 3.51948 12.118 3.57014 12.516C 3.59243 12.69 3.51948 12.864 3.37965 12.972L 1.02793 14.787L 3.24996 18.653L 6.0779 17.581C 6.13869 17.557 6.20252 17.545 6.26636 17.545Z"/>
<path id="path1_fill" d="M 5.57279 11C 2.49965 11 4.1744e-07 8.533 4.1744e-07 5.5C 4.1744e-07 2.467 2.49965 0 5.57279 0C 8.64594 0 11.1456 2.467 11.1456 5.5C 11.1456 8.533 8.64594 11 5.57279 11ZM 5.57279 1C 3.05896 1 1.01324 3.019 1.01324 5.5C 1.01324 7.981 3.05896 10 5.57279 10C 8.08663 10 10.1324 7.981 10.1324 5.5C 10.1324 3.019 8.08764 1 5.57279 1Z"/>
<path id="path2_fill" d="M 2.53334 4.49925C 2.40365 4.49925 2.27395 4.45025 2.17466 4.35325L 0.148186 2.35325C -0.0493949 2.15825 -0.0493949 1.84125 0.148186 1.64625C 0.345767 1.45125 0.666962 1.45125 0.864543 1.64625L 2.53233 3.29225L 5.71997 0.146249C 5.91755 -0.0487506 6.23874 -0.0487506 6.43632 0.146249C 6.6339 0.341249 6.6339 0.65825 6.43632 0.85325L 2.89 4.35325C 2.79273 4.45025 2.66304 4.49925 2.53334 4.49925Z"/>
</defs>
</svg>
