<svg width="24" height="24" viewBox="0 0 24 24" version="1.1" xmlns="http://www.w3.org/2000/svg" xmlns:xlink="http://www.w3.org/1999/xlink">
<title>noun_1124751_cc</title>
<desc>Created using Figma</desc>
<g id="Canvas" transform="translate(-17599 -1443)">
<g id="noun_1124751_cc">
<g id="Group">
<g id="Group">
<g id="Vector">
<use xlink:href="#path0_fill" transform="translate(17606.3 1445.36)" fill="#FFFFFF"/>
</g>
</g>
<g id="Group">
<g id="Vector">
<use xlink:href="#path1_fill" transform="translate(17602.3 1459.28)" fill="#FFFFFF"/>
</g>
</g>
<g id="Group">
<g id="Vector">
<use xlink:href="#path2_fill" transform="translate(17612.4 1459.28)" fill="#FFFFFF"/>
</g>
</g>
<g id="Group">
<g id="Vector">
<use xlink:href="#path3_fill" transform="translate(17602 1443)" fill="#FFFFFF"/>
</g>
</g>
<g id="Group">
<g id="Vector">
<use xlink:href="#path4_fill" transform="translate(17599 1453.4)" fill="#FFFFFF"/>
</g>
</g>
<g id="Group">
<g id="Vector">
<use xlink:href="#path5_fill" transform="translate(17606.5 1457.77)" fill="#FFFFFF"/>
</g>
</g>
<g id="Group">
<g id="Vector">
<use xlink:href="#path6_fill" transform="translate(17613.3 1443)" fill="#FFFFFF"/>
</g>
</g>
<g id="Group">
<g id="Vector">
<use xlink:href="#path7_fill" transform="translate(17614 1457.8)" fill="#FFFFFF"/>
</g>
</g>
<g id="Group">
<g id="Vector">
<use xlink:href="#path8_fill" transform="translate(17617.5 1453.4)" fill="#FFFFFF"/>
</g>
</g>
</g>
</g>
</g>
<defs>
<path id="path0_fill" d="M 6.8541 14.0755C 6.88866 14.0232 6.90775 13.9583 6.90775 13.8911L 6.90775 12.0863C 6.94541 11.9258 7.03002 11.7622 7.13681 11.595C 7.20285 11.5871 7.2903 11.581 7.40947 11.581C 7.85496 11.581 8.39718 11.6641 8.40234 11.6647C 8.41317 11.6663 8.42478 11.6676 8.43407 11.667C 8.55453 11.6647 8.67087 11.5387 8.67087 11.3773C 8.67087 11.298 8.64507 11.2263 8.60328 11.1745C 8.13329 10.3024 8.27826 9.46511 8.38273 9.09389C 8.66494 8.76501 8.85479 8.2951 8.94482 7.68637C 8.96004 7.58576 8.98867 7.47529 9.01962 7.35908C 9.08798 7.09834 9.16356 6.80544 9.121 6.48547C 9.40114 5.49088 9.53656 4.11296 8.95049 2.5695C 7.98961 0.0381226 5.94481 0.490848 5.45031 0.643348C 4.95762 0.291547 2.67756 -1.09846 0.872916 1.79076C -0.261308 3.60675 -0.0840938 5.25687 0.262339 6.36162C 0.260533 6.36958 0.258212 6.375 0.256406 6.38296C 0.179794 6.74367 0.265434 7.07064 0.341015 7.35877C 0.371711 7.47529 0.400602 7.58545 0.415822 7.68605C 0.506105 8.29446 0.695185 8.76374 0.977129 9.09262C 1.08212 9.46957 1.22941 10.332 0.736458 11.2127C 0.683836 11.3066 0.680741 11.4298 0.728978 11.5275C 0.777215 11.6253 0.867241 11.6791 0.958557 11.6644C 0.963974 11.6638 1.50516 11.5807 1.95194 11.5807C 2.0706 11.5807 2.15804 11.5871 2.22408 11.5947C 2.33087 11.7618 2.41574 11.9255 2.45314 12.086L 2.45314 13.8908C 2.45314 13.958 2.47249 14.0232 2.5068 14.0751C 2.54755 14.1359 3.51875 15.5689 4.68083 15.5689C 5.84292 15.5689 6.81334 14.1366 6.8541 14.0755Z"/>
<path id="path1_fill" d="M 6.06422 0.227922C 6.04875 0.140369 6.00102 0.0661893 5.93499 0.0276663C 5.86895 -0.0108567 5.79234 -0.00894649 5.72759 0.0321235C 5.7116 0.0423114 4.11357 1.05633 2.48692 1.93026C -0.0479991 3.29193 -0.00285716 7.26904 0.000496241 7.43745C 0.00333374 7.59473 0.107547 7.72017 0.234719 7.72017L 7.09578 7.72017C 7.09759 7.72017 7.09914 7.72017 7.10068 7.72017C 7.22992 7.72017 7.33516 7.59059 7.33516 7.43077C 7.33516 7.38938 7.3282 7.3499 7.31556 7.31424L 6.06422 0.227922Z"/>
<path id="path2_fill" d="M 4.8436 1.93001C 3.21669 1.05576 1.61892 0.0420639 1.60267 0.031876C 1.53818 -0.00919402 1.46157 -0.0104675 1.39527 0.0274188C 1.32949 0.0659418 1.28152 0.140122 1.2663 0.227674L 0.00541641 7.36907C -0.00980288 7.45503 0.00748011 7.5445 0.0518482 7.61231C 0.0962163 7.68076 0.163542 7.72024 0.23448 7.72024L 7.09554 7.72024C 7.22297 7.72024 7.32667 7.59448 7.32951 7.43753C 7.33312 7.26879 7.37826 3.29169 4.8436 1.93001Z"/>
<path id="path3_fill" d="M 0.19127 4.76715C 0.134004 5.03682 0.197977 5.28069 0.254469 5.49623C 0.277427 5.58314 0.299095 5.6656 0.310187 5.74074C 0.377771 6.19505 0.51913 6.5459 0.729362 6.79136C 0.80778 7.0728 0.917669 7.71687 0.549568 8.37494C 0.510359 8.4453 0.508038 8.53731 0.543893 8.61022C 0.580007 8.68345 0.647075 8.72356 0.715433 8.71242C 0.71956 8.7121 1.12377 8.65002 1.45731 8.65002C 1.54579 8.65002 1.61131 8.65448 1.66058 8.66052C 1.74054 8.78564 1.80374 8.90758 1.83186 9.02761L 1.83186 10.3756C 1.83186 10.4259 1.8463 10.4746 1.87184 10.5134C 1.90228 10.559 2.6279 11.629 3.49592 11.629C 3.78483 11.629 4.05697 11.5096 4.29403 11.3498C 4.15215 11.0168 4.04459 10.6437 3.9819 10.2221C 3.97571 10.1811 3.94966 10.0821 3.93186 10.0146C 3.85525 9.72261 3.74614 9.30618 3.7905 8.80443C 3.29858 6.99862 3.57202 5.19409 4.58707 3.56944C 5.23143 2.53823 5.9341 1.97853 6.5844 1.6885C 5.83402 0.0632093 4.42404 0.371712 4.0709 0.480595C 3.7028 0.21762 2.00004 -0.820273 0.651976 1.33733C -0.195145 2.6936 -0.0628146 3.92633 0.195913 4.75155C 0.194108 4.75697 0.192302 4.76111 0.19127 4.76715Z"/>
<path id="path4_fill" d="M 5.30388 5.76659C 5.40061 5.76659 5.47903 5.6698 5.47903 5.55041C 5.47903 5.51921 5.47361 5.48992 5.46433 5.46318L 4.53002 0.170245C 4.51841 0.104661 4.48255 0.049583 4.43328 0.0206112C 4.38402 -0.00804229 4.32675 -0.00676951 4.27825 0.0241126C 4.26639 0.0317535 3.07283 0.789161 1.85761 1.44214C -0.0357706 2.4587 -0.00197857 5.42943 0.000343012 5.55551C 0.0026646 5.67267 0.0803087 5.76659 0.175236 5.76659L 5.30001 5.76659C 5.30182 5.76659 5.30259 5.76659 5.30388 5.76659Z"/>
<path id="path5_fill" d="M 1.16701 0.68832C 1.27277 0.621143 1.38911 0.585804 1.50699 0.567976L 1.50699 0.133397C 1.22195 0.151863 0.948265 0.190386 0.883003 0.199937L 0.879908 0.200256C 0.876554 0.200893 0.873201 0.201211 0.869589 0.201847L 0.867268 0.202166L 0.866494 0.202166C 0.829606 0.20726 0.792977 0.209489 0.756348 0.209489C 0.557207 0.209489 0.365032 0.132761 0.202521 4.85797e-08L 0.00389588 1.12481C -0.00719615 1.18912 0.00570112 1.25598 0.0387192 1.30628C 0.051359 1.32602 0.0683839 1.33907 0.0854089 1.35213C 0.723845 0.969125 1.1585 0.693732 1.16701 0.68832Z"/>
<path id="path6_fill" d="M 2.6497 4.52615C 3.19063 5.95086 3.27757 7.47873 2.90431 8.9582C 2.9172 9.39278 2.82124 9.75891 2.75392 10.0168C 2.73664 10.0824 2.71058 10.1814 2.70465 10.2202C 2.64171 10.6453 2.53311 11.0209 2.38994 11.3555C 2.62494 11.5128 2.8945 11.6293 3.18006 11.6293C 4.04807 11.6293 4.77344 10.5593 4.80388 10.5138C 4.82967 10.4749 4.84412 10.4262 4.84412 10.3759L 4.84412 9.02793C 4.87198 8.90822 4.93544 8.78596 5.01514 8.66084C 5.06441 8.65479 5.12968 8.65034 5.21893 8.65034C 5.55169 8.65034 5.95668 8.7121 5.96055 8.71274C 5.96854 8.71401 5.97731 8.71465 5.98428 8.71433C 6.0743 8.71274 6.16098 8.6185 6.16098 8.49815C 6.16098 8.43894 6.14189 8.38545 6.11068 8.34661C 5.7596 7.69522 5.86794 7.06994 5.94584 6.79264C 6.15685 6.54717 6.29847 6.19601 6.36553 5.74137C 6.37663 5.66624 6.39829 5.58378 6.42151 5.49686C 6.47233 5.30202 6.52908 5.0833 6.49709 4.8442C 6.70629 4.10144 6.80741 3.07214 6.36966 1.91932C 5.65203 0.0285067 4.12469 0.366618 3.7553 0.480595C 3.38719 0.21762 1.68444 -0.820273 0.336372 1.33733C 0.198883 1.55733 0.0895099 1.77382 -1.25954e-07 1.98649C 1.18169 2.22368 2.10955 3.10302 2.6497 4.52615Z"/>
<path id="path7_fill" d="M 0.773862 0.182746L 0.763286 0.183064L 0.747552 0.183064C 0.71247 0.183064 0.672228 0.180198 0.633793 0.174786L 0.633278 0.174786C 0.631472 0.174468 0.629665 0.17415 0.62786 0.17415L 0.624764 0.173831C 0.559244 0.16428 0.285555 0.125439 0 0.107292L 0 0.548236C 0.103698 0.569249 0.205332 0.602677 0.298453 0.661895C 0.306708 0.667307 0.742392 0.943337 1.38289 1.32761C 1.43397 1.28973 1.46956 1.22414 1.46956 1.1455C 1.46956 1.1143 1.46415 1.08501 1.45486 1.05827L 1.2681 -6.80116e-08C 1.12236 0.107928 0.954946 0.177015 0.773862 0.182746Z"/>
<path id="path8_fill" d="M 3.61783 1.44189C 2.40261 0.788914 1.20932 0.0315061 1.19693 0.0238651C 1.1487 -0.00701693 1.09169 -0.00765296 1.04216 0.0203638C 0.99315 0.0493356 0.957295 0.104413 0.945687 0.169998L 0.00389608 5.504C -0.00719594 5.56831 0.00570034 5.63517 0.0387185 5.68547C 0.0717366 5.73673 0.122039 5.76634 0.175178 5.76634L 5.29995 5.76634C 5.39514 5.76634 5.47252 5.67242 5.47459 5.55526C 5.47717 5.42918 5.51121 2.45846 3.61783 1.44189Z"/>
</defs>
</svg>
