<svg width="24" height="22" viewBox="0 0 24 22" version="1.1" xmlns="http://www.w3.org/2000/svg" xmlns:xlink="http://www.w3.org/1999/xlink">
<title>Vector</title>
<desc>Created using Figma</desc>
<g id="Canvas" transform="translate(-17599 -1351)">
<g id="Vector">
<use xlink:href="#path0_fill" transform="translate(17599 1351.13)" fill="#FFFFFF"/>
</g>
</g>
<defs>
<path id="path0_fill" d="M 21.9875 1.14441e-07L 18.5461 1.14441e-07L 18.5461 2.1085C 18.5461 2.383 18.2773 2.606 17.9443 2.606C 17.6113 2.606 17.3419 2.3835 17.3419 2.1085L 17.3419 1.14441e-07L 6.65691 1.14441e-07L 6.65691 2.1085C 6.65691 2.383 6.38749 2.606 6.05449 2.606C 5.72149 2.606 5.45267 2.3835 5.45267 2.1085L 5.45267 1.14441e-07L 2.01251 1.14441e-07C 0.902725 1.14441e-07 -1.03932e-07 0.746 -1.03932e-07 1.663L -1.03932e-07 20.2075C -1.03932e-07 21.1245 0.902725 21.87 2.01251 21.87L 21.9875 21.87C 23.0973 21.87 24 21.1245 24 20.2075L 24 1.6625C 24 0.746 23.0973 1.14441e-07 21.9875 1.14441e-07ZM 21.4838 19.9635L 2.51625 19.9635L 2.51625 5.0005L 21.4838 5.0005L 21.4838 19.9635Z"/>
</defs>
</svg>
