<svg width="67" height="79" viewBox="0 0 67 79" version="1.1" xmlns="http://www.w3.org/2000/svg" xmlns:xlink="http://www.w3.org/1999/xlink">
<title>Vector</title>
<desc>Created using Figma</desc>
<g id="Canvas" transform="translate(-10656 -4164)">
<g id="Vector">
<use xlink:href="#path0_fill" transform="translate(10656 4164)" fill="#FFFFFF"/>
</g>
</g>
<defs>
<path id="path0_fill" fill-rule="evenodd" d="M 21.013 0C 32.5701 0 41.9092 9.30781 41.9092 20.9426C 41.9092 32.461 32.5701 41.7688 21.013 41.7688C 9.3391 41.7688 0 32.461 0 20.9426C 0 9.30781 9.3391 0 21.013 0ZM 31.6362 27.6907C 30.4688 32.5773 26.1495 36.1841 20.8962 36.1841C 15.643 36.1841 11.3237 32.5773 10.1563 27.6907L 31.6362 27.6907ZM 3.03521 47.7025L 40.0414 47.7025L 40.0414 50.7275L 10.8567 50.7275C 10.8567 54.3343 7.93824 57.243 4.31933 57.243L 4.31933 69.4595C 7.93824 69.4595 10.8567 72.3682 10.8567 75.975L 51.1316 75.975C 51.1316 72.3682 54.0501 69.4595 57.669 69.4595L 57.669 57.243C 55.3342 57.243 53.2329 55.9632 52.0655 53.9853L 52.0655 47.7025L 58.9531 47.7025C 60.0037 47.7025 60.9376 48.6333 60.9376 49.6804L 60.9376 77.0221C 60.9376 78.0692 60.0037 79 58.9531 79L 3.03521 79C 1.98456 79 1.05065 78.0692 1.05065 77.0221L 1.05065 49.6804C 1.05065 48.6333 1.98456 47.7025 3.03521 47.7025ZM 31.0525 53.0545C 35.9555 53.0545 39.8079 57.592 39.8079 63.2931C 39.8079 68.8778 35.9555 73.5317 31.0525 73.5317C 26.2662 73.5317 22.2971 68.8778 22.2971 63.2931C 22.2971 57.592 26.2662 53.0545 31.0525 53.0545ZM 43.3101 54.6834L 43.3101 43.6303C 43.3101 38.2784 44.8277 31.4138 51.1316 30.5994C 58.2527 29.785 62.105 31.0648 64.2063 33.3918C 67.0081 36.3004 69.3428 44.2121 62.6887 44.3284L 48.9135 44.5611L 48.9135 54.6834C 48.9135 58.4065 43.3101 58.4065 43.3101 54.6834Z"/>
</defs>
</svg>
