<svg width="87" height="61" viewBox="0 0 87 61" version="1.1" xmlns="http://www.w3.org/2000/svg" xmlns:xlink="http://www.w3.org/1999/xlink">
<title>Vector</title>
<desc>Created using Figma</desc>
<g id="Canvas" transform="translate(-9871 -3807)">
<g id="Vector">
<use xlink:href="#path0_fill" transform="translate(9871 3807)" fill="#0B2D40"/>
</g>
</g>
<defs>
<path id="path0_fill" d="M 81.737 2.74658e-07L 4.608 2.74658e-07C 2.073 2.74658e-07 0.00100016 2.073 0.00100016 4.607L 0.00100016 52.12L 0.351 52.12L 2.32697e-07 52.906L 2.32697e-07 54.654L 1.131 52.119L 1.892 52.119L 0.0709999 56.2C 0.135 56.558 0.241 56.904 0.391 57.23L 2.671 52.119L 3.432 52.119L 0.823 57.966C 0.976 58.178 1.149 58.377 1.337 58.563L 4.212 52.118L 4.974 52.118L 1.887 59.037C 2.079 59.178 2.284 59.304 2.497 59.419L 5.754 52.118L 6.516 52.118L 3.128 59.713C 3.349 59.797 3.581 59.863 3.816 59.919L 7.296 52.119L 8.057 52.119L 4.523 60.041C 4.705 60.059 4.89 60.07 5.078 60.07L 5.29 60.07L 8.837 52.119L 9.598 52.119L 6.051 60.07L 6.831 60.07L 10.378 52.119L 11.139 52.119L 7.592 60.07L 8.372 60.07L 11.919 52.119L 12.68 52.119L 9.133 60.07L 9.913 60.07L 13.46 52.119L 14.221 52.119L 10.674 60.07L 11.454 60.07L 15.001 52.119L 15.763 52.119L 12.216 60.07L 12.996 60.07L 16.543 52.119L 17.304 52.119L 13.757 60.07L 14.537 60.07L 18.084 52.119L 18.845 52.119L 15.298 60.07L 16.078 60.07L 19.625 52.119L 20.386 52.119L 16.839 60.07L 17.619 60.07L 21.166 52.119L 21.927 52.119L 18.38 60.07L 19.16 60.07L 22.707 52.119L 23.468 52.119L 19.921 60.07L 20.701 60.07L 24.248 52.119L 25.009 52.119L 21.462 60.07L 22.242 60.07L 25.789 52.119L 26.551 52.119L 23.004 60.07L 23.784 60.07L 27.331 52.119L 28.092 52.119L 24.545 60.07L 25.325 60.07L 28.872 52.119L 29.633 52.119L 26.086 60.07L 26.866 60.07L 30.413 52.119L 31.175 52.119L 27.628 60.07L 28.408 60.07L 31.955 52.119L 32.716 52.119L 29.169 60.07L 29.949 60.07L 33.496 52.119L 34.257 52.119L 30.71 60.07L 31.49 60.07L 35.037 52.119L 35.798 52.119L 32.251 60.07L 33.031 60.07L 36.578 52.119L 37.339 52.119L 33.792 60.07L 34.572 60.07L 38.119 52.119L 38.88 52.119L 35.333 60.07L 36.113 60.07L 39.66 52.119L 40.421 52.119L 36.874 60.07L 37.655 60.07L 41.202 52.119L 41.963 52.119L 41.424 53.328C 40.729 53.857 40.273 54.685 40.273 55.623C 40.273 55.702 40.29 55.777 40.296 55.855L 38.415 60.07L 39.196 60.07L 40.598 56.928C 40.722 57.172 40.875 57.397 41.061 57.595L 39.957 60.07L 40.738 60.07L 41.632 58.066C 41.827 58.189 42.04 58.284 42.263 58.358L 41.499 60.07L 42.28 60.07L 42.981 58.498C 43.044 58.502 43.105 58.517 43.169 58.517C 43.372 58.517 43.57 58.495 43.761 58.455L 43.041 60.069L 43.822 60.069L 44.719 58.058C 45.525 57.544 46.064 56.647 46.064 55.622C 46.064 55.46 46.042 55.304 46.016 55.15L 47.368 52.119L 48.128 52.119L 44.581 60.07L 45.362 60.07L 48.909 52.119L 49.67 52.119L 46.123 60.07L 46.904 60.07L 50.451 52.119L 51.212 52.119L 47.665 60.07L 48.446 60.07L 51.993 52.119L 52.753 52.119L 49.206 60.07L 49.987 60.07L 53.534 52.119L 54.295 52.119L 50.748 60.07L 51.529 60.07L 55.076 52.119L 55.837 52.119L 52.29 60.07L 53.071 60.07L 56.618 52.119L 57.378 52.119L 53.831 60.07L 54.612 60.07L 58.159 52.119L 58.92 52.119L 55.373 60.07L 56.154 60.07L 59.701 52.119L 60.462 52.119L 56.915 60.07L 57.696 60.07L 61.243 52.119L 62.004 52.119L 58.457 60.07L 59.238 60.07L 62.785 52.119L 63.546 52.119L 59.999 60.07L 60.78 60.07L 64.327 52.119L 65.087 52.119L 61.54 60.07L 62.321 60.07L 65.868 52.119L 66.629 52.119L 63.082 60.07L 63.863 60.07L 67.41 52.119L 68.171 52.119L 64.624 60.07L 65.405 60.07L 68.952 52.119L 69.712 52.119L 66.165 60.07L 66.946 60.07L 70.493 52.119L 71.254 52.119L 67.707 60.07L 68.488 60.07L 72.035 52.119L 72.796 52.119L 69.249 60.07L 70.03 60.07L 73.577 52.119L 74.337 52.119L 70.79 60.07L 71.571 60.07L 75.118 52.119L 75.879 52.119L 72.332 60.07L 73.113 60.07L 76.66 52.119L 77.421 52.119L 73.874 60.07L 74.655 60.07L 78.202 52.119L 78.962 52.119L 75.415 60.07L 76.196 60.07L 79.743 52.119L 80.504 52.119L 76.957 60.07L 77.738 60.07L 81.285 52.119L 82.046 52.119L 78.499 60.07L 79.28 60.07L 82.827 52.119L 83.588 52.119L 80.041 60.07L 80.822 60.07L 84.369 52.119L 85.129 52.119L 81.589 60.055C 81.872 60.039 82.149 60.003 82.418 59.946L 85.909 52.119L 86.348 52.119L 86.348 4.607C 86.345 2.073 84.272 2.74658e-07 81.737 2.74658e-07ZM 43.173 57.519C 42.128 57.519 41.278 56.669 41.278 55.624C 41.278 54.579 42.128 53.729 43.173 53.729C 44.218 53.729 45.068 54.579 45.068 55.624C 45.068 56.669 44.217 57.519 43.173 57.519ZM 44.603 53.123C 44.403 53.008 44.189 52.918 43.963 52.853L 44.29 52.121L 45.051 52.121L 44.603 53.123ZM 43.234 52.736C 43.213 52.736 43.193 52.73 43.172 52.73C 42.913 52.73 42.666 52.775 42.427 52.839L 42.747 52.121L 43.507 52.121L 43.234 52.736ZM 45.67 54.186C 45.536 53.955 45.381 53.74 45.191 53.555L 45.831 52.12L 46.592 52.12L 45.67 54.186ZM 83.216 48.991L 3.129 48.991L 3.129 4.607C 3.129 3.8 3.8 3.128 4.607 3.128L 81.737 3.128C 82.544 3.128 83.216 3.8 83.216 4.607L 83.216 48.991Z"/>
</defs>
</svg>
