<svg width="97" height="94" viewBox="0 0 97 94" version="1.1" xmlns="http://www.w3.org/2000/svg" xmlns:xlink="http://www.w3.org/1999/xlink">
<title>Vector</title>
<desc>Created using Figma</desc>
<g id="Canvas" transform="translate(-10636 -3790)">
<g id="Vector">
<use xlink:href="#path0_fill" transform="translate(10636 3790)" fill="#FFFFFF"/>
</g>
</g>
<defs>
<path id="path0_fill" d="M 28 42.1C 28 43.1 27.2 43.9 26.2 43.9L 21 43.9C 20 43.9 19.2 43.1 19.2 42.1L 19.2 36.9C 19.2 35.9 20 35.1 21 35.1L 26.2 35.1C 27.2 35.1 28 35.9 28 36.9L 28 42.1ZM 40 37C 40 36 39.2 35.2 38.2 35.2L 33 35.2C 32 35.2 31.2 36 31.2 37L 31.2 42.2C 31.2 43.2 32 44 33 44L 38.2 44C 39.2 44 40 43.2 40 42.2L 40 37ZM 52 37C 52 36 51.2 35.2 50.2 35.2L 45 35.2C 44 35.2 43.2 36 43.2 37L 43.2 42.2C 43.2 43.2 44 44 45 44L 50.2 44C 51.2 44 52 43.2 52 42.2L 52 37ZM 40 48.7C 40 47.7 39.2 46.9 38.2 46.9L 33 46.9C 32 46.9 31.2 47.7 31.2 48.7L 31.2 53.9C 31.2 54.9 32 55.7 33 55.7L 38.2 55.7C 39.2 55.7 40 54.9 40 53.9L 40 48.7ZM 52 48.7C 52 47.7 51.2 46.9 50.2 46.9L 45 46.9C 44 46.9 43.2 47.7 43.2 48.7L 43.2 53.9C 43.2 54.9 44 55.7 45 55.7L 50.2 55.7C 51.2 55.7 52 54.9 52 53.9L 52 48.7ZM 64.1 53.8L 64.1 48.6C 64.1 47.6 63.3 46.8 62.3 46.8L 57.1 46.8C 56.1 46.8 55.3 47.6 55.3 48.6L 55.3 53.8C 55.3 54.8 56.1 55.6 57.1 55.6L 62.3 55.6C 63.2 55.7 64.1 54.8 64.1 53.8ZM 26.2 46.8L 21 46.8C 20 46.8 19.2 47.6 19.2 48.6L 19.2 53.8C 19.2 54.8 20 55.6 21 55.6L 26.2 55.6C 27.2 55.6 28 54.8 28 53.8L 28 48.6C 28 47.7 27.2 46.8 26.2 46.8ZM 50.2 58.5L 45 58.5C 44 58.5 43.2 59.3 43.2 60.3L 43.2 65.5C 43.2 66.5 44 67.3 45 67.3L 50.2 67.3C 51.2 67.3 52 66.5 52 65.5L 52 60.3C 52 59.3 51.2 58.5 50.2 58.5ZM 38.2 58.5L 33 58.5C 32 58.5 31.2 59.3 31.2 60.3L 31.2 65.5C 31.2 66.5 32 67.3 33 67.3L 38.2 67.3C 39.2 67.3 40 66.5 40 65.5L 40 60.3C 40 59.3 39.2 58.5 38.2 58.5ZM 21.6 -9.53674e-08C 20 -9.53674e-08 18.7 1.3 18.7 2.9L 18.7 11.7C 18.7 13.3 20 14.6 21.6 14.6L 25.6 14.6C 27.2 14.6 28.5 13.3 28.5 11.7L 28.5 2.9C 28.5 1.3 27.2 -9.53674e-08 25.6 -9.53674e-08L 21.6 -9.53674e-08ZM 57.7 -9.53674e-08C 56.1 -9.53674e-08 54.8 1.3 54.8 2.9L 54.8 11.7C 54.8 13.3 56.1 14.6 57.7 14.6L 61.7 14.6C 63.3 14.6 64.6 13.3 64.6 11.7L 64.6 2.9C 64.6 1.3 63.3 -9.53674e-08 61.7 -9.53674e-08L 57.7 -9.53674e-08ZM 6.3 81.7L 55.1 81.7C 54.4 79.5 54 77.2 54 74.8C 54 74.7 54 74.6 54 74.5L 7.2 74.5L 7.2 26.9L 76.1 26.9L 76.1 51.6C 76.5 51.6 76.9 51.6 77.2 51.6C 79.3 51.6 81.4 51.9 83.3 52.4L 83.3 14.3C 83.3 10.8 80.5 8 77 8L 68.3 8L 68.3 11.8C 68.3 15.4 65.4 18.3 61.8 18.3L 57.8 18.3C 54.2 18.3 51.3 15.4 51.3 11.8L 51.3 7.9L 32.1 7.9L 32.1 11.7C 32.1 15.3 29.2 18.2 25.6 18.2L 21.6 18.2C 18 18.2 15.1 15.3 15.1 11.7L 15.1 7.9L 6.3 7.9C 2.8 7.9 -2.38419e-08 10.7 -2.38419e-08 14.2L -2.38419e-08 75.3C -2.38419e-08 78.9 2.8 81.7 6.3 81.7ZM 96.2 74.8C 96.2 85.3 87.7 93.8 77.2 93.8C 66.7 93.8 58.2 85.3 58.2 74.8C 58.2 64.3 66.7 55.8 77.2 55.8C 87.7 55.7 96.2 64.3 96.2 74.8ZM 86.9 70.6L 83.2 66.9L 74.7 75.4L 71.1 71.8L 67.4 75.5L 71 79.1L 74.7 82.8L 78.4 79.1L 86.9 70.6Z"/>
</defs>
</svg>
