<svg width="150" height="150" viewBox="0 0 150 150" version="1.1" xmlns="http://www.w3.org/2000/svg" xmlns:xlink="http://www.w3.org/1999/xlink">
<title>calender</title>
<desc>Created using Figma</desc>
<g id="Canvas" transform="translate(-18475 -4515)">
<g id="calender">
<g id="Vector">
<use xlink:href="#path0_fill" transform="translate(18475 4515)" fill="#0B2D40"/>
</g>
</g>
</g>
<defs>
<path id="path0_fill" d="M 43.659 67.3241C 43.659 68.9232 42.4116 70.2026 40.8524 70.2026L 32.7443 70.2026C 31.185 70.2026 29.9376 68.9232 29.9376 67.3241L 29.9376 59.0085C 29.9376 57.4094 31.185 56.1301 32.7443 56.1301L 40.8524 56.1301C 42.4116 56.1301 43.659 57.4094 43.659 59.0085L 43.659 67.3241ZM 62.3701 59.1684C 62.3701 57.5693 61.1227 56.29 59.5634 56.29L 51.4553 56.29C 49.8961 56.29 48.6487 57.5693 48.6487 59.1684L 48.6487 67.484C 48.6487 69.0832 49.8961 70.3625 51.4553 70.3625L 59.5634 70.3625C 61.1227 70.3625 62.3701 69.0832 62.3701 67.484L 62.3701 59.1684ZM 81.0811 59.1684C 81.0811 57.5693 79.8337 56.29 78.2744 56.29L 70.1663 56.29C 68.6071 56.29 67.3597 57.5693 67.3597 59.1684L 67.3597 67.484C 67.3597 69.0832 68.6071 70.3625 70.1663 70.3625L 78.2744 70.3625C 79.8337 70.3625 81.0811 69.0832 81.0811 67.484L 81.0811 59.1684ZM 62.3701 77.8785C 62.3701 76.2793 61.1227 75 59.5634 75L 51.4553 75C 49.8961 75 48.6487 76.2793 48.6487 77.8785L 48.6487 86.194C 48.6487 87.7932 49.8961 89.0725 51.4553 89.0725L 59.5634 89.0725C 61.1227 89.0725 62.3701 87.7932 62.3701 86.194L 62.3701 77.8785ZM 81.0811 77.8785C 81.0811 76.2793 79.8337 75 78.2744 75L 70.1663 75C 68.6071 75 67.3597 76.2793 67.3597 77.8785L 67.3597 86.194C 67.3597 87.7932 68.6071 89.0725 70.1663 89.0725L 78.2744 89.0725C 79.8337 89.0725 81.0811 87.7932 81.0811 86.194L 81.0811 77.8785ZM 99.948 86.0341L 99.948 77.7186C 99.948 76.1194 98.7006 74.8401 97.1414 74.8401L 89.0333 74.8401C 87.474 74.8401 86.2266 76.1194 86.2266 77.7186L 86.2266 86.0341C 86.2266 87.6333 87.474 88.9126 89.0333 88.9126L 97.1414 88.9126C 98.5447 89.0725 99.948 87.6333 99.948 86.0341ZM 40.8524 74.8401L 32.7443 74.8401C 31.185 74.8401 29.9376 76.1194 29.9376 77.7186L 29.9376 86.0341C 29.9376 87.6333 31.185 88.9126 32.7443 88.9126L 40.8524 88.9126C 42.4116 88.9126 43.659 87.6333 43.659 86.0341L 43.659 77.7186C 43.659 76.2793 42.4116 74.8401 40.8524 74.8401ZM 78.2744 93.5501L 70.1663 93.5501C 68.6071 93.5501 67.3597 94.8294 67.3597 96.4286L 67.3597 104.744C 67.3597 106.343 68.6071 107.623 70.1663 107.623L 78.2744 107.623C 79.8337 107.623 81.0811 106.343 81.0811 104.744L 81.0811 96.4286C 81.0811 94.8294 79.8337 93.5501 78.2744 93.5501ZM 59.5634 93.5501L 51.4553 93.5501C 49.8961 93.5501 48.6487 94.8294 48.6487 96.4286L 48.6487 104.744C 48.6487 106.343 49.8961 107.623 51.4553 107.623L 59.5634 107.623C 61.1227 107.623 62.3701 106.343 62.3701 104.744L 62.3701 96.4286C 62.3701 94.8294 61.1227 93.5501 59.5634 93.5501ZM 33.6798 -1.52507e-07C 31.185 -1.52507e-07 29.158 2.07889 29.158 4.63753L 29.158 18.71C 29.158 21.2687 31.185 23.3475 33.6798 23.3475L 39.9168 23.3475C 42.4116 23.3475 44.4387 21.2687 44.4387 18.71L 44.4387 4.63753C 44.4387 2.07889 42.4116 -1.52507e-07 39.9168 -1.52507e-07L 33.6798 -1.52507e-07ZM 89.9688 -1.52507e-07C 87.474 -1.52507e-07 85.447 2.07889 85.447 4.63753L 85.447 18.71C 85.447 21.2687 87.474 23.3475 89.9688 23.3475L 96.2058 23.3475C 98.7006 23.3475 100.728 21.2687 100.728 18.71L 100.728 4.63753C 100.728 2.07889 98.7006 -1.52507e-07 96.2058 -1.52507e-07L 89.9688 -1.52507e-07ZM 9.82329 130.65L 85.9148 130.65C 84.8233 127.132 84.1996 123.454 84.1996 119.616C 84.1996 119.456 84.1996 119.296 84.1996 119.136L 11.2266 119.136L 11.2266 43.0171L 118.659 43.0171L 118.659 82.516C 119.283 82.516 119.906 82.516 120.374 82.516C 123.649 82.516 126.923 82.9957 129.886 83.7953L 129.886 22.8678C 129.886 17.2708 125.52 12.7932 120.062 12.7932L 106.497 12.7932L 106.497 18.8699C 106.497 24.6269 101.975 29.2644 96.3618 29.2644L 90.1247 29.2644C 84.5114 29.2644 79.9896 24.6269 79.9896 18.8699L 79.9896 12.6333L 50.052 12.6333L 50.052 18.71C 50.052 24.4669 45.5301 29.1045 39.9168 29.1045L 33.6798 29.1045C 28.0665 29.1045 23.5447 24.4669 23.5447 18.71L 23.5447 12.6333L 9.82329 12.6333C 4.3659 12.6333 -3.71755e-08 17.1109 -3.71755e-08 22.7079L -3.71755e-08 120.416C -3.71755e-08 126.173 4.3659 130.65 9.82329 130.65ZM 150 119.616C 150 136.407 136.746 150 120.374 150C 104.002 150 90.7484 136.407 90.7484 119.616C 90.7484 102.825 104.002 89.2324 120.374 89.2324C 136.746 89.0725 150 102.825 150 119.616ZM 135.499 112.9L 129.73 106.983L 116.476 120.576L 110.863 114.819L 105.094 120.736L 110.707 126.493L 116.476 132.409L 122.245 126.493L 135.499 112.9Z"/>
</defs>
</svg>
