<svg width="150" height="150" viewBox="0 0 150 150" version="1.1" xmlns="http://www.w3.org/2000/svg" xmlns:xlink="http://www.w3.org/1999/xlink">
<title>ease-white</title>
<desc>Created using Figma</desc>
<g id="Canvas" transform="translate(-18400 -4013)">
<g id="ease-white">
<g id="Group">
<g id="Vector">
<use xlink:href="#path0_fill" transform="translate(18400 4013)" fill="#FFFFFF"/>
</g>
</g>
</g>
</g>
<defs>
<path id="path0_fill" fill-rule="evenodd" d="M 47.044 0C 72.9182 0 93.8266 17.673 93.8266 39.7644C 93.8266 61.6348 72.9182 79.3078 47.044 79.3078C 20.9084 79.3078 0 61.6348 0 39.7644C 0 17.673 20.9084 0 47.044 0ZM 70.8273 52.5773C 68.2138 61.8557 58.5436 68.704 46.7826 68.704C 35.0216 68.704 25.3515 61.8557 22.7379 52.5773L 70.8273 52.5773ZM 6.79524 90.5744L 89.6449 90.5744L 89.6449 96.3181L 24.3061 96.3181C 24.3061 103.166 17.7722 108.689 9.67015 108.689L 9.67015 131.885C 17.7722 131.885 24.3061 137.408 24.3061 144.256L 114.474 144.256C 114.474 137.408 121.008 131.885 129.11 131.885L 129.11 108.689C 123.882 108.689 119.178 106.259 116.565 102.504L 116.565 90.5744L 131.985 90.5744C 134.337 90.5744 136.428 92.3417 136.428 94.3299L 136.428 146.244C 136.428 148.233 134.337 150 131.985 150L 6.79524 150C 4.44304 150 2.3522 148.233 2.3522 146.244L 2.3522 94.3299C 2.3522 92.3417 4.44304 90.5744 6.79524 90.5744ZM 69.5206 100.736C 80.4975 100.736 89.1222 109.352 89.1222 120.177C 89.1222 130.781 80.4975 139.617 69.5206 139.617C 58.805 139.617 49.9189 130.781 49.9189 120.177C 49.9189 109.352 58.805 100.736 69.5206 100.736ZM 96.9629 103.829L 96.9629 82.8424C 96.9629 72.6804 100.36 59.6465 114.474 58.1001C 130.416 56.5538 139.041 58.9838 143.746 63.4021C 150.018 68.9249 155.245 83.947 140.348 84.1679L 109.508 84.6097L 109.508 103.829C 109.508 110.898 96.9629 110.898 96.9629 103.829Z"/>
</defs>
</svg>
