<svg width="50" height="84" viewBox="0 0 50 84" version="1.1" xmlns="http://www.w3.org/2000/svg" xmlns:xlink="http://www.w3.org/1999/xlink">
<title>Group</title>
<desc>Created using Figma</desc>
<g id="Canvas" transform="translate(-18256 -4019)">
<g id="Group">
<g id="Vector">
<use xlink:href="#path0_fill" transform="translate(18265 4051.71)" fill="#0B2D40"/>
</g>
<g id="Vector">
<use xlink:href="#path1_fill" transform="translate(18265 4060.67)" fill="#0B2D40"/>
</g>
<g id="Vector">
<use xlink:href="#path2_fill" transform="translate(18265.2 4069.62)" fill="#0B2D40"/>
</g>
<g id="Vector">
<use xlink:href="#path3_fill" transform="translate(18265.2 4078.38)" fill="#0B2D40"/>
</g>
<g id="Vector">
<use xlink:href="#path4_fill" transform="translate(18283.1 4088.17)" fill="#0B2D40"/>
</g>
<g id="Vector">
<use xlink:href="#path5_fill" transform="translate(18256 4019)" fill="#0B2D40"/>
</g>
<g id="Vector">
<use xlink:href="#path6_fill" transform="translate(18281 4025.88)" fill="#0B2D40"/>
</g>
</g>
</g>
<defs>
<path id="path0_fill" d="M 1.66667 3.33333L 10.625 3.33333C 11.4583 3.33333 12.2917 2.5 12.2917 1.66667C 12.2917 0.833333 11.4583 1.58946e-06 10.625 1.58946e-06L 1.66667 1.58946e-06C 0.833334 1.58946e-06 -1.58946e-06 0.833333 -1.58946e-06 1.66667C -1.58946e-06 2.5 0.625001 3.33333 1.66667 3.33333Z"/>
<path id="path1_fill" d="M 1.66667 3.33333L 20.8333 3.33333C 21.6667 3.33333 22.5 2.5 22.5 1.66667C 22.5 0.833332 21.6667 0 20.8333 0L 1.66667 0C 0.833334 0 -1.58946e-06 0.833332 -1.58946e-06 1.66667C -1.58946e-06 2.5 0.625001 3.33333 1.66667 3.33333Z"/>
<path id="path2_fill" d="M 28.9583 -1.58946e-06L 1.66667 -1.58946e-06C 0.833335 -1.58946e-06 -7.94729e-07 0.833334 -7.94729e-07 1.66667C -7.94729e-07 2.5 0.833335 3.33333 1.66667 3.33333L 28.9583 3.33333C 29.7917 3.33333 30.625 2.5 30.625 1.66667C 30.625 0.625001 29.7917 -1.58946e-06 28.9583 -1.58946e-06Z"/>
<path id="path3_fill" d="M 28.9583 0L 1.66667 0C 0.833335 0 -7.94729e-07 0.833332 -7.94729e-07 1.66667C -7.94729e-07 2.5 0.833335 3.33333 1.66667 3.33333L 28.9583 3.33333C 29.7917 3.33333 30.625 2.5 30.625 1.66667C 30.625 0.833332 29.7917 0 28.9583 0Z"/>
<path id="path4_fill" d="M 10.625 1.58946e-06L 1.66667 1.58946e-06C 0.833332 1.58946e-06 0 0.833333 0 1.66667C 0 2.5 0.833332 3.33333 1.66667 3.33333L 10.625 3.33333C 11.4583 3.33333 12.2917 2.5 12.2917 1.66667C 12.2917 0.833333 11.6667 1.58946e-06 10.625 1.58946e-06Z"/>
<path id="path5_fill" d="M 45.625 75C 45.625 77.0833 43.9583 78.9583 41.6667 78.9583L 8.33333 78.9583C 6.25 78.9583 4.375 77.2917 4.375 75L 4.375 8.33333C 4.375 6.25 6.04167 4.375 8.33333 4.375L 24.375 4.375L 24.375 0L 8.33333 0C 3.75 0 0 3.75 0 8.33333L 0 75C 0 79.5833 3.75 83.3333 8.33333 83.3333L 41.6667 83.3333C 46.25 83.3333 50 79.5833 50 75L 50 37.7083L 45.625 37.7083L 45.625 75Z"/>
<path id="path6_fill" d="M 12.5 25C 19.375 25 25 19.375 25 12.5C 25 5.625 19.375 3.97364e-07 12.5 3.97364e-07C 5.625 3.97364e-07 0 5.625 0 12.5C 0 19.375 5.625 25 12.5 25ZM 11.0417 4.16667C 11.0417 3.54167 11.4583 3.125 12.0833 3.125C 12.7083 3.125 13.125 3.54167 13.125 4.16667L 13.125 12.2917L 18.75 9.79167C 19.375 9.58333 20 9.79167 20.2083 10.4167C 20.4167 11.0417 20.2083 11.6667 19.5833 11.875L 12.2917 15C 12.0833 15 12.0833 15 11.875 15C 11.6667 15 11.4583 15 11.25 14.7917C 11.0417 14.5833 10.8333 14.1667 10.8333 13.9583L 10.8333 4.16667L 11.0417 4.16667Z"/>
</defs>
</svg>
