<svg width="200" height="130" viewBox="0 0 200 130" version="1.1" xmlns="http://www.w3.org/2000/svg" xmlns:xlink="http://www.w3.org/1999/xlink">
<title>mobile</title>
<desc>Created using Figma</desc>
<g id="Canvas" transform="translate(-18087 -4901)">
<g id="mobile">
<g id="Vector">
<use xlink:href="#path0_fill" transform="translate(18087 4901)" fill="#0B2D40"/>
</g>
</g>
</g>
<defs>
<path id="path0_fill" d="M 149.448 123.271C 149.448 121.118 150.773 119.503 152.539 119.503C 154.305 119.503 155.629 121.118 155.629 123.271C 155.629 125.424 154.305 127.039 152.539 127.039C 150.773 127.039 149.448 125.424 149.448 123.271ZM 185.43 25.5694L 185.43 49.2547L 180.795 49.2547L 180.795 28.2609L 121.854 28.2609L 121.854 117.081L 164.018 117.081L 164.018 125.963C 164.018 127.578 164.459 128.654 165.342 129.731L 119.868 129.731C 118.322 129.731 116.998 128.116 116.998 125.963L 116.998 25.5694C 116.998 23.4161 118.322 21.8012 119.868 21.8012L 182.561 21.8012C 184.327 21.8012 185.43 23.4161 185.43 25.5694ZM 149.007 123.271C 149.007 125.694 150.552 127.578 152.539 127.578C 154.525 127.578 156.071 125.694 156.071 123.271C 156.071 120.849 154.525 118.965 152.539 118.965C 150.552 118.965 149.007 120.849 149.007 123.271ZM 151.876 25.5694C 151.876 25.0311 151.656 24.7619 151.214 24.7619C 150.773 24.7619 150.552 25.0311 150.552 25.5694C 150.552 26.1077 150.773 26.3768 151.214 26.3768C 151.656 26.3768 151.876 25.8385 151.876 25.5694ZM 98.8962 45.2174L 91.17 61.6356L 86.5342 51.9462L 76.6004 72.6708L 85.872 72.6708L 96.468 72.6708L 112.141 72.6708L 98.8962 45.2174ZM 154.084 64.5963L 149.227 74.5549L 146.358 68.6335L 140.397 81.5528L 145.916 81.5528L 152.318 81.5528L 161.81 81.5528L 154.084 64.5963ZM 184.989 81.0145L 181.678 88.0124L 179.691 83.9752L 175.497 92.8571L 179.47 92.8571L 183.885 92.8571L 190.508 92.8571L 184.989 81.0145ZM 182.34 119.234C 180.574 119.234 179.249 120.849 179.249 123.002C 179.249 125.155 180.574 126.77 182.34 126.77C 184.106 126.77 185.43 125.155 185.43 123.002C 185.43 120.849 183.885 119.234 182.34 119.234ZM 200 53.5611L 200 126.501C 200 128.385 198.455 130 196.689 130L 167.77 130C 166.004 130 164.459 128.385 164.459 126.501L 164.459 53.5611C 164.459 51.677 166.004 50.0621 167.77 50.0621L 196.689 50.0621C 198.455 50.0621 200 51.677 200 53.5611ZM 180.574 55.176C 180.574 55.4451 180.795 55.7143 181.015 55.7143L 185.21 55.7143C 185.43 55.7143 185.651 55.4451 185.651 55.176C 185.651 54.9068 185.43 54.6377 185.21 54.6377L 181.015 54.6377C 180.574 54.6377 180.574 54.9068 180.574 55.176ZM 177.925 55.176C 177.925 55.4451 178.146 55.7143 178.366 55.7143C 178.587 55.7143 178.808 55.4451 178.808 55.176C 178.808 54.9068 178.587 54.6377 178.366 54.6377C 178.146 54.6377 177.925 54.9068 177.925 55.176ZM 185.872 123.002C 185.872 120.58 184.327 118.696 182.34 118.696C 180.353 118.696 178.808 120.58 178.808 123.002C 178.808 125.424 180.353 127.308 182.34 127.308C 184.327 127.308 185.872 125.424 185.872 123.002ZM 198.234 60.0207L 166.446 60.0207L 166.446 116.542L 198.234 116.542L 198.234 60.0207ZM 116.336 127.308L 116.336 126.77L 116.336 119.503L 107.285 119.503L 107.285 120.311C 107.285 121.387 106.402 122.464 105.077 122.464L 82.34 122.464C 81.0154 122.464 80.1324 121.656 80.1324 120.311L 80.1324 119.503L 2.10524e-07 119.503L 2.10524e-07 124.079C 2.10524e-07 127.308 2.86976 130 6.18101 130L 116.115 130L 117.439 130C 117.439 130 116.336 128.923 116.336 127.308ZM 172.406 6.99793L 172.406 22.8778L 165.784 22.8778L 165.784 7.26708L 21.4128 7.26708L 21.4128 110.621L 116.336 110.621L 116.336 118.157L 14.7903 118.157L 14.7903 7.26708C 14.7903 3.22981 17.66 -2.05346e-06 20.9713 -2.05346e-06L 166.225 -2.05346e-06C 169.757 -2.05346e-06 172.406 3.22981 172.406 6.99793ZM 94.2605 3.49897C 94.2605 2.96066 94.0397 2.69151 93.5982 2.69151C 93.1567 2.69151 92.936 2.96066 92.936 3.49897C 92.936 4.03727 93.1567 4.30642 93.5982 4.30642C 94.0397 4.30642 94.2605 4.03727 94.2605 3.49897Z"/>
</defs>
</svg>
