<svg width="150" height="130" viewBox="0 0 150 130" version="1.1" xmlns="http://www.w3.org/2000/svg" xmlns:xlink="http://www.w3.org/1999/xlink">
<title>mobile-white</title>
<desc>Created using Figma</desc>
<g id="Canvas" transform="translate(-17992 -4025)">
<g id="mobile-white">
<g id="Vector">
<use xlink:href="#path0_fill" transform="translate(17992 4025)" fill="#FFFFFF"/>
</g>
</g>
</g>
<defs>
<path id="path0_fill" d="M 112.086 123.271C 112.086 121.118 113.079 119.503 114.404 119.503C 115.728 119.503 116.722 121.118 116.722 123.271C 116.722 125.424 115.728 127.039 114.404 127.039C 113.079 127.039 112.086 125.424 112.086 123.271ZM 139.073 25.5694L 139.073 49.2547L 135.596 49.2547L 135.596 28.2609L 91.3907 28.2609L 91.3907 117.081L 123.013 117.081L 123.013 125.963C 123.013 127.578 123.344 128.654 124.007 129.731L 89.9007 129.731C 88.7417 129.731 87.7483 128.116 87.7483 125.963L 87.7483 25.5694C 87.7483 23.4161 88.7417 21.8012 89.9007 21.8012L 136.921 21.8012C 138.245 21.8012 139.073 23.4161 139.073 25.5694ZM 111.755 123.271C 111.755 125.694 112.914 127.578 114.404 127.578C 115.894 127.578 117.053 125.694 117.053 123.271C 117.053 120.849 115.894 118.965 114.404 118.965C 112.914 118.965 111.755 120.849 111.755 123.271ZM 113.907 25.5694C 113.907 25.0311 113.742 24.7619 113.411 24.7619C 113.079 24.7619 112.914 25.0311 112.914 25.5694C 112.914 26.1077 113.079 26.3768 113.411 26.3768C 113.742 26.3768 113.907 25.8385 113.907 25.5694ZM 74.1722 45.2174L 68.3775 61.6356L 64.9007 51.9462L 57.4503 72.6708L 64.404 72.6708L 72.351 72.6708L 84.106 72.6708L 74.1722 45.2174ZM 115.563 64.5963L 111.921 74.5549L 109.768 68.6335L 105.298 81.5528L 109.437 81.5528L 114.238 81.5528L 121.358 81.5528L 115.563 64.5963ZM 138.742 81.0145L 136.258 88.0124L 134.768 83.9752L 131.623 92.8571L 134.603 92.8571L 137.914 92.8571L 142.881 92.8571L 138.742 81.0145ZM 136.755 119.234C 135.43 119.234 134.437 120.849 134.437 123.002C 134.437 125.155 135.43 126.77 136.755 126.77C 138.079 126.77 139.073 125.155 139.073 123.002C 139.073 120.849 137.914 119.234 136.755 119.234ZM 150 53.5611L 150 126.501C 150 128.385 148.841 130 147.517 130L 125.828 130C 124.503 130 123.344 128.385 123.344 126.501L 123.344 53.5611C 123.344 51.677 124.503 50.0621 125.828 50.0621L 147.517 50.0621C 148.841 50.0621 150 51.677 150 53.5611ZM 135.43 55.176C 135.43 55.4451 135.596 55.7143 135.762 55.7143L 138.907 55.7143C 139.073 55.7143 139.238 55.4451 139.238 55.176C 139.238 54.9068 139.073 54.6377 138.907 54.6377L 135.762 54.6377C 135.43 54.6377 135.43 54.9068 135.43 55.176ZM 133.444 55.176C 133.444 55.4451 133.609 55.7143 133.775 55.7143C 133.94 55.7143 134.106 55.4451 134.106 55.176C 134.106 54.9068 133.94 54.6377 133.775 54.6377C 133.609 54.6377 133.444 54.9068 133.444 55.176ZM 139.404 123.002C 139.404 120.58 138.245 118.696 136.755 118.696C 135.265 118.696 134.106 120.58 134.106 123.002C 134.106 125.424 135.265 127.308 136.755 127.308C 138.245 127.308 139.404 125.424 139.404 123.002ZM 148.675 60.0207L 124.834 60.0207L 124.834 116.542L 148.675 116.542L 148.675 60.0207ZM 87.2517 127.308L 87.2517 126.77L 87.2517 119.503L 80.4636 119.503L 80.4636 120.311C 80.4636 121.387 79.8013 122.464 78.8079 122.464L 61.755 122.464C 60.7616 122.464 60.0993 121.656 60.0993 120.311L 60.0993 119.503L 1.57893e-07 119.503L 1.57893e-07 124.079C 1.57893e-07 127.308 2.15232 130 4.63576 130L 87.0861 130L 88.0795 130C 88.0795 130 87.2517 128.923 87.2517 127.308ZM 129.305 6.99793L 129.305 22.8778L 124.338 22.8778L 124.338 7.26708L 16.0596 7.26708L 16.0596 110.621L 87.2517 110.621L 87.2517 118.157L 11.0927 118.157L 11.0927 7.26708C 11.0927 3.22981 13.245 -2.05346e-06 15.7285 -2.05346e-06L 124.669 -2.05346e-06C 127.318 -2.05346e-06 129.305 3.22981 129.305 6.99793ZM 70.6954 3.49897C 70.6954 2.96066 70.5298 2.69151 70.1987 2.69151C 69.8675 2.69151 69.702 2.96066 69.702 3.49897C 69.702 4.03727 69.8675 4.30642 70.1987 4.30642C 70.5298 4.30642 70.6954 4.03727 70.6954 3.49897Z"/>
</defs>
</svg>
