<svg width="100" height="100" viewBox="0 0 100 100" version="1.1" xmlns="http://www.w3.org/2000/svg" xmlns:xlink="http://www.w3.org/1999/xlink">
<title>noun_1037766_cc</title>
<desc>Created using Figma</desc>
<g id="Canvas" transform="translate(-11916 -1146)">
<g id="noun_1037766_cc">
<g id="Vector">
<use xlink:href="#path0_fill" transform="translate(11956 1184.92)" fill="#219653"/>
</g>
<g id="Vector">
<use xlink:href="#path1_fill" transform="translate(11928.2 1184.92)" fill="#219653"/>
</g>
<g id="Vector">
<use xlink:href="#path2_fill" transform="translate(11983.8 1184.92)" fill="#219653"/>
</g>
<g id="Vector">
<use xlink:href="#path3_fill" transform="translate(11916 1146)" fill="#219653"/>
</g>
</g>
</g>
<defs>
<path id="path0_fill" d="M 0.373017 16.657C 0.887461 17.5476 1.82079 18.0451 2.78079 18.0451C 3.25191 18.0451 3.72968 17.9263 4.16746 17.6731L 7.21746 15.913L 7.21746 19.4332C 7.21746 20.9668 8.4608 22.2094 9.99524 22.2094C 11.5297 22.2094 12.773 20.9668 12.773 19.4332L 12.773 15.913L 15.823 17.6731C 16.2608 17.9263 16.7386 18.0451 17.2097 18.0451C 18.1697 18.0451 19.1041 17.5476 19.6175 16.657C 20.3841 15.33 19.9297 13.631 18.6008 12.8648L 15.5508 11.1047L 18.6008 9.3446C 19.9297 8.57838 20.3841 6.87936 19.6175 5.55235C 18.8508 4.22534 17.1519 3.76782 15.823 4.53627L 12.773 6.29636L 12.773 2.77617C 12.773 1.24262 11.5297 0 9.99524 0C 8.4608 0 7.21746 1.24262 7.21746 2.77617L 7.21746 6.29636L 4.16746 4.53627C 2.83857 3.76782 1.13857 4.22534 0.373017 5.55235C -0.39365 6.87936 0.0607954 8.57838 1.38968 9.3446L 4.43968 11.1047L 1.38968 12.8648C 0.0607954 13.631 -0.394761 15.33 0.373017 16.657Z"/>
<path id="path1_fill" d="M 0.373017 16.657C 0.887461 17.5476 1.82079 18.0451 2.78079 18.0451C 3.25191 18.0451 3.72968 17.9263 4.16746 17.6731L 7.21746 15.913L 7.21746 19.4332C 7.21746 20.9668 8.4608 22.2094 9.99524 22.2094C 11.5297 22.2094 12.773 20.9668 12.773 19.4332L 12.773 15.913L 15.823 17.6731C 16.2608 17.9263 16.7386 18.0451 17.2097 18.0451C 18.1697 18.0451 19.1041 17.5476 19.6175 16.657C 20.3841 15.33 19.9297 13.631 18.6008 12.8648L 15.5508 11.1047L 18.6008 9.3446C 19.9297 8.57838 20.3841 6.87936 19.6175 5.55235C 18.8508 4.22534 17.1508 3.76782 15.823 4.53627L 12.773 6.29636L 12.773 2.77617C 12.773 1.24262 11.5297 0 9.99524 0C 8.4608 0 7.21746 1.24262 7.21746 2.77617L 7.21746 6.29636L 4.16746 4.53627C 2.83746 3.76782 1.13857 4.22534 0.373017 5.55235C -0.39365 6.87936 0.0607933 8.57838 1.38968 9.3446L 4.43968 11.1047L 1.38968 12.8648C 0.0607933 13.631 -0.394761 15.33 0.373017 16.657Z"/>
<path id="path2_fill" d="M 0.373012 16.657C 0.887457 17.5476 1.8208 18.0451 2.7808 18.0451C 3.25191 18.0451 3.72968 17.9263 4.16746 17.6731L 7.21746 15.913L 7.21746 19.4332C 7.21746 20.9668 8.4608 22.2094 9.99524 22.2094C 11.5297 22.2094 12.773 20.9668 12.773 19.4332L 12.773 15.913L 15.823 17.6731C 16.2608 17.9263 16.7386 18.0451 17.2097 18.0451C 18.1697 18.0451 19.1041 17.5476 19.6175 16.657C 20.3841 15.33 19.9297 13.631 18.6008 12.8648L 15.5508 11.1047L 18.6008 9.3446C 19.9297 8.57838 20.3841 6.87936 19.6175 5.55235C 18.8508 4.22534 17.1508 3.76782 15.823 4.53627L 12.773 6.29636L 12.773 2.77617C 12.773 1.24262 11.5297 0 9.99524 0C 8.4608 0 7.21746 1.24262 7.21746 2.77617L 7.21746 6.29636L 4.16746 4.53627C 2.83746 3.76782 1.13857 4.22534 0.373012 5.55235C -0.393654 6.87936 0.0607912 8.57838 1.38968 9.3446L 4.43968 11.1047L 1.38968 12.8648C 0.0607912 13.631 -0.394765 15.33 0.373012 16.657Z"/>
<path id="path3_fill" d="M 50 0.0577444C 38.7689 0.0577444 28.1111 3.74561 19.3867 10.5284L 19.3867 2.77617C 19.3867 1.24262 18.1433 -5.08333e-08 16.6089 -5.08333e-08C 15.0744 -5.08333e-08 13.8311 1.24262 13.8311 2.77617L 13.8311 16.657C 13.8311 16.7203 13.8444 16.7814 13.8489 16.8447C 13.8556 16.9358 13.86 17.0257 13.8744 17.1146C 13.8789 17.1434 13.88 17.1723 13.8856 17.2001C 13.8978 17.2645 13.9222 17.3233 13.94 17.3855C 13.9622 17.4666 13.9833 17.5487 14.0122 17.6276C 14.0233 17.6576 14.0311 17.6887 14.0433 17.7187C 14.0689 17.7797 14.1044 17.8353 14.1344 17.8941C 14.1711 17.9685 14.2078 18.0418 14.2511 18.1118C 14.2678 18.1395 14.28 18.1684 14.2989 18.1962C 14.3333 18.2483 14.3767 18.2917 14.4144 18.3416C 14.4689 18.4127 14.5233 18.4827 14.5844 18.5482C 14.6433 18.6115 14.7078 18.6692 14.7733 18.727C 14.8422 18.788 14.91 18.8469 14.9856 18.9013C 15.0144 18.9224 15.04 18.9468 15.07 18.9668C 15.1189 19.0001 15.1733 19.0212 15.2233 19.0512C 15.2967 19.0934 15.3689 19.1356 15.4467 19.1711C 15.4811 19.1867 15.5122 19.2067 15.5478 19.2211C 15.6111 19.2478 15.6778 19.2611 15.7422 19.2833C 15.7933 19.3 15.8389 19.3255 15.8911 19.3399L 29.3067 22.9323C 29.5478 22.9967 29.7889 23.0278 30.0267 23.0278C 31.2533 23.0278 32.3756 22.2094 32.7089 20.969C 33.1056 19.4876 32.2267 17.9652 30.7444 17.5676L 22.2922 15.3045C 30.1367 9.02812 39.8033 5.61009 50 5.61009C 74.5067 5.61009 94.4445 25.5364 94.4445 50.0289C 94.4445 74.5214 74.5067 94.4476 50 94.4476C 25.4933 94.4476 5.55556 74.5214 5.55556 50.0289C 5.55556 48.4953 4.31222 47.2527 2.77778 47.2527C 1.24333 47.2527 0 48.4953 0 50.0289C 0 77.5829 22.43 100 50 100C 77.57 100 100 77.5829 100 50.0289C 100 22.4748 77.57 0.0577444 50 0.0577444Z"/>
</defs>
</svg>
