<svg width="57" height="90" viewBox="0 0 57 90" version="1.1" xmlns="http://www.w3.org/2000/svg" xmlns:xlink="http://www.w3.org/1999/xlink">
<title>noun_164645_cc</title>
<desc>Created using Figma</desc>
<g id="Canvas" transform="translate(-17885 -4382)">
<g id="noun_164645_cc">
<g id="Group">
<g id="Group">
<g id="Vector">
<use xlink:href="#path0_fill" transform="translate(17894.1 4382)" fill="#0B2D40"/>
</g>
<g id="Vector">
<use xlink:href="#path1_fill" transform="translate(17885 4405.3)" fill="#0B2D40"/>
</g>
</g>
<g id="Vector">
<use xlink:href="#path2_fill" transform="translate(17905.9 4415.4)" fill="#0B2D40"/>
</g>
</g>
</g>
</g>
<defs>
<path id="path0_fill" d="M 9.6 19.2C 14.9019 19.2 19.2 14.9019 19.2 9.6C 19.2 4.29807 14.9019 0 9.6 0C 4.29807 0 0 4.29807 0 9.6C 0 14.9019 4.29807 19.2 9.6 19.2Z"/>
<path id="path1_fill" d="M 32.1 -7.62939e-07L 24 -7.62939e-07L 18.6 8L 13.2 -7.62939e-07L 5.1 -7.62939e-07C 2.3 -7.62939e-07 3.8147e-07 2.3 3.8147e-07 5.1L 3.8147e-07 28.5C 3.8147e-07 31.3 2.3 33.6 5.1 33.6L 7.4 33.6L 7.4 61.6C 7.4 64.4 9.7 66.7 12.5 66.7L 13.5 66.7C 16.3 66.7 18.6 64.4 18.6 61.6C 18.6 64.4 20.9 66.7 23.7 66.7L 24.7 66.7C 26.7 66.7 28.5 65.5 29.3 63.8C 28 63.3 26.7 62.6 25.5 61.7C 22.9 59.8 20.6 57.2 18.7 54L 17.5 52L 28.9 44.1C 28.8 44.1 28.8 44 28.7 44C 26.8 43.2 25.2 42 23.8 40.6C 22.4 39.2 21.2 37.4 20.4 35.4C 19.5 33.3 19.1 30.9 19.2 28.1L 19.2 28C 19.3 25.7 19.8 23.7 20.7 21.8C 21.6 20 22.7 18.4 24 17C 25.3 15.7 26.9 14.5 28.7 13.6C 29.8 13 31 12.6 32.2 12.2L 32.2 7.7L 37.2 7.7L 37.2 5C 37.2 2.3 34.9 -7.62939e-07 32.1 -7.62939e-07Z"/>
<path id="path2_fill" d="M 13.8 52.2C 11 52.1 8.4 51.2 6 49.6C 3.7 47.9 1.6 45.6 0 42.7L 8.8 36.7C 9.7 38 10.6 38.8 11.3 39.2C 12.1 39.6 12.9 39.9 13.8 40L 13.8 33.3C 12.1 32.9 10.5 32.3 8.9 31.6C 7.3 30.9 5.9 29.9 4.7 28.7C 3.5 27.5 2.5 26 1.8 24.3C 1.1 22.6 0.699999 20.5 0.799999 18C 0.899999 16.1 1.3 14.3 2 12.8C 2.7 11.3 3.7 9.9 4.9 8.7C 6.1 7.5 7.4 6.6 8.9 5.8C 10.4 5 12 4.4 13.8 4.1L 13.8 1.52588e-06L 22.7 1.52588e-06L 22.7 4C 25.1 4.3 27.2 5.1 29.1 6.3C 31 7.5 32.8 9.5 34.6 12.2L 26.3 17.6C 25.9 17 25.4 16.4 24.8 16C 24.2 15.6 23.4 15.3 22.7 15.1L 22.7 22.8C 24.5 23.3 26.3 23.8 27.9 24.6C 29.5 25.3 30.9 26.3 32.2 27.5C 33.4 28.7 34.4 30.2 35 32C 35.7 33.8 35.9 36 35.8 38.6C 35.7 40.5 35.2 42.2 34.5 43.7C 33.7 45.2 32.8 46.5 31.6 47.6C 30.4 48.7 29.1 49.7 27.5 50.5C 26 51.3 24.4 51.9 22.8 52.3L 22.8 56.6L 13.9 56.6L 13.9 52.2L 13.8 52.2ZM 11.7 18.2C 11.7 19.2 11.8 20 12.3 20.7C 12.7 21.4 13.4 21.9 14.3 22.2L 14.3 14.4C 13.5 14.9 12.8 15.4 12.4 16.1C 11.9 16.8 11.7 17.5 11.7 18.2ZM 24.9 37.1C 24.9 36.1 24.8 35.3 24.3 34.6C 23.9 33.9 23.2 33.4 22.3 33.1L 22.3 40.9C 23.1 40.4 23.8 39.9 24.2 39.2C 24.7 38.6 24.9 37.9 24.9 37.1Z"/>
</defs>
</svg>
