<svg width="113" height="60" viewBox="0 0 113 60" version="1.1" xmlns="http://www.w3.org/2000/svg" xmlns:xlink="http://www.w3.org/1999/xlink">
<title>noun_111801_cc</title>
<desc>Created using Figma</desc>
<g id="Canvas" transform="translate(-18240 -4405)">
<g id="noun_111801_cc">
<g id="Vector">
<use xlink:href="#path0_fill" transform="translate(18240 4405)" fill="#0B2D40"/>
</g>
</g>
</g>
<defs>
<path id="path0_fill" d="M 84.4382 56.8944C 84.4382 55.9006 85.1865 55.1553 86.1843 55.1553C 87.1821 55.1553 87.9305 55.9006 87.9305 56.8944C 87.9305 57.8882 87.1821 58.6335 86.1843 58.6335C 85.1865 58.6335 84.4382 57.8882 84.4382 56.8944ZM 104.768 11.8012L 104.768 22.7329L 102.149 22.7329L 102.149 13.0435L 68.8477 13.0435L 68.8477 54.0373L 92.67 54.0373L 92.67 58.1366C 92.67 58.882 92.9194 59.3789 93.4183 59.8758L 67.7252 59.8758C 66.8521 59.8758 66.1038 59.1304 66.1038 58.1366L 66.1038 11.8012C 66.1038 10.8075 66.8521 10.0621 67.7252 10.0621L 103.147 10.0621C 104.145 10.0621 104.768 10.8075 104.768 11.8012ZM 84.1887 56.8944C 84.1887 58.0124 85.0618 58.882 86.1843 58.882C 87.3068 58.882 88.1799 58.0124 88.1799 56.8944C 88.1799 55.7764 87.3068 54.9068 86.1843 54.9068C 85.0618 54.9068 84.1887 55.7764 84.1887 56.8944ZM 85.8102 11.8012C 85.8102 11.5528 85.6854 11.4286 85.436 11.4286C 85.1865 11.4286 85.0618 11.5528 85.0618 11.8012C 85.0618 12.0497 85.1865 12.1739 85.436 12.1739C 85.6854 12.1739 85.8102 11.9255 85.8102 11.8012ZM 55.8764 20.8696L 51.511 28.4472L 48.8918 23.9752L 43.2792 33.5404L 48.5177 33.5404L 54.5044 33.5404L 63.3598 33.5404L 55.8764 20.8696ZM 87.0574 29.8137L 84.3135 34.4099L 82.6921 31.677L 79.3245 37.6398L 82.4426 37.6398L 86.0596 37.6398L 91.4227 37.6398L 87.0574 29.8137ZM 104.519 37.3913L 102.648 40.6211L 101.525 38.7578L 99.1556 42.8571L 101.401 42.8571L 103.895 42.8571L 107.637 42.8571L 104.519 37.3913ZM 103.022 55.0311C 102.024 55.0311 101.276 55.7764 101.276 56.7702C 101.276 57.764 102.024 58.5093 103.022 58.5093C 104.02 58.5093 104.768 57.764 104.768 56.7702C 104.768 55.7764 103.895 55.0311 103.022 55.0311ZM 113 24.7205L 113 58.3851C 113 59.2547 112.127 60 111.129 60L 94.7903 60C 93.7925 60 92.9194 59.2547 92.9194 58.3851L 92.9194 24.7205C 92.9194 23.8509 93.7925 23.1056 94.7903 23.1056L 111.129 23.1056C 112.127 23.1056 113 23.8509 113 24.7205ZM 102.024 25.4658C 102.024 25.5901 102.149 25.7143 102.274 25.7143L 104.643 25.7143C 104.768 25.7143 104.893 25.5901 104.893 25.4658C 104.893 25.3416 104.768 25.2174 104.643 25.2174L 102.274 25.2174C 102.024 25.2174 102.024 25.3416 102.024 25.4658ZM 100.528 25.4658C 100.528 25.5901 100.652 25.7143 100.777 25.7143C 100.902 25.7143 101.026 25.5901 101.026 25.4658C 101.026 25.3416 100.902 25.2174 100.777 25.2174C 100.652 25.2174 100.528 25.3416 100.528 25.4658ZM 105.018 56.7702C 105.018 55.6522 104.145 54.7826 103.022 54.7826C 101.9 54.7826 101.026 55.6522 101.026 56.7702C 101.026 57.8882 101.9 58.7578 103.022 58.7578C 104.145 58.7578 105.018 57.8882 105.018 56.7702ZM 112.002 27.7019L 94.0419 27.7019L 94.0419 53.7888L 112.002 53.7888L 112.002 27.7019ZM 65.7296 58.7578L 65.7296 58.5093L 65.7296 55.1553L 60.6159 55.1553L 60.6159 55.528C 60.6159 56.0248 60.117 56.5217 59.3687 56.5217L 46.5221 56.5217C 45.7737 56.5217 45.2748 56.1491 45.2748 55.528L 45.2748 55.1553L 1.18946e-07 55.1553L 1.18946e-07 57.2671C 1.18946e-07 58.7578 1.62141 60 3.49227 60L 65.6049 60L 66.3532 60C 66.3532 60 65.7296 59.5031 65.7296 58.7578ZM 97.4095 3.22981L 97.4095 10.559L 93.6678 10.559L 93.6678 3.35404L 12.0982 3.35404L 12.0982 51.0559L 65.7296 51.0559L 65.7296 54.5342L 8.35651 54.5342L 8.35651 3.35404C 8.35651 1.49068 9.97793 -9.47751e-07 11.8488 -9.47751e-07L 93.9172 -9.47751e-07C 95.9128 -9.47751e-07 97.4095 1.49068 97.4095 3.22981ZM 53.2572 1.61491C 53.2572 1.36646 53.1324 1.24224 52.883 1.24224C 52.6336 1.24224 52.5088 1.36646 52.5088 1.61491C 52.5088 1.86335 52.6336 1.98758 52.883 1.98758C 53.1324 1.98758 53.2572 1.86335 53.2572 1.61491Z"/>
</defs>
</svg>
