<svg width="35" height="35" viewBox="0 0 35 35" version="1.1" xmlns="http://www.w3.org/2000/svg" xmlns:xlink="http://www.w3.org/1999/xlink">
<title>noun_402008_cc</title>
<desc>Created using Figma</desc>
<g id="Canvas" transform="translate(-34799 -808)">
<g id="noun_402008_cc">
<g id="Group">
<g id="Vector">
<use xlink:href="#path0_fill" transform="translate(34804.5 812.038)" fill="#374B7E"/>
</g>
<g id="Vector">
<use xlink:href="#path1_fill" transform="translate(34805 823.48)" fill="#374B7E"/>
</g>
<g id="Vector">
<use xlink:href="#path2_fill" transform="translate(34812.7 833.577)" fill="#374B7E"/>
</g>
<g id="Vector">
<use xlink:href="#path3_fill" transform="translate(34799 808)" fill="#374B7E"/>
</g>
</g>
</g>
</g>
<defs>
<path id="path0_fill" d="M 0.546875 1.34615C 0.848906 1.34615 1.09375 1.04481 1.09375 0.673077C 1.09375 0.301347 0.848906 0 0.546875 0C 0.244844 0 0 0.301347 0 0.673077C 0 1.04481 0.244844 1.34615 0.546875 1.34615Z"/>
<path id="path1_fill" d="M 0.0988734 10.4833C 0.205151 10.67 0.374981 10.7699 0.547482 10.7699C 0.655896 10.7699 0.765377 10.7304 0.86044 10.6476L 6.32919 5.93609C 6.47552 5.8112 6.56257 5.60481 6.56257 5.38527C 6.56257 5.16573 6.47552 4.95934 6.32919 4.83445L 0.86044 0.122914C 0.612103 -0.0926811 0.271908 -0.0164341 0.0988734 0.287239C -0.0741613 0.592227 -0.0143468 1.01159 0.233456 1.22455L 5.06187 5.38527L 0.233456 9.54599C -0.0143468 9.75896 -0.0741613 10.1783 0.0988734 10.4833Z"/>
<path id="path2_fill" d="M 0.546875 1.34615L 6.01562 1.34615C 6.3179 1.34615 6.5625 1.04511 6.5625 0.673077C 6.5625 0.301044 6.3179 0 6.01562 0L 0.546875 0C 0.244598 0 0 0.301044 0 0.673077C 0 1.04511 0.244598 1.34615 0.546875 1.34615Z"/>
<path id="path3_fill" d="M 34.4531 0L 0.546875 0C 0.244598 0 0 0.301044 0 0.673077L 0 34.3269C 0 34.699 0.244598 35 0.546875 35L 34.4531 35C 34.7554 35 35 34.699 35 34.3269L 35 0.673077C 35 0.301044 34.7554 0 34.4531 0ZM 33.9062 33.6538L 1.09375 33.6538L 1.09375 9.42308L 33.9062 9.42308L 33.9062 33.6538ZM 33.9062 8.07692L 1.09375 8.07692L 1.09375 1.34615L 33.9062 1.34615L 33.9062 8.07692Z"/>
</defs>
</svg>
