<svg width="150" height="150" viewBox="0 0 150 150" version="1.1" xmlns="http://www.w3.org/2000/svg" xmlns:xlink="http://www.w3.org/1999/xlink">
<title>payroll</title>
<desc>Created using Figma</desc>
<g id="Canvas" transform="translate(-17732 -4878)">
<g id="payroll">
<g id="Group">
<g id="Group">
<g id="Vector">
<use xlink:href="#path0_fill" transform="translate(17756.1 4878)" fill="#0B2D40"/>
</g>
<g id="Vector">
<use xlink:href="#path1_fill" transform="translate(17732 4916.83)" fill="#0B2D40"/>
</g>
</g>
<g id="Vector">
<use xlink:href="#path2_fill" transform="translate(17787.3 4933.67)" fill="#0B2D40"/>
</g>
</g>
</g>
</g>
<defs>
<path id="path0_fill" d="M 25.3857 32C 39.4058 32 50.7713 24.8366 50.7713 16C 50.7713 7.16345 39.4058 0 25.3857 0C 11.3656 0 2.01747e-06 7.16345 2.01747e-06 16C 2.01747e-06 24.8366 11.3656 32 25.3857 32Z"/>
<path id="path1_fill" d="M 84.8833 -1.27157e-06L 63.4642 -1.27157e-06L 49.1847 13.3333L 34.9053 -1.27157e-06L 13.4861 -1.27157e-06C 6.08199 -1.27157e-06 1.00874e-06 3.83334 1.00874e-06 8.50001L 1.00874e-06 47.5001C 1.00874e-06 52.1667 6.08199 56.0001 13.4861 56.0001L 19.5681 56.0001L 19.5681 102.667C 19.5681 107.333 25.6501 111.167 33.0543 111.167L 35.6986 111.167C 43.1027 111.167 49.1847 107.333 49.1847 102.667C 49.1847 107.333 55.2667 111.167 62.6709 111.167L 65.3152 111.167C 70.6039 111.167 75.3637 109.167 77.4792 106.333C 74.0415 105.5 70.6039 104.333 67.4307 102.833C 60.5554 99.6668 54.4734 95.3334 49.4492 90.0001L 46.276 86.6668L 76.4214 73.5001C 76.157 73.5001 76.157 73.3334 75.8926 73.3334C 70.8683 72.0001 66.6374 70.0001 62.9353 67.6667C 59.2332 65.3334 56.06 62.3334 53.9445 59.0001C 51.5646 55.5001 50.5069 51.5001 50.7713 46.8334L 50.7713 46.6667C 51.0358 42.8334 52.3579 39.5 54.7378 36.3334C 57.1178 33.3334 60.0265 30.6667 63.4642 28.3334C 66.9018 26.1667 71.1328 24.1667 75.8926 22.6667C 78.8013 21.6667 81.9746 21 85.1478 20.3334L 85.1478 12.8333L 98.3695 12.8333L 98.3695 8.33334C 98.3695 3.83334 92.2875 -1.27157e-06 84.8833 -1.27157e-06Z"/>
<path id="path2_fill" d="M 36.4919 87.0001C 29.0877 86.8334 22.2125 85.3334 15.866 82.6668C 9.78406 79.8334 4.23094 76.0001 0 71.1667L 23.2702 61.1667C 25.6501 63.3334 28.03 64.6667 29.881 65.3334C 31.9965 66.0001 34.112 66.5001 36.4919 66.6667L 36.4919 55.5001C 31.9965 54.8334 27.7656 53.8334 23.5346 52.6667C 19.3037 51.5001 15.6016 49.8334 12.4284 47.8334C 9.25519 45.8334 6.61085 43.3334 4.75981 40.5C 2.90877 37.6667 1.85104 34.1667 2.11547 30C 2.3799 26.8334 3.43764 23.8334 5.28868 21.3334C 7.13972 18.8334 9.78406 16.5 12.9573 14.5C 16.1305 12.5 19.5681 11 23.5346 9.66668C 27.5011 8.33334 31.7321 7.33334 36.4919 6.83334L 36.4919 2.54313e-06L 60.0265 2.54313e-06L 60.0265 6.66668C 66.3729 7.16668 71.9261 8.50001 76.9503 10.5C 81.9746 12.5 86.7344 15.8333 91.4942 20.3334L 69.5462 29.3334C 68.4884 28.3334 67.1663 27.3334 65.5797 26.6667C 63.993 26 61.8776 25.5 60.0265 25.1667L 60.0265 38C 64.7863 38.8334 69.5462 39.6667 73.7771 41C 78.008 42.1667 81.7101 43.8334 85.1478 45.8334C 88.321 47.8334 90.9653 50.3334 92.5519 53.3334C 94.403 56.3334 94.9318 60.0001 94.6674 64.3334C 94.403 67.5001 93.0808 70.3334 91.2297 72.8334C 89.1143 75.3334 86.7344 77.5001 83.5612 79.3334C 80.3879 81.1668 76.9503 82.8334 72.7194 84.1668C 68.7529 85.5001 64.5219 86.5001 60.291 87.1668L 60.291 94.3334L 36.7563 94.3334L 36.7563 87.0001L 36.4919 87.0001ZM 30.9388 30.3334C 30.9388 32 31.2032 33.3334 32.5254 34.5C 33.5831 35.6667 35.4342 36.5 37.8141 37L 37.8141 24C 35.6986 24.8334 33.8476 25.6667 32.7898 26.8334C 31.4677 28 30.9388 29.1667 30.9388 30.3334ZM 65.8441 61.8334C 65.8441 60.1667 65.5797 58.8334 64.2575 57.6667C 63.1997 56.5001 61.3487 55.6667 58.9688 55.1667L 58.9688 68.1667C 61.0843 67.3334 62.9353 66.5001 63.993 65.3334C 65.3152 64.3334 65.8441 63.1667 65.8441 61.8334Z"/>
</defs>
</svg>
