<svg width="35" height="35" viewBox="0 0 35 35" version="1.1" xmlns="http://www.w3.org/2000/svg" xmlns:xlink="http://www.w3.org/1999/xlink">
<title>noun_1524439_cc</title>
<desc>Created using Figma</desc>
<g id="Canvas" transform="translate(-34738 -803)">
<g id="noun_1524439_cc">
<g id="Group">
<g id="Compound Path">
<use xlink:href="#path0_fill" transform="translate(34738 803)" fill="#223C60"/>
</g>
</g>
</g>
</g>
<defs>
<path id="path0_fill" d="M 3.70051e-08 18.1364L 3.70051e-08 35L 35 35L 33.0599 0L 25.2605 0L 24.2517 17.9091L 16.8792 17.9091L 16.8792 10.8636L 8.84701 17.5L 8.84701 10.8636L 3.70051e-08 18.1364ZM 16.918 34.0909L 7.37251 34.0909L 7.37251 27.3182L 16.918 27.3182L 16.918 34.0909ZM 32.3226 0.909091L 32.6718 7L 25.6486 7L 25.9978 0.909091L 32.3226 0.909091ZM 25.6098 7.90909L 32.7106 7.90909L 34.1463 34.0909L 24.1353 34.0909L 25.6098 7.90909ZM 16.1031 12.6364L 16.1031 18.8182L 24.2129 18.8182L 23.3592 34.0909L 17.694 34.0909L 17.694 26.4091L 6.59645 26.4091L 6.59645 34.0909L 0.776053 34.0909L 0.776053 18.6364L 8.07095 12.6364L 8.07095 19.2727L 16.1031 12.6364Z"/>
</defs>
</svg>
