<svg width="150" height="150" viewBox="0 0 150 150" version="1.1" xmlns="http://www.w3.org/2000/svg" xmlns:xlink="http://www.w3.org/1999/xlink">
<title>time-white</title>
<desc>Created using Figma</desc>
<g id="Canvas" transform="translate(-17615 -3656)">
<g id="time-white">
<g id="Group">
<g id="Vector">
<use xlink:href="#path0_fill" transform="translate(17759.7 3758.11)" fill="#FFFFFF"/>
</g>
<g id="Vector">
<use xlink:href="#path1_fill" transform="translate(17658.2 3773.25)" fill="#FFFFFF"/>
</g>
<g id="Vector">
<use xlink:href="#path2_fill" transform="translate(17615 3656)" fill="#FFFFFF"/>
</g>
<g id="Vector">
<use xlink:href="#path3_fill" transform="translate(17659.3 3672.38)" fill="#FFFFFF"/>
</g>
<g id="Vector">
<use xlink:href="#path4_fill" transform="translate(17683.6 3693.23)" fill="#FFFFFF"/>
</g>
<g id="Vector">
<use xlink:href="#path5_fill" transform="translate(17664.9 3704.1)" fill="#FFFFFF"/>
</g>
<g id="Vector">
<use xlink:href="#path6_fill" transform="translate(17705.3 3704.1)" fill="#FFFFFF"/>
</g>
<g id="Vector">
<use xlink:href="#path7_fill" transform="translate(17687.5 3724.25)" fill="#FFFFFF"/>
</g>
<g id="Vector">
<use xlink:href="#path8_fill" transform="translate(17687.5 3678.87)" fill="#FFFFFF"/>
</g>
</g>
</g>
</g>
<defs>
<path id="path0_fill" d="M 1.78232 12.1622L 5.30354 3.3816L 5.30354 8.25586e-07L -7.42193e-07 13.225C 0.637536 12.9428 1.23338 12.5834 1.78232 12.1622Z"/>
<path id="path1_fill" d="M 61.7872 32.7532C 62.7478 32.7532 63.5243 31.8875 63.5243 30.8209L 63.5243 28.2277C 63.5243 27.6557 63.2968 27.1146 62.9042 26.7475L 50.3306 15.0162L 46.7017 1.38356C 46.4828 0.564249 45.8053 -2.00499e-06 45.0358 -2.00499e-06L 18.4886 -2.00499e-06C 17.719 -2.00499e-06 17.0415 0.564249 16.8226 1.38356L 13.1937 15.0162L 0.620162 26.7475C 0.225827 27.1146 -5.30138e-07 27.6557 -5.30138e-07 28.2277L -5.30138e-07 30.8209C -5.30138e-07 31.8875 0.776509 32.7532 1.73716 32.7532L 61.7872 32.7532L 61.7872 32.7532ZM 15.8272 17.6017C 16.0878 17.3582 16.2806 17.0336 16.3762 16.6703L 19.7862 3.86275L 43.7364 3.86275L 47.1464 16.6703C 47.2437 17.0336 47.4348 17.3582 47.6954 17.6017L 59.7912 28.8885L 3.73141 28.8885L 15.8272 17.6017Z"/>
<path id="path2_fill" d="M 141.99 5.30734e-07L 8.00482 5.30734e-07C 3.60112 5.30734e-07 0.00173743 4.00575 0.00173743 8.90231L 0.00173743 100.714L 0.609742 100.714L 4.0423e-07 102.233L 4.0423e-07 105.61L 1.96472 100.712L 3.2867 100.712L 0.123338 108.598C 0.234516 109.289 0.418655 109.958 0.679228 110.588L 4.63995 100.712L 5.96192 100.712L 1.42968 112.01C 1.69547 112.42 1.99599 112.804 2.32258 113.164L 7.3169 100.71L 8.64062 100.71L 3.27801 114.08C 3.61155 114.352 3.96767 114.596 4.33768 114.818L 9.9956 100.71L 11.3193 100.71L 5.43383 115.386C 5.81774 115.548 6.22076 115.676 6.62899 115.784L 12.6743 100.712L 13.9963 100.712L 7.85716 116.02C 8.17332 116.055 8.4947 116.076 8.82128 116.076L 9.18956 116.076L 15.3513 100.712L 16.6732 100.712L 10.5115 116.076L 11.8665 116.076L 18.0282 100.712L 19.3502 100.712L 13.1885 116.076L 14.5435 116.076L 20.7052 100.712L 22.0271 100.712L 15.8655 116.076L 17.2204 116.076L 23.3821 100.712L 24.7041 100.712L 18.5424 116.076L 19.8974 116.076L 26.0591 100.712L 27.3828 100.712L 21.2211 116.076L 22.5761 116.076L 28.7378 100.712L 30.0598 100.712L 23.8981 116.076L 25.253 116.076L 31.4147 100.712L 32.7367 100.712L 26.575 116.076L 27.93 116.076L 34.0917 100.712L 35.4137 100.712L 29.252 116.076L 30.607 116.076L 36.7687 100.712L 38.0906 100.712L 31.9289 116.076L 33.2839 116.076L 39.4456 100.712L 40.7676 100.712L 34.6059 116.076L 35.9609 116.076L 42.1226 100.712L 43.4446 100.712L 37.2829 116.076L 38.6378 116.076L 44.7995 100.712L 46.1232 100.712L 39.9616 116.076L 41.3165 116.076L 47.4782 100.712L 48.8002 100.712L 42.6385 116.076L 43.9935 116.076L 50.1552 100.712L 51.4772 100.712L 45.3155 116.076L 46.6705 116.076L 52.8321 100.712L 54.1559 100.712L 47.9942 116.076L 49.3491 116.076L 55.5108 100.712L 56.8328 100.712L 50.6711 116.076L 52.0261 116.076L 58.1878 100.712L 59.5098 100.712L 53.3481 116.076L 54.7031 116.076L 60.8648 100.712L 62.1867 100.712L 56.025 116.076L 57.38 116.076L 63.5417 100.712L 64.8637 100.712L 58.702 116.076L 60.057 116.076L 66.2187 100.712L 67.5407 100.712L 61.379 116.076L 62.7339 116.076L 68.8956 100.712L 70.2176 100.712L 64.0559 116.076L 65.4126 116.076L 71.5743 100.712L 72.8963 100.712L 71.96 103.048C 70.7527 104.07 69.9605 105.67 69.9605 107.483C 69.9605 107.635 69.99 107.78 70.0005 107.931L 66.7329 116.076L 68.0896 116.076L 70.5251 110.004C 70.7405 110.476 71.0063 110.911 71.3294 111.293L 69.4116 116.076L 70.7683 116.076L 72.3213 112.203C 72.6601 112.441 73.0301 112.625 73.4175 112.768L 72.0903 116.076L 73.447 116.076L 74.6647 113.038C 74.7742 113.046 74.8801 113.075 74.9913 113.075C 75.344 113.075 75.6879 113.032 76.0197 112.955L 74.769 116.074L 76.1257 116.074L 77.6839 112.188C 79.0841 111.195 80.0204 109.461 80.0204 107.481C 80.0204 107.168 79.9822 106.866 79.937 106.569L 82.2856 100.712L 83.6059 100.712L 77.4442 116.076L 78.8009 116.076L 84.9626 100.712L 86.2846 100.712L 80.1229 116.076L 81.4796 116.076L 87.6413 100.712L 88.9633 100.712L 82.8016 116.076L 84.1583 116.076L 90.32 100.712L 91.6402 100.712L 85.4785 116.076L 86.8352 116.076L 92.9969 100.712L 94.3189 100.712L 88.1572 116.076L 89.5139 116.076L 95.6756 100.712L 96.9976 100.712L 90.8359 116.076L 92.1926 116.076L 98.3543 100.712L 99.6746 100.712L 93.5129 116.076L 94.8696 116.076L 101.031 100.712L 102.353 100.712L 96.1916 116.076L 97.5483 116.076L 103.71 100.712L 105.032 100.712L 98.8703 116.076L 100.227 116.076L 106.389 100.712L 107.711 100.712L 101.549 116.076L 102.906 116.076L 109.067 100.712L 110.389 100.712L 104.228 116.076L 105.584 116.076L 111.746 100.712L 113.066 100.712L 106.905 116.076L 108.261 116.076L 114.423 100.712L 115.745 100.712L 109.583 116.076L 110.94 116.076L 117.102 100.712L 118.424 100.712L 112.262 116.076L 113.619 116.076L 119.78 100.712L 121.101 100.712L 114.939 116.076L 116.296 116.076L 122.457 100.712L 123.779 100.712L 117.618 116.076L 118.974 116.076L 125.136 100.712L 126.458 100.712L 120.296 116.076L 121.653 116.076L 127.815 100.712L 129.135 100.712L 122.973 116.076L 124.33 116.076L 130.492 100.712L 131.814 100.712L 125.652 116.076L 127.009 116.076L 133.17 100.712L 134.492 100.712L 128.331 116.076L 129.687 116.076L 135.849 100.712L 137.169 100.712L 131.008 116.076L 132.364 116.076L 138.526 100.712L 139.848 100.712L 133.686 116.076L 135.043 116.076L 141.205 100.712L 142.527 100.712L 136.365 116.076L 137.722 116.076L 143.883 100.712L 145.205 100.712L 139.044 116.076L 140.4 116.076L 146.562 100.712L 147.882 100.712L 141.733 116.047C 142.224 116.016 142.706 115.946 143.173 115.836L 149.237 100.712L 150 100.712L 150 8.90231C 149.995 4.00575 146.394 5.30734e-07 141.99 5.30734e-07ZM 74.9983 111.146C 73.1829 111.146 71.7064 109.504 71.7064 107.485C 71.7064 105.465 73.1829 103.823 74.9983 103.823C 76.8136 103.823 78.2902 105.465 78.2902 107.485C 78.2902 109.504 76.8119 111.146 74.9983 111.146ZM 77.4824 102.652C 77.135 102.43 76.7632 102.256 76.3706 102.13L 76.9387 100.716L 78.2606 100.716L 77.4824 102.652ZM 75.1042 101.904C 75.0678 101.904 75.033 101.892 74.9965 101.892C 74.5466 101.892 74.1175 101.979 73.7023 102.103L 74.2582 100.716L 75.5785 100.716L 75.1042 101.904ZM 79.3359 104.706C 79.1032 104.26 78.8339 103.844 78.5038 103.487L 79.6156 100.714L 80.9376 100.714L 79.3359 104.706ZM 144.559 94.6674L 5.43556 94.6674L 5.43556 8.90231C 5.43556 7.34291 6.6012 6.04437 8.00308 6.04437L 141.99 6.04437C 143.392 6.04437 144.559 7.34291 144.559 8.90231L 144.559 94.6674L 144.559 94.6674Z"/>
<path id="path3_fill" d="M 30.7008 1.26786e-06C 13.7722 1.26786e-06 1.48439e-06 15.3216 1.48439e-06 34.1542C 1.48439e-06 52.9887 13.7722 68.3103 30.7008 68.3103C 47.6328 68.3103 61.4085 52.9887 61.4085 34.1542C 61.4067 15.3216 47.6328 1.26786e-06 30.7008 1.26786e-06ZM 30.7008 63.5432C 16.1347 63.5432 4.28557 50.3588 4.28557 34.1542C 4.28557 17.9495 16.1347 4.76709 30.7008 4.76709C 45.2703 4.76709 57.1229 17.9495 57.1229 34.1542C 57.1229 50.3607 45.2686 63.5432 30.7008 63.5432Z"/>
<path id="path4_fill" d="M 24.5999 17.7428L 8.03442 11.0723L 4.78594 1.7681C 4.42982 0.701442 3.43269 0.0135263 2.35565 -1.47426e-07L 1.57915 0.173911C 0.964193 0.440574 0.47605 0.960375 0.208528 1.63669C -0.0555202 2.31301 -0.0694163 3.0589 0.170311 3.73715L 3.695 13.7312C 3.81313 14.5254 4.23874 15.1824 5.08473 15.7486L 23.3718 23.0606L 23.8686 23.1205C 25.0151 23.1205 26.0053 22.2471 26.2798 20.991C 26.424 20.2935 26.3215 19.565 25.9949 18.9408C 25.6718 18.3379 25.1663 17.9032 24.5999 17.7428Z"/>
<path id="path5_fill" d="M 6.90346 3.53823e-06L 2.47545 3.53823e-06C 1.11178 3.53823e-06 1.5374e-06 1.23476 1.5374e-06 2.74972C 1.5374e-06 4.26854 1.11178 5.50332 2.47545 5.50332L 6.90346 5.50332C 8.26713 5.50332 9.37891 4.26854 9.37891 2.74972C 9.37717 1.23476 8.26713 3.53823e-06 6.90346 3.53823e-06Z"/>
<path id="path6_fill" d="M 2.65069e-06 2.74972C 2.65069e-06 4.26854 1.11178 5.50332 2.47545 5.50332L 6.90346 5.50332C 8.26539 5.50332 9.37543 4.26854 9.37543 2.74972C 9.37543 1.23283 8.26539 3.53823e-06 6.90346 3.53823e-06L 2.47545 3.53823e-06C 1.11178 3.53823e-06 2.65069e-06 1.23476 2.65069e-06 2.74972Z"/>
<path id="path7_fill" d="M 2.47198 -1.12044e-06C 1.11005 -1.12044e-06 1.48439e-06 1.23477 1.48439e-06 2.75165L 1.48439e-06 7.67527C 1.48439e-06 9.19409 1.11005 10.4289 2.47198 10.4289C 3.83564 10.4289 4.94742 9.19409 4.94742 7.67527L 4.94742 2.75165C 4.94569 1.23477 3.83564 -1.12044e-06 2.47198 -1.12044e-06Z"/>
<path id="path8_fill" d="M 2.47198 10.4308C 3.83564 10.4308 4.94742 9.19602 4.94742 7.67913L 4.94742 2.75359C 4.94742 1.23477 3.83564 -1.76911e-07 2.47198 -1.76911e-07C 1.11005 -1.76911e-07 1.48439e-06 1.23477 1.48439e-06 2.75359L 1.48439e-06 7.67913C 1.48439e-06 9.19602 1.10831 10.4308 2.47198 10.4308Z"/>
</defs>
</svg>
