<svg width="616" height="491" viewBox="0 0 616 491" version="1.1" xmlns="http://www.w3.org/2000/svg" xmlns:xlink="http://www.w3.org/1999/xlink">
<title>undraw_data_xmfy</title>
<desc>Created using Figma</desc>
<g id="Canvas" transform="translate(-13095 -1087)">
<g id="undraw_data_xmfy">
<g id="Vector">
<use xlink:href="#path0_fill" transform="translate(13304.5 1554.52)" fill="#F2F2F2"/>
</g>
<g id="Vector">
<use xlink:href="#path0_fill" transform="translate(13307.9 1424.7)" fill="#F2F2F2"/>
</g>
<g id="Vector">
<use xlink:href="#path0_fill" transform="translate(13095 1430.23)" fill="#F2F2F2"/>
</g>
<g id="Vector">
<use xlink:href="#path1_fill" transform="translate(13110.6 1089.76)" fill="#F5F5F5"/>
</g>
<g id="Vector">
<use xlink:href="#path2_fill" transform="translate(13105.8 1087)" fill="url(#paint4_linear)"/>
</g>
<g id="Vector">
<use xlink:href="#path3_fill" transform="translate(13110.6 1099.77)" fill="#FFFFFF"/>
</g>
<g id="Vector">
<use xlink:href="#path4_fill" transform="translate(13113.7 1092.52)" fill="#FF5252"/>
</g>
<g id="Vector">
<use xlink:href="#path5_fill" transform="translate(13120.3 1092.52)" fill="#FFFF00"/>
</g>
<g id="Vector">
<use xlink:href="#path4_fill" transform="translate(13127 1092.52)" fill="#69F0AE"/>
</g>
<g id="Group" opacity="0.2">
<g id="Vector" opacity="0.2">
<use xlink:href="#path6_fill" transform="translate(13118.2 1111.86)" fill="#6C63FF"/>
</g>
</g>
<g id="Vector">
<use xlink:href="#path7_fill" transform="translate(13191.5 1137.41)" fill="#F5F5F5"/>
</g>
<g id="Vector" opacity="0.5">
<use xlink:href="#path6_fill" transform="translate(13118.2 1337.66)" fill="#6C63FF"/>
</g>
<g id="Vector">
<use xlink:href="#path8_fill" transform="translate(13235.1 1336.97)" fill="url(#paint12_linear)"/>
</g>
<g id="Vector">
<use xlink:href="#path8_fill" transform="translate(13235.1 1375.64)" fill="url(#paint13_linear)"/>
</g>
<g id="Vector">
<use xlink:href="#path8_fill" transform="translate(13305.6 1375.64)" fill="url(#paint14_linear)"/>
</g>
<g id="Vector">
<use xlink:href="#path9_fill" transform="translate(13236.5 1337.66)" fill="#6C63FF"/>
</g>
<g id="Vector">
<use xlink:href="#path9_fill" transform="translate(13236.5 1376.33)" fill="#6C63FF"/>
</g>
<g id="Vector">
<use xlink:href="#path9_fill" transform="translate(13306.3 1376.33)" fill="#6C63FF"/>
</g>
<g id="Vector">
<use xlink:href="#path6_fill" transform="translate(13118.2 1357)" fill="#F5F5F5"/>
</g>
<g id="Vector" opacity="0.5">
<use xlink:href="#path7_fill" transform="translate(13236.5 1357)" fill="#6C63FF"/>
</g>
<g id="Vector">
<use xlink:href="#path7_fill" transform="translate(13236.5 1395.67)" fill="#F5F5F5"/>
</g>
<g id="Vector" opacity="0.5">
<use xlink:href="#path6_fill" transform="translate(13118.2 1376.33)" fill="#6C63FF"/>
</g>
<g id="Vector">
<use xlink:href="#path6_fill" transform="translate(13118.2 1395.67)" fill="#F5F5F5"/>
</g>
<g id="Vector">
<use xlink:href="#path10_fill" transform="translate(13191.5 1147.77)" fill="#F5F5F5"/>
</g>
<g id="Vector">
<use xlink:href="#path11_fill" transform="translate(13260 1147.77)" fill="#F5F5F5"/>
</g>
<g id="Vector">
<use xlink:href="#path10_fill" transform="translate(13191.5 1168.48)" fill="#F5F5F5"/>
</g>
<g id="Vector">
<use xlink:href="#path11_fill" transform="translate(13260 1168.48)" fill="#F5F5F5"/>
</g>
<g id="Vector">
<use xlink:href="#path7_fill" transform="translate(13191.5 1158.12)" fill="#F5F5F5"/>
</g>
<g id="Group" opacity="0.2">
<g id="Vector" opacity="0.2">
<use xlink:href="#path7_fill" transform="translate(13263.4 1111.86)" fill="#6C63FF"/>
</g>
</g>
<g id="Vector">
<use xlink:href="#path12_fill" transform="translate(13321.5 1136.72)" fill="url(#paint29_linear)"/>
</g>
<g id="Vector">
<use xlink:href="#path12_fill" transform="translate(13321.5 1147.08)" fill="url(#paint30_linear)"/>
</g>
<g id="Vector">
<use xlink:href="#path12_fill" transform="translate(13321.5 1157.43)" fill="url(#paint31_linear)"/>
</g>
<g id="Vector">
<use xlink:href="#path13_fill" transform="translate(13322.2 1137.41)" fill="#FF5252"/>
</g>
<g id="Vector">
<use xlink:href="#path13_fill" transform="translate(13322.2 1147.77)" fill="#FF9800"/>
</g>
<g id="Vector">
<use xlink:href="#path13_fill" transform="translate(13322.2 1158.12)" fill="#69F0AE"/>
</g>
<g id="Vector">
<use xlink:href="#path12_fill" transform="translate(13321.5 1167.79)" fill="url(#paint35_linear)"/>
</g>
<g id="Vector">
<use xlink:href="#path13_fill" transform="translate(13322.2 1168.48)" fill="#6C63FF"/>
</g>
<g id="Vector">
<use xlink:href="#path14_fill" transform="translate(13116.2 1212.68)" fill="url(#paint37_linear)"/>
</g>
<g id="Vector" opacity="0.5">
<use xlink:href="#path15_fill" transform="translate(13118.2 1214.75)" fill="#6C63FF"/>
</g>
<g id="Vector" opacity="0.5">
<use xlink:href="#path16_fill" transform="translate(13118.2 1214.75)" fill="#FFFFFF"/>
</g>
<g id="Vector">
<use xlink:href="#path17_fill" transform="matrix(0.995894 -0.0905247 0.0907406 0.995875 13117.5 1229.32)" fill="url(#paint40_linear)"/>
</g>
<g id="Vector">
<use xlink:href="#path18_fill" transform="matrix(0.995894 -0.0905247 0.0907406 0.995875 13121.8 1231.69)" fill="#FFFFFF"/>
</g>
<g id="Vector" opacity="0.5">
<use xlink:href="#path19_fill" transform="translate(13136 1229.43)" fill="#6C63FF"/>
</g>
<g id="Vector">
<use xlink:href="#path20_stroke" transform="translate(13162.8 1245.59)" fill="#6C63FF"/>
</g>
<g id="Vector">
<use xlink:href="#path21_stroke" transform="translate(13163.9 1257.63)" fill="#6C63FF"/>
</g>
<g id="Vector">
<use xlink:href="#path22_stroke" transform="translate(13168.2 1305.13)" fill="#6C63FF"/>
</g>
<g id="Vector">
<use xlink:href="#path23_stroke" transform="translate(13205.3 1252.33)" fill="#6C63FF"/>
</g>
<g id="Vector">
<use xlink:href="#path24_stroke" transform="translate(13206.5 1265.43)" fill="#6C63FF"/>
</g>
<g id="Vector">
<use xlink:href="#path25_stroke" transform="translate(13209.8 1301.35)" fill="#6C63FF"/>
</g>
<g id="Vector">
<use xlink:href="#path26_stroke" transform="translate(13248.7 1259.7)" fill="#6C63FF"/>
</g>
<g id="Vector">
<use xlink:href="#path27_stroke" transform="translate(13249.7 1270.56)" fill="#6C63FF"/>
</g>
<g id="Vector">
<use xlink:href="#path28_stroke" transform="translate(13252.4 1297.47)" fill="#6C63FF"/>
</g>
<g id="Vector">
<use xlink:href="#path29_stroke" transform="translate(13287.6 1235.35)" fill="#6C63FF"/>
</g>
<g id="Vector">
<use xlink:href="#path30_stroke" transform="translate(13288.7 1247.24)" fill="#6C63FF"/>
</g>
<g id="Vector">
<use xlink:href="#path31_stroke" transform="translate(13293 1293.78)" fill="#6C63FF"/>
</g>
<g id="Vector">
<use xlink:href="#path32_stroke" transform="translate(13315.8 1229.66)" fill="#6C63FF"/>
</g>
<g id="Vector">
<use xlink:href="#path33_stroke" transform="translate(13316.9 1241.98)" fill="#6C63FF"/>
</g>
<g id="Vector">
<use xlink:href="#path34_stroke" transform="translate(13321.4 1291.2)" fill="#6C63FF"/>
</g>
<g id="Vector">
<use xlink:href="#path35_fill" transform="matrix(0.995894 -0.0905247 0.0907406 0.995875 13158.9 1242.2)" fill="#FF9800"/>
</g>
<g id="Vector">
<use xlink:href="#path36_fill" transform="matrix(0.995894 -0.0905247 0.0907406 0.995875 13201.2 1249.45)" fill="#FF5252"/>
</g>
<g id="Vector">
<use xlink:href="#path37_fill" transform="matrix(0.995894 -0.0905247 0.0907406 0.995875 13244.9 1256.57)" fill="#69F0AE"/>
</g>
<g id="Vector">
<use xlink:href="#path38_fill" transform="matrix(0.995894 -0.0905247 0.0907406 0.995875 13282.1 1230.99)" fill="url(#paint61_linear)"/>
</g>
<g id="Vector">
<use xlink:href="#path39_fill" transform="matrix(0.995894 -0.0905247 0.0907406 0.995875 13310.8 1225.62)" fill="url(#paint62_linear)"/>
</g>
<g id="Vector">
<use xlink:href="#path40_fill" transform="matrix(0.995894 -0.0905247 0.0907406 0.995875 13283.6 1232.24)" fill="#6C63FF"/>
</g>
<g id="Vector">
<use xlink:href="#path41_fill" transform="matrix(0.995894 -0.0905247 0.0907406 0.995875 13312.3 1226.87)" fill="#6C63FF"/>
</g>
<g id="Vector">
<use xlink:href="#path42_fill" transform="matrix(0.995894 -0.0905247 0.0907406 0.995875 13356.1 1235.36)" fill="#69F0AE"/>
</g>
<g id="Group" opacity="0.2">
<g id="Vector" opacity="0.2">
<use xlink:href="#path43_fill" transform="translate(13366.9 1307.05)" fill="url(#paint66_linear)"/>
</g>
</g>
<g id="Group" opacity="0.2">
<g id="Vector" opacity="0.2">
<use xlink:href="#path44_fill" transform="translate(13319.7 1303.83)" fill="url(#paint67_linear)"/>
</g>
</g>
<g id="Vector">
<use xlink:href="#path45_fill" transform="translate(13319.4 1307.44)" fill="#CA7070"/>
</g>
<g id="&#60;Path&#62;">
<use xlink:href="#path46_fill" transform="translate(13328.3 1430.38)" fill="#00695C"/>
</g>
<g id="Vector" opacity="0.2">
<use xlink:href="#path47_fill" transform="translate(13328.4 1430.38)" fill="#FFFFFF"/>
</g>
<g id="&#60;Path&#62;">
<use xlink:href="#path48_fill" transform="translate(13364.4 1428.4)" fill="#00695C"/>
</g>
<g id="Vector">
<use xlink:href="#path49_fill" transform="translate(13359.7 1309.64)" fill="#00695C"/>
</g>
<g id="Vector">
<use xlink:href="#path50_fill" transform="translate(13363.6 1306.05)" fill="#CA7070"/>
</g>
<g id="Vector" opacity="0.2">
<use xlink:href="#path51_fill" transform="translate(13364.4 1428.37)" fill="#FFFFFF"/>
</g>
<g id="Vector">
<use xlink:href="#path52_fill" transform="translate(13351.1 1339.84)" fill="#CA7070"/>
</g>
<g id="Vector" opacity="0.2">
<use xlink:href="#path53_fill" transform="translate(13359.4 1314.53)" fill="#FFFFFF"/>
</g>
<g id="Vector">
<use xlink:href="#path54_fill" transform="translate(13345.4 1323.32)" fill="#CA7070"/>
</g>
<g id="Vector" opacity="0.2">
<use xlink:href="#path55_fill" transform="translate(13345.4 1323.33)" fill="#FFFFFF"/>
</g>
<g id="Vector">
<use xlink:href="#path56_fill" transform="translate(13343.2 1347.5)" fill="#00695C"/>
</g>
<g id="Vector">
<use xlink:href="#path57_fill" transform="translate(13330.9 1387.86)" fill="#263238"/>
</g>
<g id="Vector" opacity="0.2">
<use xlink:href="#path58_fill" transform="translate(13343 1347.52)" fill="#FFFFFF"/>
</g>
<g id="Vector">
<use xlink:href="#path59_fill" transform="translate(13320.1 1313.91)" fill="#00695C"/>
</g>
<g id="Group" opacity="0.2">
<g id="Vector" opacity="0.2">
<use xlink:href="#path60_fill" transform="translate(13357.6 1399.17)" fill="#FFFFFF"/>
</g>
<g id="Vector" opacity="0.2">
<use xlink:href="#path61_fill" transform="translate(13330.9 1388.04)" fill="#FFFFFF"/>
</g>
</g>
<g id="Vector" opacity="0.2">
<use xlink:href="#path62_fill" transform="translate(13320.1 1314.27)" fill="#FFFFFF"/>
</g>
<g id="Vector">
<use xlink:href="#path63_fill" transform="translate(13340.3 1318.52)" fill="#263238"/>
</g>
<g id="Group" opacity="0.2">
<g id="Vector" opacity="0.2">
<use xlink:href="#path64_fill" transform="translate(13343.6 1319.02)" fill="#FFFFFF"/>
</g>
<g id="Vector" opacity="0.2">
<use xlink:href="#path65_fill" transform="translate(13347.3 1318.51)" fill="#FFFFFF"/>
</g>
<g id="Vector" opacity="0.2">
<use xlink:href="#path66_fill" transform="translate(13340.2 1324.64)" fill="#FFFFFF"/>
</g>
<g id="Vector" opacity="0.2">
<use xlink:href="#path67_fill" transform="translate(13343.8 1327.04)" fill="#FFFFFF"/>
</g>
<g id="Vector" opacity="0.2">
<use xlink:href="#path68_fill" transform="translate(13341 1322.41)" fill="#FFFFFF"/>
</g>
</g>
<g id="Vector" opacity="0.2">
<use xlink:href="#path69_fill" transform="translate(13319.4 1307.43)" fill="#FFFFFF"/>
</g>
<g id="Group" opacity="0.2">
<g id="Vector" opacity="0.2">
<use xlink:href="#path70_fill" transform="translate(13120.3 1313.86)" fill="url(#paint93_linear)"/>
</g>
</g>
<g id="Group" opacity="0.2">
<g id="Vector" opacity="0.2">
<use xlink:href="#path71_fill" transform="translate(13105.9 1309.96)" fill="url(#paint94_linear)"/>
</g>
</g>
<g id="Vector">
<use xlink:href="#path72_fill" transform="translate(13119.7 1319.31)" fill="#FF5252"/>
</g>
<g id="Vector">
<use xlink:href="#path73_fill" transform="translate(13123.3 1315.72)" fill="#F6B9AD"/>
</g>
<g id="Vector">
<use xlink:href="#path74_fill" transform="matrix(-1 1.22318e-16 -1.22612e-16 -1 13143.2 1363.95)" fill="#F6B9AD"/>
</g>
<g id="Vector" opacity="0.2">
<use xlink:href="#path75_fill" transform="translate(13127.7 1324.2)" fill="#FFFFFF"/>
</g>
<g id="Vector">
<use xlink:href="#path76_fill" transform="translate(13127.4 1332.99)" fill="#F6B9AD"/>
</g>
<g id="Vector" opacity="0.2">
<use xlink:href="#path77_fill" transform="translate(13137.6 1333)" fill="#FFFFFF"/>
</g>
<g id="Vector">
<use xlink:href="#path78_fill" transform="translate(13127.2 1357.17)" fill="#FF5252"/>
</g>
<g id="Vector" opacity="0.2">
<use xlink:href="#path79_fill" transform="translate(13137.3 1357.17)" fill="#FFFFFF"/>
</g>
<g id="Vector">
<use xlink:href="#path80_fill" transform="translate(13124.5 1396.84)" fill="#F6B9AD"/>
</g>
<g id="Vector">
<use xlink:href="#path81_fill" transform="translate(13175.1 1327.53)" fill="#F6B9AD"/>
</g>
<g id="Vector">
<use xlink:href="#path82_fill" transform="translate(13137.3 1332.95)" fill="#FF5252"/>
</g>
<g id="Vector" opacity="0.2">
<use xlink:href="#path83_fill" transform="translate(13143.4 1334.81)" fill="#FFFFFF"/>
</g>
<g id="Group" opacity="0.2">
<g id="Vector" opacity="0.2">
<use xlink:href="#path84_fill" transform="translate(13129.1 1407.98)" fill="#FFFFFF"/>
</g>
<g id="Vector" opacity="0.2">
<use xlink:href="#path85_fill" transform="translate(13143 1396.84)" fill="#FFFFFF"/>
</g>
</g>
<g id="Vector" opacity="0.2">
<use xlink:href="#path86_fill" transform="translate(13176.9 1327.64)" fill="#FFFFFF"/>
</g>
<g id="Vector">
<use xlink:href="#path87_fill" transform="translate(13114.1 1396.36)" fill="#263238"/>
</g>
<g id="Vector">
<use xlink:href="#path88_fill" transform="translate(13123.8 1439.86)" fill="#FF5252"/>
</g>
<g id="Vector">
<use xlink:href="#path88_fill" transform="translate(13145.9 1439.86)" fill="#FF5252"/>
</g>
<g id="Vector">
<use xlink:href="#path89_fill" transform="translate(13109.3 1330.11)" fill="#FCCC63"/>
</g>
<g id="Vector" opacity="0.2">
<use xlink:href="#path90_fill" transform="translate(13109.3 1330.19)" fill="#FFFFFF"/>
</g>
<g id="Vector" opacity="0.2">
<use xlink:href="#path91_fill" transform="translate(13142.5 1396.36)" fill="#FFFFFF"/>
</g>
<g id="Vector" opacity="0.2">
<use xlink:href="#path92_fill" transform="translate(13129.3 1439.86)" fill="#FFFFFF"/>
</g>
<g id="Vector" opacity="0.2">
<use xlink:href="#path92_fill" transform="translate(13151.4 1439.86)" fill="#FFFFFF"/>
</g>
<g id="Vector">
<use xlink:href="#path93_fill" transform="translate(13441.1 1202.79)" fill="#F5F5F5"/>
</g>
<g id="Vector">
<use xlink:href="#path94_fill" transform="translate(13435.8 1199.59)" fill="url(#paint119_linear)"/>
</g>
<g id="Vector">
<use xlink:href="#path95_fill" transform="translate(13441.1 1212.8)" fill="#FFFFFF"/>
</g>
<g id="Vector">
<use xlink:href="#path96_fill" transform="translate(13444.8 1205.55)" fill="#FF5252"/>
</g>
<g id="Vector">
<use xlink:href="#path97_fill" transform="translate(13451.5 1205.55)" fill="#FFFF00"/>
</g>
<g id="Vector">
<use xlink:href="#path96_fill" transform="translate(13458.1 1205.55)" fill="#69F0AE"/>
</g>
<g id="Group" opacity="0.2">
<g id="Vector" opacity="0.2">
<use xlink:href="#path98_fill" transform="translate(13457.7 1226.96)" fill="#6C63FF"/>
</g>
</g>
<g id="Vector">
<use xlink:href="#path99_fill" transform="translate(13456.3 1253.89)" fill="url(#paint125_linear)"/>
</g>
<g id="Vector">
<use xlink:href="#path100_fill" transform="translate(13458.4 1257.34)" fill="#FFFFFF"/>
</g>
<g id="Vector">
<use xlink:href="#path99_fill" transform="translate(13589.8 1307.06)" fill="url(#paint127_linear)"/>
</g>
<g id="Vector">
<use xlink:href="#path100_fill" transform="translate(13591.8 1310.51)" fill="#FFFFFF"/>
</g>
<g id="Vector">
<use xlink:href="#path101_fill" transform="translate(13458.4 1438.26)" fill="url(#paint129_linear)"/>
</g>
<g id="Vector" opacity="0.5">
<use xlink:href="#path102_fill" transform="translate(13463.2 1443.09)" fill="#6C63FF"/>
</g>
<g id="Vector" opacity="0.5">
<use xlink:href="#path103_fill" transform="translate(13463.2 1443.09)" fill="#FFFFFF"/>
</g>
<g id="Vector">
<use xlink:href="#path104_fill" transform="translate(13463.2 1264.23)" fill="url(#paint132_linear)"/>
</g>
<g id="Vector">
<use xlink:href="#path105_fill" transform="translate(13506.1 1266.32)" fill="#FF5252"/>
</g>
<g id="Vector">
<use xlink:href="#path106_fill" transform="translate(13489.3 1331.39)" fill="#69F0AE"/>
</g>
<g id="Vector">
<use xlink:href="#path107_fill" transform="translate(13520.6 1280.47)" fill="#FF9800"/>
</g>
<g id="Vector">
<use xlink:href="#path108_fill" transform="translate(13465.3 1266.31)" fill="#6C63FF"/>
</g>
<g id="Vector">
<use xlink:href="#path109_fill" transform="translate(13605 1325.01)" fill="url(#paint137_linear)"/>
</g>
<g id="Vector">
<use xlink:href="#path110_fill" transform="translate(13605.7 1325.7)" fill="#6C63FF"/>
</g>
<g id="Vector">
<use xlink:href="#path111_fill" transform="translate(13605.7 1344.35)" fill="#FF5252"/>
</g>
<g id="Vector">
<use xlink:href="#path112_fill" transform="translate(13605.7 1362.99)" fill="#69F0AE"/>
</g>
<g id="Vector">
<use xlink:href="#path113_fill" transform="translate(13605.7 1381.63)" fill="#FF9800"/>
</g>
<g id="Vector">
<use xlink:href="#path114_fill" transform="translate(13458.4 1376.8)" fill="#F5F5F5"/>
</g>
<g id="Vector">
<use xlink:href="#path115_fill" transform="translate(13458.4 1387.16)" fill="#F5F5F5"/>
</g>
<g id="Vector">
<use xlink:href="#path116_fill" transform="translate(13526.8 1387.16)" fill="#F5F5F5"/>
</g>
<g id="Vector">
<use xlink:href="#path116_fill" transform="translate(13526.8 1409.95)" fill="#F5F5F5"/>
</g>
<g id="Vector">
<use xlink:href="#path115_fill" transform="translate(13458.4 1407.87)" fill="#F5F5F5"/>
</g>
<g id="Vector">
<use xlink:href="#path114_fill" transform="translate(13458.4 1397.52)" fill="#F5F5F5"/>
</g>
<g id="Vector">
<use xlink:href="#path114_fill" transform="translate(13588.4 1254.58)" fill="#F5F5F5"/>
</g>
<g id="Vector">
<use xlink:href="#path115_fill" transform="translate(13588.4 1264.94)" fill="#F5F5F5"/>
</g>
<g id="Vector">
<use xlink:href="#path116_fill" transform="translate(13656.8 1264.94)" fill="#F5F5F5"/>
</g>
<g id="Vector">
<use xlink:href="#path116_fill" transform="translate(13656.8 1287.72)" fill="#F5F5F5"/>
</g>
<g id="Vector">
<use xlink:href="#path115_fill" transform="translate(13588.4 1285.65)" fill="#F5F5F5"/>
</g>
<g id="Vector">
<use xlink:href="#path114_fill" transform="translate(13588.4 1275.29)" fill="#F5F5F5"/>
</g>
<g id="Vector">
<use xlink:href="#path117_fill" transform="translate(13613.3 1554.96)" fill="url(#paint154_linear)"/>
</g>
<g id="Vector">
<use xlink:href="#path118_fill" transform="translate(13615.3 1557.03)" fill="#FF5252"/>
</g>
<g id="Vector">
<use xlink:href="#path119_fill" transform="translate(13396.2 1478.31)" fill="url(#paint156_linear)"/>
</g>
<g id="Vector">
<use xlink:href="#path102_fill" transform="translate(13403.1 1481.76)" fill="#FFFFFF"/>
</g>
<g id="Vector">
<use xlink:href="#path120_stroke" transform="translate(13410.7 1534.93)" fill="#6C63FF"/>
</g>
<g id="Vector">
<use xlink:href="#path121_fill" transform="translate(13412.8 1494.88)" fill="url(#paint159_linear)"/>
</g>
<g id="Vector">
<use xlink:href="#path122_fill" transform="translate(13414.5 1496.61)" fill="#6C63FF"/>
</g>
<g id="Vector">
<use xlink:href="#path123_fill" transform="translate(13587.7 1521.81)" fill="#69F0AE"/>
</g>
<g id="Vector">
<use xlink:href="#path124_fill" transform="translate(13535.8 1507.31)" fill="#FF9800"/>
</g>
<g id="Vector">
<use xlink:href="#path125_fill" transform="translate(13475 1511.45)" fill="#FF5252"/>
</g>
<g id="Vector">
<use xlink:href="#path126_fill" transform="translate(13403.1 1547.36)" fill="#FF5252"/>
</g>
<g id="Vector">
<use xlink:href="#path117_fill" transform="translate(13405.2 1554.96)" fill="url(#paint165_linear)"/>
</g>
<g id="Vector">
<use xlink:href="#path118_fill" transform="translate(13407.2 1557.03)" fill="#FF5252"/>
</g>
<g id="Vector">
<use xlink:href="#path127_fill" transform="translate(13397.6 1484.52)" fill="#FF5252"/>
</g>
<g id="Vector" opacity="0.2">
<use xlink:href="#path127_fill" transform="translate(13397.6 1484.52)"/>
</g>
<g id="Vector">
<use xlink:href="#path128_fill" transform="translate(13324.4 1449.33)" fill="url(#paint169_linear)"/>
</g>
<g id="Vector">
<use xlink:href="#path129_fill" transform="translate(13345.9 1492.51)" fill="#6C63FF"/>
</g>
<g id="Vector" opacity="0.2">
<use xlink:href="#path130_fill" transform="translate(13346.9 1496.84)" fill="#FFFFFF"/>
</g>
<g id="Vector">
<use xlink:href="#path131_fill" transform="translate(13393.4 1489.41)" fill="#985454"/>
</g>
<g id="Vector" opacity="0.2">
<use xlink:href="#path132_fill" transform="translate(13394.2 1490.96)" fill="#FFFFFF"/>
</g>
<g id="&#60;Path&#62;">
<use xlink:href="#path133_fill" transform="translate(13362.7 1561.58)" fill="#6C63FF"/>
</g>
<g id="Vector" opacity="0.2">
<use xlink:href="#path134_fill" transform="translate(13371.6 1561.58)" fill="#FFFFFF"/>
</g>
<g id="&#60;Path&#62;">
<use xlink:href="#path135_fill" transform="translate(13326.7 1559.6)" fill="#6C63FF"/>
</g>
<g id="Vector" opacity="0.2">
<use xlink:href="#path136_fill" transform="translate(13328.5 1559.58)" fill="#FFFFFF"/>
</g>
<g id="Vector">
<use xlink:href="#path137_fill" transform="matrix(-1 1.22318e-16 -1.22612e-16 -1 13353.4 1485.48)" fill="#985454"/>
</g>
<g id="Vector">
<use xlink:href="#path138_fill" transform="translate(13337.5 1454.52)" fill="#985454"/>
</g>
<g id="Vector" opacity="0.2">
<use xlink:href="#path139_fill" transform="translate(13347.7 1454.53)" fill="#FFFFFF"/>
</g>
<g id="Vector">
<use xlink:href="#path140_fill" transform="translate(13337.4 1478.7)" fill="#6C63FF"/>
</g>
<g id="Vector">
<use xlink:href="#path141_fill" transform="translate(13328 1519.06)" fill="#263238"/>
</g>
<g id="Vector" opacity="0.2">
<use xlink:href="#path142_fill" transform="translate(13347.7 1478.72)" fill="#FFFFFF"/>
</g>
<g id="Group" opacity="0.2">
<g id="Vector" opacity="0.2">
<use xlink:href="#path143_fill" transform="translate(13336 1530.37)" fill="#FFFFFF"/>
</g>
<g id="Vector" opacity="0.2">
<use xlink:href="#path144_fill" transform="translate(13357.6 1519.24)" fill="#FFFFFF"/>
</g>
</g>
<g id="Vector">
<use xlink:href="#path129_fill" transform="translate(13344.5 1485.61)" fill="#6C63FF"/>
</g>
<g id="Vector" opacity="0.2">
<use xlink:href="#path130_fill" transform="translate(13345.5 1489.94)" fill="#FFFFFF"/>
</g>
<g id="Vector">
<use xlink:href="#path131_fill" transform="translate(13392.1 1482.5)" fill="#985454"/>
</g>
<g id="Vector" opacity="0.2">
<use xlink:href="#path132_fill" transform="translate(13392.8 1484.05)" fill="#FFFFFF"/>
</g>
<g id="Vector">
<use xlink:href="#path145_fill" transform="translate(13333.3 1452.91)" fill="#263238"/>
</g>
<g id="Vector" opacity="0.2">
<use xlink:href="#path146_fill" transform="translate(13345.7 1452.95)" fill="#FFFFFF"/>
</g>
</g>
</g>
<defs>
<linearGradient id="paint4_linear" x1="0" y1="0" x2="1" y2="0" gradientUnits="userSpaceOnUse" gradientTransform="matrix(0 -335.597 336 0 -31.1111 335.597)">
<stop offset="0" stop-color="#808080" stop-opacity="0.25"/>
<stop offset="0.54" stop-color="#808080" stop-opacity="0.12"/>
<stop offset="1" stop-color="#808080" stop-opacity="0.1"/>
</linearGradient>
<linearGradient id="paint12_linear" x1="0" y1="0" x2="1" y2="0" gradientUnits="userSpaceOnUse" gradientTransform="matrix(0 -83.5539 380.247 0 7678.22 2833.24)">
<stop offset="0" stop-color="#808080" stop-opacity="0.25"/>
<stop offset="0.54" stop-color="#808080" stop-opacity="0.12"/>
<stop offset="1" stop-color="#808080" stop-opacity="0.1"/>
</linearGradient>
<linearGradient id="paint13_linear" x1="0" y1="0" x2="1" y2="0" gradientUnits="userSpaceOnUse" gradientTransform="matrix(0 -83.5539 380.247 0 7678.22 3258.6)">
<stop offset="0" stop-color="#808080" stop-opacity="0.25"/>
<stop offset="0.54" stop-color="#808080" stop-opacity="0.12"/>
<stop offset="1" stop-color="#808080" stop-opacity="0.1"/>
</linearGradient>
<linearGradient id="paint14_linear" x1="0" y1="0" x2="1" y2="0" gradientUnits="userSpaceOnUse" gradientTransform="matrix(0 -83.5539 380.247 0 11204.1 3258.6)">
<stop offset="0" stop-color="#808080" stop-opacity="0.25"/>
<stop offset="0.54" stop-color="#808080" stop-opacity="0.12"/>
<stop offset="1" stop-color="#808080" stop-opacity="0.1"/>
</linearGradient>
<linearGradient id="paint29_linear" x1="0" y1="0" x2="1" y2="0" gradientUnits="userSpaceOnUse" gradientTransform="matrix(0 -83.5539 136.889 0 4120.6 630.452)">
<stop offset="0" stop-color="#808080" stop-opacity="0.25"/>
<stop offset="0.54" stop-color="#808080" stop-opacity="0.12"/>
<stop offset="1" stop-color="#808080" stop-opacity="0.1"/>
</linearGradient>
<linearGradient id="paint30_linear" x1="0" y1="0" x2="1" y2="0" gradientUnits="userSpaceOnUse" gradientTransform="matrix(0 -83.5539 136.889 0 4120.6 744.389)">
<stop offset="0" stop-color="#808080" stop-opacity="0.25"/>
<stop offset="0.54" stop-color="#808080" stop-opacity="0.12"/>
<stop offset="1" stop-color="#808080" stop-opacity="0.1"/>
</linearGradient>
<linearGradient id="paint31_linear" x1="0" y1="0" x2="1" y2="0" gradientUnits="userSpaceOnUse" gradientTransform="matrix(0 -83.5539 136.889 0 4120.6 858.326)">
<stop offset="0" stop-color="#808080" stop-opacity="0.25"/>
<stop offset="0.54" stop-color="#808080" stop-opacity="0.12"/>
<stop offset="1" stop-color="#808080" stop-opacity="0.1"/>
</linearGradient>
<linearGradient id="paint35_linear" x1="0" y1="0" x2="1" y2="0" gradientUnits="userSpaceOnUse" gradientTransform="matrix(0 -83.5539 136.889 0 4120.6 972.263)">
<stop offset="0" stop-color="#808080" stop-opacity="0.25"/>
<stop offset="0.54" stop-color="#808080" stop-opacity="0.12"/>
<stop offset="1" stop-color="#808080" stop-opacity="0.1"/>
</linearGradient>
<linearGradient id="paint37_linear" x1="0" y1="0" x2="1" y2="0" gradientUnits="userSpaceOnUse" gradientTransform="matrix(0 -15536.9 38059.3 0 35298.7 34388.3)">
<stop offset="0" stop-color="#808080" stop-opacity="0.25"/>
<stop offset="0.54" stop-color="#808080" stop-opacity="0.12"/>
<stop offset="1" stop-color="#808080" stop-opacity="0.1"/>
</linearGradient>
<linearGradient id="paint40_linear" x1="0" y1="0" x2="1" y2="0" gradientUnits="userSpaceOnUse" gradientTransform="matrix(0 -15954.1 38881.6 0 78756.8 45689.8)">
<stop offset="0" stop-color="#808080" stop-opacity="0.25"/>
<stop offset="0.54" stop-color="#808080" stop-opacity="0.12"/>
<stop offset="1" stop-color="#808080" stop-opacity="0.1"/>
</linearGradient>
<linearGradient id="paint61_linear" x1="0" y1="0" x2="1" y2="0" gradientUnits="userSpaceOnUse" gradientTransform="matrix(0 -135.345 135.505 0 4212.05 3102.72)">
<stop offset="0" stop-color="#808080" stop-opacity="0.25"/>
<stop offset="0.54" stop-color="#808080" stop-opacity="0.12"/>
<stop offset="1" stop-color="#808080" stop-opacity="0.1"/>
</linearGradient>
<linearGradient id="paint62_linear" x1="0" y1="0" x2="1" y2="0" gradientUnits="userSpaceOnUse" gradientTransform="matrix(0 -135.345 135.505 0 4618.2 3061.43)">
<stop offset="0" stop-color="#808080" stop-opacity="0.25"/>
<stop offset="0.54" stop-color="#808080" stop-opacity="0.12"/>
<stop offset="1" stop-color="#808080" stop-opacity="0.1"/>
</linearGradient>
<linearGradient id="paint66_linear" x1="0" y1="0" x2="1" y2="0" gradientUnits="userSpaceOnUse" gradientTransform="matrix(0 -0.0496332 0.0709973 0 149.594 78.9207)">
<stop offset="0" stop-color="#808080" stop-opacity="0.25"/>
<stop offset="0.54" stop-color="#808080" stop-opacity="0.12"/>
<stop offset="1" stop-color="#808080" stop-opacity="0.1"/>
</linearGradient>
<linearGradient id="paint67_linear" x1="0" y1="0" x2="1" y2="0" gradientUnits="userSpaceOnUse" gradientTransform="matrix(0 -20617.6 9117.43 0 22751.4 69352.5)">
<stop offset="0" stop-color="#808080" stop-opacity="0.25"/>
<stop offset="0.54" stop-color="#808080" stop-opacity="0.12"/>
<stop offset="1" stop-color="#808080" stop-opacity="0.1"/>
</linearGradient>
<linearGradient id="paint93_linear" x1="0" y1="0" x2="1" y2="0" gradientUnits="userSpaceOnUse" gradientTransform="matrix(0 -0.0668473 0.102445 0 63.1708 91.2854)">
<stop offset="0" stop-color="#808080" stop-opacity="0.25"/>
<stop offset="0.54" stop-color="#808080" stop-opacity="0.12"/>
<stop offset="1" stop-color="#808080" stop-opacity="0.1"/>
</linearGradient>
<linearGradient id="paint94_linear" x1="0" y1="0" x2="1" y2="0" gradientUnits="userSpaceOnUse" gradientTransform="matrix(0 -28306.5 16213.4 0 10169.5 86655.8)">
<stop offset="0" stop-color="#808080" stop-opacity="0.25"/>
<stop offset="0.54" stop-color="#808080" stop-opacity="0.12"/>
<stop offset="1" stop-color="#808080" stop-opacity="0.1"/>
</linearGradient>
<linearGradient id="paint119_linear" x1="0" y1="0" x2="1" y2="0" gradientUnits="userSpaceOnUse" gradientTransform="matrix(0 -169881 136480 0 122171 225726)">
<stop offset="0" stop-color="#808080" stop-opacity="0.25"/>
<stop offset="0.54" stop-color="#808080" stop-opacity="0.12"/>
<stop offset="1" stop-color="#808080" stop-opacity="0.1"/>
</linearGradient>
<linearGradient id="paint125_linear" x1="0" y1="0" x2="1" y2="0" gradientUnits="userSpaceOnUse" gradientTransform="matrix(0 -16376.6 15438 0 51939.9 42077.1)">
<stop offset="0" stop-color="#808080" stop-opacity="0.25"/>
<stop offset="0.54" stop-color="#808080" stop-opacity="0.12"/>
<stop offset="1" stop-color="#808080" stop-opacity="0.1"/>
</linearGradient>
<linearGradient id="paint127_linear" x1="0" y1="0" x2="1" y2="0" gradientUnits="userSpaceOnUse" gradientTransform="matrix(0 -16376.6 15438 0 71287.6 50265.4)">
<stop offset="0" stop-color="#808080" stop-opacity="0.25"/>
<stop offset="0.54" stop-color="#808080" stop-opacity="0.12"/>
<stop offset="1" stop-color="#808080" stop-opacity="0.1"/>
</linearGradient>
<linearGradient id="paint129_linear" x1="0" y1="0" x2="1" y2="0" gradientUnits="userSpaceOnUse" gradientTransform="matrix(0 -7758.77 24989.8 0 151618 44992.1)">
<stop offset="0" stop-color="#808080" stop-opacity="0.25"/>
<stop offset="0.54" stop-color="#808080" stop-opacity="0.12"/>
<stop offset="1" stop-color="#808080" stop-opacity="0.1"/>
</linearGradient>
<linearGradient id="paint132_linear" x1="0" y1="0" x2="1" y2="0" gradientUnits="userSpaceOnUse" gradientTransform="matrix(0 -10617.6 10630.3 0 58905.7 40685)">
<stop offset="0" stop-color="#808080" stop-opacity="0.25"/>
<stop offset="0.54" stop-color="#808080" stop-opacity="0.12"/>
<stop offset="1" stop-color="#808080" stop-opacity="0.1"/>
</linearGradient>
<linearGradient id="paint137_linear" x1="0" y1="0" x2="1" y2="0" gradientUnits="userSpaceOnUse" gradientTransform="matrix(0 -223.731 1319.11 0 57280.2 4507.93)">
<stop offset="0" stop-color="#808080" stop-opacity="0.25"/>
<stop offset="0.54" stop-color="#808080" stop-opacity="0.12"/>
<stop offset="1" stop-color="#808080" stop-opacity="0.1"/>
</linearGradient>
<linearGradient id="paint154_linear" x1="0" y1="0" x2="1" y2="0" gradientUnits="userSpaceOnUse" gradientTransform="matrix(0 -334.216 334.617 0 11401.6 10629.3)">
<stop offset="0" stop-color="#808080" stop-opacity="0.25"/>
<stop offset="0.54" stop-color="#808080" stop-opacity="0.12"/>
<stop offset="1" stop-color="#808080" stop-opacity="0.1"/>
</linearGradient>
<linearGradient id="paint156_linear" x1="0" y1="0" x2="1" y2="0" gradientUnits="userSpaceOnUse" gradientTransform="matrix(0 -10110 28777.1 0 130120 57458.3)">
<stop offset="0" stop-color="#808080" stop-opacity="0.25"/>
<stop offset="0.54" stop-color="#808080" stop-opacity="0.12"/>
<stop offset="1" stop-color="#808080" stop-opacity="0.1"/>
</linearGradient>
<linearGradient id="paint159_linear" x1="0" y1="0" x2="1" y2="0" gradientUnits="userSpaceOnUse" gradientTransform="matrix(0 -2088.85 1711.11 0 14143.7 24522.3)">
<stop offset="0" stop-color="#808080" stop-opacity="0.25"/>
<stop offset="0.54" stop-color="#808080" stop-opacity="0.12"/>
<stop offset="1" stop-color="#808080" stop-opacity="0.1"/>
</linearGradient>
<linearGradient id="paint165_linear" x1="0" y1="0" x2="1" y2="0" gradientUnits="userSpaceOnUse" gradientTransform="matrix(0 -334.216 334.617 0 6823.45 10629.3)">
<stop offset="0" stop-color="#808080" stop-opacity="0.25"/>
<stop offset="0.54" stop-color="#808080" stop-opacity="0.12"/>
<stop offset="1" stop-color="#808080" stop-opacity="0.1"/>
</linearGradient>
<linearGradient id="paint169_linear" x1="0" y1="0" x2="1" y2="0" gradientUnits="userSpaceOnUse" gradientTransform="matrix(9033.82 0 0 14146.1 38439.2 80649.1)">
<stop offset="0" stop-color="#808080" stop-opacity="0.25"/>
<stop offset="0.54" stop-color="#808080" stop-opacity="0.12"/>
<stop offset="1" stop-color="#808080" stop-opacity="0.1"/>
</linearGradient>
<path id="path0_fill" d="M 46.321 23.4779C 71.9034 23.4779 92.642 18.2222 92.642 11.739C 92.642 5.25571 71.9034 -8.4293e-06 46.321 -8.4293e-06C 20.7386 -8.4293e-06 0 5.25571 0 11.739C 0 18.2222 20.7386 23.4779 46.321 23.4779Z"/>
<path id="path1_fill" d="M 264.79 0L 0 0L 0 10.0127L 264.79 10.0127L 264.79 0Z"/>
<path id="path2_fill" d="M 273.778 0L 0 0L 0 335.597L 273.778 335.597L 273.778 0Z"/>
<path id="path3_fill" d="M 264.79 0L 0 0L 0 317.298L 264.79 317.298L 264.79 0Z"/>
<path id="path4_fill" d="M 2.41975 4.8337C 3.75615 4.8337 4.83951 3.75164 4.83951 2.41685C 4.83951 1.08206 3.75615 0 2.41975 0C 1.08336 0 0 1.08206 0 2.41685C 0 3.75164 1.08336 4.8337 2.41975 4.8337Z"/>
<path id="path5_fill" d="M 2.41975 4.8337C 3.75614 4.8337 4.83951 3.75164 4.83951 2.41685C 4.83951 1.08206 3.75614 0 2.41975 0C 1.08336 0 0 1.08206 0 2.41685C 0 3.75164 1.08336 4.8337 2.41975 4.8337Z"/>
<path id="path6_fill" d="M 103.012 0L 0 0L 0 6.21475L 103.012 6.21475L 103.012 0Z"/>
<path id="path7_fill" d="M 103.012 0L -3.37577e-06 0L -3.37577e-06 6.21475L 103.012 6.21475L 103.012 0Z"/>
<path id="path8_fill" d="M 34.5679 0L -3.37577e-06 0L -3.37577e-06 7.59581L 34.5679 7.59581L 34.5679 0Z"/>
<path id="path9_fill" d="M 32.4938 0L -3.37577e-06 0L -3.37577e-06 6.21475L 32.4938 6.21475L 32.4938 0Z"/>
<path id="path10_fill" d="M 58.0741 0L -3.37577e-06 0L -3.37577e-06 6.21475L 58.0741 6.21475L 58.0741 0Z"/>
<path id="path11_fill" d="M 20.0494 0L -3.37577e-06 0L -3.37577e-06 6.21475L 20.0494 6.21475L 20.0494 0Z"/>
<path id="path12_fill" d="M 12.4444 0L -3.37577e-06 0L -3.37577e-06 7.59581L 12.4444 7.59581L 12.4444 0Z"/>
<path id="path13_fill" d="M 11.0617 0L -3.37577e-06 0L -3.37577e-06 6.21475L 11.0617 6.21475L 11.0617 0Z"/>
<path id="path14_fill" d="M 253.728 0L 0 0L 0 103.579L 253.728 103.579L 253.728 0Z"/>
<path id="path15_fill" d="M 248.198 0L 0 0L 0 98.055L 248.198 98.055L 248.198 0Z"/>
<path id="path16_fill" d="M 7.60494 7.59581L 248.198 7.59581L 248.198 0L -7.3845e-07 0L -7.3845e-07 98.055L 7.60494 98.055L 7.60494 7.59581Z"/>
<path id="path17_fill" d="M 255.8 7.58644e-06L -3.37574e-06 7.58644e-06L -3.37574e-06 104.961L 255.8 104.961L 255.8 7.58644e-06Z"/>
<path id="path18_fill" d="M 248.195 -5.05763e-06L 0 -5.05763e-06L 0 98.0559L 248.195 98.0559L 248.195 -5.05763e-06Z"/>
<path id="path19_fill" d="M 4.28642 82.3987L 2.10986e-06 28.0058C 2.10986e-06 28.0058 22.1234 4.52788 66.7852 21.9292C 111.447 39.3305 132.506 27.046 139.765 15.2932C 147.024 3.54043 184.703 -9.5658 196.913 10.0935C 209.122 29.7529 223.765 7.64907 223.765 7.64907L 228.715 61.9729L 4.28642 82.3987Z"/>
<path id="path20_stroke" d="M -0.49797 0.0450238L -0.124636 4.17438L 0.871302 4.08434L 0.497968 -0.0450187L -0.49797 0.0450238Z"/>
<path id="path21_stroke" d="M -0.497935 0.0453831L -0.00188543 5.48847L 0.993988 5.39771L 0.497938 -0.0453746L -0.497935 0.0453831ZM 0.990213 16.3746L 1.98231 27.2608L 2.97818 27.1701L 1.98609 16.2839L 0.990213 16.3746ZM 2.97441 38.147L 3.47046 43.5901L 4.46633 43.4993L 3.97028 38.0562L 2.97441 38.147Z"/>
<path id="path22_stroke" d="M -0.497888 0.0459347L -0.117639 4.16837L 0.878134 4.07652L 0.497885 -0.0459144L -0.497888 0.0459347Z"/>
<path id="path23_stroke" d="M -0.497884 0.0459231L -0.117635 4.16838L 0.878138 4.07653L 0.497889 -0.0459256L -0.497884 0.0459231Z"/>
<path id="path24_stroke" d="M -0.497929 0.0454558L 0.219354 7.90194L 1.21521 7.81102L 0.497929 -0.0454643L -0.497929 0.0454558ZM 1.65392 23.6149L 2.3712 31.4714L 3.36706 31.3805L 2.64978 23.524L 1.65392 23.6149Z"/>
<path id="path25_stroke" d="M -0.497965 0.045023L -0.124637 4.17439L 0.871302 4.08435L 0.497973 -0.045018L -0.497965 0.045023Z"/>
<path id="path26_stroke" d="M -0.497492 0.0500636L -0.0826725 4.17252L 0.912303 4.0724L 0.497484 -0.0500552L -0.497492 0.0500636Z"/>
<path id="path27_stroke" d="M -0.497555 0.0493823L 0.0866437 5.93613L 1.08176 5.83738L 0.497557 -0.0493722L -0.497555 0.0493823ZM 1.25504 17.7096L 1.83924 23.5964L 2.83435 23.4976L 2.25015 17.6109L 1.25504 17.7096Z"/>
<path id="path28_stroke" d="M -0.49758 0.0491569L -0.0896817 4.1785L 0.905475 4.0802L 0.497576 -0.0491451L -0.49758 0.0491569Z"/>
<path id="path29_stroke" d="M -0.497973 0.0450193L -0.124634 4.17438L 0.871304 4.08434L 0.497965 -0.0450243L -0.497973 0.0450193Z"/>
<path id="path30_stroke" d="M -0.497938 0.0454258L -0.0113947 5.37889L 0.98447 5.28804L 0.497927 -0.0454216L -0.497938 0.0454258ZM 0.961692 16.0458L 1.93478 26.7127L 2.93064 26.6219L 1.95756 15.955L 0.961692 16.0458ZM 2.90787 37.3797L 3.39441 42.7131L 4.39028 42.6223L 3.90373 37.2888L 2.90787 37.3797Z"/>
<path id="path31_stroke" d="M -0.497889 0.0458555L -0.117651 4.1752L 0.878136 4.08351L 0.497898 -0.0458386L -0.497889 0.0458555Z"/>
<path id="path32_stroke" d="M -0.497958 0.0450941L -0.124619 4.16755L 0.871306 4.07735L 0.497966 -0.0450992L -0.497958 0.0450941Z"/>
<path id="path33_stroke" d="M -0.497933 0.0454062L 0.0162652 5.68443L 1.01213 5.59362L 0.497935 -0.0454028L -0.497933 0.0454062ZM 1.04466 16.9625L 2.07306 28.2405L 3.06893 28.1497L 2.04053 16.8717L 1.04466 16.9625ZM 3.10146 39.5186L 3.61566 45.1576L 4.61152 45.0668L 4.09732 39.4277L 3.10146 39.5186Z"/>
<path id="path34_stroke" d="M -0.497892 0.0459197L -0.117633 4.16837L 0.87814 4.07652L 0.49788 -0.0459315L -0.497892 0.0459197Z"/>
<path id="path35_fill" d="M 3.45676 6.90536C 5.36587 6.90536 6.9135 5.35954 6.9135 3.45268C 6.9135 1.54582 5.36587 7.58644e-06 3.45676 7.58644e-06C 1.54764 7.58644e-06 0 1.54582 0 3.45268C 0 5.35954 1.54764 6.90536 3.45676 6.90536Z"/>
<path id="path36_fill" d="M 3.45675 6.90536C 5.36587 6.90536 6.91351 5.35954 6.91351 3.45268C 6.91351 1.54582 5.36587 7.58644e-06 3.45675 7.58644e-06C 1.54764 7.58644e-06 0 1.54582 0 3.45268C 0 5.35954 1.54764 6.90536 3.45675 6.90536Z"/>
<path id="path37_fill" d="M 3.45676 6.90535C 5.36588 6.90535 6.91352 5.35954 6.91352 3.45268C 6.91352 1.54582 5.36588 5.90057e-06 3.45676 5.90057e-06C 1.54765 5.90057e-06 6.75148e-06 1.54582 6.75148e-06 3.45268C 6.75148e-06 5.35954 1.54765 6.90535 3.45676 6.90535Z"/>
<path id="path38_fill" d="M 4.83945 9.66748C 7.51221 9.66748 9.67891 7.50334 9.67891 4.83374C 9.67891 2.16414 7.51221 0 4.83945 0C 2.16669 0 -8.43935e-06 2.16414 -8.43935e-06 4.83374C -8.43935e-06 7.50334 2.16669 9.66748 4.83945 9.66748Z"/>
<path id="path39_fill" d="M 4.83946 9.66748C 7.51222 9.66748 9.67892 7.50334 9.67892 4.83374C 9.67892 2.16413 7.51222 -7.58644e-06 4.83946 -7.58644e-06C 2.16671 -7.58644e-06 6.75148e-06 2.16413 6.75148e-06 4.83374C 6.75148e-06 7.50334 2.16671 9.66748 4.83946 9.66748Z"/>
<path id="path40_fill" d="M 3.45675 6.90535C 5.36586 6.90535 6.9135 5.35953 6.9135 3.45267C 6.9135 1.54581 5.36586 0 3.45675 0C 1.54763 0 -8.43935e-06 1.54581 -8.43935e-06 3.45267C -8.43935e-06 5.35953 1.54763 6.90535 3.45675 6.90535Z"/>
<path id="path41_fill" d="M 3.45676 6.90534C 5.36588 6.90534 6.91352 5.35953 6.91352 3.45267C 6.91352 1.54581 5.36588 -7.58644e-06 3.45676 -7.58644e-06C 1.54765 -7.58644e-06 6.75148e-06 1.54581 6.75148e-06 3.45267C 6.75148e-06 5.35953 1.54765 6.90534 3.45676 6.90534Z"/>
<path id="path42_fill" d="M 3.45677 6.90535C 5.36588 6.90535 6.91352 5.35954 6.91352 3.45268C 6.91352 1.54582 5.36588 5.05763e-06 3.45677 5.05763e-06C 1.54765 5.05763e-06 1.01272e-05 1.54582 1.01272e-05 3.45268C 1.01272e-05 5.35954 1.54765 6.90535 3.45677 6.90535Z"/>
<path id="path43_fill" d="M 6.75154e-06 0.032084L 0.0484069 0.190892C 0.580752 -0.106035 6.75154e-06 0.032084 6.75154e-06 0.032084Z"/>
<path id="path44_fill" d="M 41.5045 119.253L 52.7598 117.437L 51.2112 110.531L 51.2112 110.435L 51.1697 110.435L 43.1914 73.8367L 43.1914 47.1478C 43.1905 46.8087 43.1721 46.4699 43.1361 46.1327C 55.0552 30.3473 47.9757 5.57801 47.2843 3.41666C 47.1599 3.47881 46.9732 3.56168 46.7105 3.66526C 46.6241 2.69881 46.4411 1.74342 46.1643 0.813376C 46.1643 0.813376 42.7075 -1.3825 40.8201 1.44176C 39.1746 3.90694 40.3983 5.41228 40.7371 5.76445L 40.5021 5.84042C 41.0318 6.6719 41.4022 7.59445 41.5944 8.5611C 41.4852 8.323 41.3605 8.09233 41.2211 7.87057C 40.7855 7.79461 40.5297 7.72557 40.5297 7.72557L 40.4468 7.6496L 40.2117 7.72557C 41.4077 9.4726 41.8295 12.5593 41.7742 16.2191C 41.3611 15.6478 40.8984 15.114 40.3914 14.6239C 38.206 12.5389 35.3236 11.3382 32.3025 11.2542L 31.7287 11.2542C 31.4153 11.2542 31.1019 11.2749 30.7885 11.3163L 30.5534 11.3163L 30.1593 11.3716L 29.7099 11.4544L 29.385 11.5235L 28.825 11.6754L 28.6176 11.7375C 28.3826 11.8135 28.1544 11.8894 27.9263 11.9792C 27.1684 12.3476 26.3734 12.6346 25.5549 12.8355C 25.4443 12.8355 25.3336 12.8355 25.2161 12.87C 24.2919 12.9346 23.3744 12.6731 22.6235 12.1311L 22.3746 11.9378C 22.2805 11.8572 22.1905 11.772 22.105 11.6823C 22.0111 11.9215 21.971 12.1785 21.9875 12.435C 22.0393 13.0436 22.3301 13.6071 22.7964 14.0025C 22.9273 14.1157 23.0712 14.2131 23.225 14.2925C 23.4523 14.4115 23.7018 14.482 23.9578 14.4996L 24.2206 14.4996L 24.1584 14.4996C 23.9993 14.5756 23.8403 14.6446 23.6744 14.7068L 23.6398 14.7068C 23.4601 14.7689 23.2872 14.8242 23.1006 14.8725C 22.1946 15.1012 21.2476 15.1154 20.3351 14.9139L 20.0379 14.8449C 19.8927 14.8035 19.7406 14.762 19.6023 14.7137C 19.6478 14.8175 19.6985 14.9189 19.7544 15.0175L 19.8097 15.1073L 19.9342 15.3007L 20.0102 15.3973L 20.1485 15.57L 20.2314 15.6597L 20.4043 15.8324L 20.4734 15.8945L 20.7292 16.1086L 20.8191 16.1707L 21.0058 16.3019L 21.1302 16.3779L 21.2961 16.4745L 21.4344 16.5436L 21.6073 16.6195L 21.7524 16.6817L 21.946 16.7508L 22.188 16.8198L 22.3677 16.8681L 22.5406 16.8681L 22.6996 16.8681L 22.8793 16.8681L 23.5707 16.8681C 23.9275 16.8372 24.2774 16.751 24.6077 16.6127L 23.9717 16.8751L 23.6536 16.9855L 23.3287 17.1029L 23.0038 17.1996L 22.6719 17.2963L 22.347 17.3791L 22.0013 17.462L 21.6833 17.5241L 21.3169 17.5863L 21.0127 17.6346L 20.6186 17.683L 20.3351 17.683L 19.8858 17.683L 19.6507 17.683L 18.9593 17.683C 19.3415 17.7939 19.6968 17.9819 20.0033 18.2354C 20.2014 18.3784 20.4176 18.4945 20.6463 18.5807C 20.7484 18.6103 20.8523 18.6334 20.9574 18.6497L 21.0473 18.6497L 21.2685 18.6497L 22.2018 18.6497L 22.506 18.6497C 23.1365 18.7133 23.7466 18.9086 24.2966 19.2229C 24.588 19.4102 24.8472 19.6434 25.064 19.9134C 24.9672 20.0722 24.8704 20.2241 24.7875 20.3898C 24.7045 20.5556 24.6423 20.666 24.5732 20.8111C 24.4349 21.0965 24.3128 21.3888 24.2068 21.688C 23.8131 22.7608 23.6118 23.8945 23.6122 25.0371C 23.6122 25.2512 23.6122 25.4583 23.6122 25.6655C 23.6122 25.7207 23.6122 25.7829 23.6122 25.8381C 23.6122 26.0038 23.6306 26.1696 23.6675 26.3353L 23.6675 26.4665C 23.6951 26.669 23.732 26.8693 23.7781 27.0672L 23.7781 27.1846C 23.815 27.3504 23.8565 27.5138 23.9026 27.6749L 23.944 27.8199C 24.0603 28.2105 24.2011 28.5934 24.3658 28.9662L 24.4142 29.0767C 24.4925 29.247 24.5732 29.4127 24.6561 29.5739L 24.6561 29.6222C 24.7575 29.8063 24.8635 29.9882 24.9742 30.1677L 24.9742 30.2092C 25.0756 30.3749 25.1839 30.536 25.2991 30.6925L 25.3406 30.7478C 25.5889 31.0894 25.8591 31.4146 26.1495 31.7214C 26.9027 32.5139 27.7837 33.1745 28.7559 33.6756C 28.7227 33.8238 28.6973 33.9736 28.6798 34.1244C 28.6714 34.2808 28.6714 34.4376 28.6798 34.594L 28.6798 38.24C 28.4724 38.3505 28.2696 38.4679 28.0714 38.5922C 19.4087 34.663 6.50797 6.82787 6.50797 6.82787L 6.19687 6.82787C 7.45515 5.88875 6.19687 1.80083 6.19687 1.80083C 5.45831 1.36102 4.63248 1.08764 3.77712 0.999811L 3.08576 0.999811L 2.96132 0.999811L 2.87144 0.999811L 2.747 0.999811L 2.66402 0.999811L 2.52577 1.04124L 2.45663 1.04124L 2.24923 1.11721L 2.05565 1.20698L 1.98651 1.2415L 1.85515 1.31747L 1.76527 1.73868L 1.64083 1.82154L 1.56477 1.88369L 1.44725 1.98037L 1.37119 2.04943L 1.25367 2.15989L 1.18453 2.23586L 1.06699 2.37398L 1.01169 2.44301L 0.83885 2.67779C -1.04856 5.50205 0.83885 7.07647 0.83885 7.07647C 0.717329 8.16551 0.659618 9.26071 0.666011 10.3565C 0.527739 30.6994 22.3262 46.4642 23.4393 47.2514C 22.9485 48.5219 18.8971 59.7776 23.4877 73.8298C 23.5021 73.8642 23.5207 73.8966 23.543 73.9265C 18.316 78.7375 14.4365 84.8278 12.288 91.5951C 10.1394 98.3625 9.79617 105.573 11.2922 112.513L 11.3821 112.934L 11.5826 112.934C 11.562 113.028 11.5366 113.12 11.5065 113.211C 11.4531 113.377 11.3861 113.539 11.306 113.694C 11.1679 113.959 10.9985 114.208 10.8013 114.433C 10.587 114.681 10.3381 114.93 10.0754 115.185L 9.79884 115.448C 8.69958 116.498 7.5865 117.52 8.41613 117.934L 20.3144 117.934L 20.3144 112.748L 20.5218 112.748C 20.5218 112.748 20.4388 112.589 20.3144 112.278L 20.3144 112.223L 20.2729 112.223C 19.6507 110.621 18.1989 105.663 20.5218 98.0259C 23.3495 88.6002 34.349 83.8908 34.349 83.8908L 34.5494 84.5813L 34.508 84.5813L 43.1361 112.893C 43.1361 113.003 43.1361 113.114 43.1015 113.231C 43.0626 113.499 43.0001 113.762 42.9149 114.019C 42.8487 114.217 42.7702 114.41 42.6798 114.599C 42.1475 115.697 41.228 116.988 40.827 117.955C 40.7696 118.087 40.7211 118.223 40.6818 118.362C 40.6343 118.518 40.6179 118.683 40.6334 118.845C 40.6452 118.949 40.6858 119.047 40.7506 119.129C 40.8153 119.211 40.9017 119.273 40.9998 119.308L 41.1588 119.308L 41.4907 119.253L 41.5045 119.253ZM 38.1722 38.6474C 37.9555 38.5277 37.7251 38.4149 37.4808 38.309L 37.4808 34.884C 37.4789 34.6222 37.4535 34.361 37.4048 34.1037C 38.1498 33.7489 38.8467 33.3011 39.4788 32.771C 39.064 34.884 38.6008 36.9073 38.1791 38.6474L 38.1722 38.6474Z"/>
<path id="path45_fill" d="M 0.921814 6.47314C 0.921814 6.47314 -1.15226 4.73301 0.921814 1.59801C 2.99589 -1.53699 6.84676 0.907483 6.84676 0.907483C 6.84676 0.907483 8.22947 5.43044 6.84676 6.47314C 5.46404 7.51583 0.921814 6.47314 0.921814 6.47314Z"/>
<path id="path46_fill" d="M 13.4964 0L 3.89347 0C 3.92901 0.451798 3.86649 0.905955 3.71018 1.33141C 3.55388 1.75686 3.30747 2.14358 2.98779 2.46519C 1.69495 3.95673 -0.904547 5.75899 0.319157 6.37356L 13.4964 6.37356L 13.4964 0Z"/>
<path id="path47_fill" d="M 3.67915 2.46519C 3.99884 2.14358 4.24524 1.75686 4.40155 1.33141C 4.55785 0.905955 4.62037 0.451798 4.58483 0L 3.89347 0C 3.92902 0.451798 3.86649 0.905955 3.71019 1.33141C 3.55388 1.75686 3.30748 2.14358 2.98779 2.46519C 1.69496 3.95673 -0.904561 5.75899 0.319142 6.37356L 1.0105 6.37356C -0.213203 5.75899 2.38631 3.96364 3.67915 2.46519Z"/>
<path id="path48_fill" d="M 11.6691 1.01152e-05L 2.68143 1.45701C 2.92993 2.52595 2.78513 3.64851 2.27351 4.61964C 1.29178 6.69123 -0.913656 9.27379 0.413751 9.83312L 13.4251 7.76154L 11.6691 1.01152e-05Z"/>
<path id="path49_fill" d="M 11.9397 0.0242552C 11.9397 0.0242552 22.2203 32.4169 4.9778 50.3499L 1.01273e-05 46.5451C 1.01273e-05 46.5451 10.1906 11.1901 4.48692 2.88994C 14.5531 -0.459118 11.9397 0.0242552 11.9397 0.0242552Z"/>
<path id="path50_fill" d="M 0.921814 6.47313C 0.921814 6.47313 -1.15226 4.733 0.921814 1.598C 2.99589 -1.53699 6.84676 0.907476 6.84676 0.907476C 6.84676 0.907476 8.22947 5.43043 6.84676 6.47313C 5.46404 7.51583 0.921814 6.47313 0.921814 6.47313Z"/>
<path id="path51_fill" d="M 2.96486 4.66108C 3.47817 3.68799 3.62301 2.56266 3.37278 1.49154L 11.6691 0.110484L 11.6691 1.85444e-05L 2.68143 1.49154C 2.92993 2.56047 2.78513 3.68304 2.27351 4.65417C 1.29178 6.72575 -0.913656 9.30832 0.413751 9.86765L 0.959951 9.77787C -0.028691 9.08735 2.02462 6.60837 2.96486 4.66108Z"/>
<path id="path52_fill" d="M 9.75506 4.87513C 9.75506 2.18267 7.57132 2.52879e-06 4.87753 2.52879e-06C 2.18375 2.52879e-06 7.59549e-06 2.18267 7.59549e-06 4.87513L 7.59549e-06 9.56382C 7.59549e-06 12.2563 2.18375 14.4389 4.87753 14.4389C 7.57132 14.4389 9.75506 12.2563 9.75506 9.56382L 9.75506 4.87513Z"/>
<path id="path53_fill" d="M 1.04397 43.7449C 1.04397 43.7449 11.1101 8.82494 5.62767 0.241675C 5.14372 0.151907 4.8326 0.0828676 4.8326 0.0828676L 4.74272 7.58637e-06L 4.48692 0.0828676C 10.1906 8.3692 1.01273e-05 43.738 1.01273e-05 43.738L 4.9778 47.5428L 5.41331 47.0733L 1.04397 43.7449Z"/>
<path id="path54_fill" d="M 10.799 21.5721C 16.7631 21.5721 21.598 16.743 21.598 10.786C 21.598 4.82908 16.7631 7.58637e-06 10.799 7.58637e-06C 4.83489 7.58637e-06 9.28337e-06 4.82908 9.28337e-06 10.786C 9.28337e-06 16.743 4.83489 21.5721 10.799 21.5721Z"/>
<path id="path55_fill" d="M 6.97229 26.0812L 6.97229 21.3857C 6.97268 21.042 7.00979 20.6994 7.08293 20.3637C 4.97403 19.2819 3.28015 17.5369 2.26266 15.3982C 1.24518 13.2594 0.960612 10.8457 1.4529 8.52936C 1.94519 6.21304 3.18697 4.12289 4.98661 2.58142C 6.78626 1.03994 9.04375 0.13283 11.4108 8.12015e-06L 10.8024 8.12015e-06C 8.38006 -0.000752769 6.02773 0.811957 4.1236 2.30755C 2.21946 3.80314 0.874075 5.89475 0.30366 8.24618C -0.266754 10.5976 -0.029033 13.0723 0.978562 15.2725C 1.98616 17.4728 3.70513 19.2707 5.85921 20.3775C 5.78607 20.7132 5.74897 21.0558 5.74857 21.3995L 5.74857 26.095C 5.74228 26.7883 5.8854 27.4748 6.16818 28.108C 6.45096 28.7412 6.86682 29.3062 7.38751 29.7647C 7.90819 30.2232 8.52153 30.5644 9.1859 30.7653C 9.85028 30.9661 10.5501 31.0219 11.238 30.9287C 10.0587 30.7761 8.9755 30.1999 8.19052 29.3079C 7.40553 28.4158 6.9725 27.2689 6.97229 26.0812Z"/>
<path id="path56_fill" d="M 23.9978 40.3614C 23.9978 40.3614 3.16718 42.7091 2.39977 40.3614C -2.99974 23.8301 2.39977 10.7861 2.39977 10.7861C 2.39977 7.92541 3.53753 5.18194 5.56274 3.15916C 7.58795 1.13638 10.3347 7.58637e-06 13.1988 7.58637e-06C 16.0629 7.58637e-06 18.8096 1.13638 20.8349 3.15916C 22.8601 5.18194 23.9978 7.92541 23.9978 10.7861L 23.9978 40.3614Z"/>
<path id="path57_fill" d="M 36.3069 -5.05758e-06L 45.7163 43.1511L 36.3069 43.1511L 26.5518 11.1382C 26.5518 11.1382 14.3563 16.3586 11.2244 26.7994C 8.09257 37.2402 11.2244 43.1511 11.2244 43.1511L 1.11677 43.1511L 1.01305 42.6815C -0.64971 34.993 -0.260329 27.003 2.14216 19.5121C 4.54466 12.0212 8.87588 5.29247 14.7019 -5.05758e-06"/>
<path id="path58_fill" d="M 3.7894 40.3406C -1.6101 23.8094 3.7894 10.7653 3.7894 10.7653C 3.78893 8.02511 4.83271 5.38743 6.70873 3.38797C 8.58475 1.38851 11.1524 0.177192 13.8901 6.74344e-06C 13.662 6.74344e-06 13.4269 6.74344e-06 13.1988 6.74344e-06C 10.3347 6.74344e-06 7.58795 1.13638 5.56274 3.15916C 3.53753 5.18193 2.39977 7.92541 2.39977 10.786C 2.39977 10.786 -2.99974 23.837 2.39977 40.3614C 2.67631 41.2038 5.52472 41.4386 9.06447 41.404C 6.18842 41.3419 4.01064 41.0657 3.7894 40.3406Z"/>
<path id="path59_fill" d="M 25.2783 44.1938C 25.2783 44.1938 -2.59035 24.7071 0.195818 -2.52879e-06L 6.46642 -2.52879e-06C 6.46642 -2.52879e-06 21.4412 32.3927 31.0373 35.5C 40.6333 38.6074 25.2783 44.1938 25.2783 44.1938Z"/>
<path id="path60_fill" d="M -1.68789e-06 0.58693L 9.57529 32.0129L 10.958 32.0129L 1.20295 -1.68586e-06C 1.20295 -1.68586e-06 0.753579 0.193329 -1.68789e-06 0.58693Z"/>
<path id="path61_fill" d="M 16.0847 -5.05758e-06L 14.7019 -5.05758e-06C 8.8759 5.29247 4.54465 12.0212 2.14216 19.5121C -0.260336 27.003 -0.649697 34.993 1.01307 42.6815L 1.11677 43.1511L 2.49948 43.1511L 2.39578 42.6815C 0.733019 34.993 1.12238 27.003 3.52487 19.5121C 5.92736 12.0212 10.2586 5.29247 16.0847 -5.05758e-06Z"/>
<path id="path62_fill" d="M 1.23707 4.21465e-06L 0.193139 4.21465e-06C -2.57229 24.7071 25.2756 44.1938 25.2756 44.1938L 25.9669 43.9314C 22.7383 41.5491 -1.36934 23.0636 1.23707 4.21465e-06Z"/>
<path id="path63_fill" d="M 7.31458 10.7627C 7.91664 12.1514 8.33946 13.6109 8.57286 15.1061C 9.26421 18.1306 10.8267 21.1482 13.516 22.7019C 15.0056 23.5089 16.662 23.9604 18.3555 24.0208C 20.9274 24.1796 23.7136 23.6825 25.5318 21.8595C 26.6643 20.6245 27.4241 19.0948 27.7234 17.447C 28.2675 15.0127 28.1925 12.4811 27.5053 10.0832C 26.8182 7.68533 25.5407 5.49746 23.7896 3.7193C 21.9917 1.98511 19.74 0.793442 17.2937 0.281558C 14.8474 -0.230325 12.3061 -0.0416014 9.96245 0.825985C 9.12516 1.23511 8.24686 1.55453 7.34222 1.77892C 6.64963 1.88972 5.94048 1.8321 5.27494 1.61092C 4.60939 1.38974 4.00709 1.01152 3.51903 0.508349C 3.4069 0.870872 3.38203 1.25472 3.44649 1.62864C 3.51095 2.00257 3.66292 2.35601 3.88999 2.6602C 4.11705 2.96439 4.41281 3.21074 4.75321 3.37918C 5.09361 3.54762 5.46904 3.63339 5.8489 3.62953C 5.04984 4.01268 4.18281 4.23434 3.29771 4.28174C 2.4126 4.32915 1.52686 4.20137 0.691358 3.90576C 1.16492 4.90217 1.99812 5.68292 3.02389 6.09145C 4.04966 6.49998 5.19214 6.50608 6.22222 6.10852C 4.26523 6.97861 2.14187 7.41221 0 7.37911C 0.449383 7.37911 1.3274 8.20774 1.87357 8.37347C 2.55936 8.48227 3.2534 8.53079 3.94767 8.51848C 4.65736 8.56206 5.3428 8.7927 5.93423 9.18692C 6.52565 9.58113 7.00194 10.1248 7.31458 10.7627Z"/>
<path id="path64_fill" d="M 2.55802 3.12119C 1.75776 3.50827 0.88797 3.73133 -8.43943e-06 3.7772C 1.12333 3.83475 2.24313 3.60915 3.2563 3.12119C 2.91827 3.12321 2.58352 3.05506 2.27324 2.92107C 1.96295 2.78709 1.6839 2.59019 1.45381 2.34285C 1.22372 2.0955 1.04758 1.80312 0.936557 1.48422C 0.825539 1.16531 0.782049 0.826844 0.808869 0.490276C 0.600524 0.345142 0.406134 0.18102 0.228152 7.58637e-06C 0.116016 0.362531 0.0911539 0.746375 0.155615 1.1203C 0.220075 1.49423 0.372038 1.84767 0.599107 2.15186C 0.826175 2.45605 1.12193 2.7024 1.46233 2.87084C 1.80274 3.03928 2.17816 3.12505 2.55802 3.12119Z"/>
<path id="path65_fill" d="M 1.06467 1.79488C 1.96931 1.5705 2.84765 1.25107 3.68495 0.841948C 5.00729 0.320527 6.41178 0.0376338 7.83309 0.00641521C 6.17978 -0.0472918 4.53292 0.237032 2.99359 0.841948C 2.15629 1.25107 1.27796 1.5705 0.373315 1.79488C 0.24887 1.79488 0.124441 1.79488 -3.37577e-06 1.83631C 0.355201 1.86827 0.713035 1.85435 1.06467 1.79488Z"/>
<path id="path66_fill" d="M 2.56493 2.26493C 2.01875 2.10611 1.14073 1.28438 0.691352 1.27057C 2.83322 1.30367 4.9566 0.870083 6.91359 -3.37172e-06C 6.47449 0.180865 6.00573 0.279197 5.53088 0.290028C 3.76719 0.967813 1.88949 1.30069 -5.9076e-06 1.27057C 0.449377 1.27057 1.32742 2.0992 1.87359 2.26493C 2.34833 2.38017 2.83833 2.4198 3.32545 2.38233C 3.06798 2.37566 2.81239 2.3362 2.56493 2.26493Z"/>
<path id="path67_fill" d="M 15.4864 15.5079C 13.7929 15.4474 12.1365 14.996 10.6469 14.1889C 7.95754 12.6214 6.42271 9.60384 5.7037 6.59313C 5.4703 5.09791 5.04748 3.63839 4.44542 2.24971C 4.1275 1.60856 3.644 1.06382 3.04481 0.671723C 2.44563 0.279626 1.7525 0.0544029 1.03703 0.0193163C 0.691834 -0.00643427 0.345193 -0.00643427 -5.06366e-06 0.0193163L 0.338754 0.0193163C 1.05422 0.0544029 1.74735 0.279626 2.34654 0.671723C 2.94572 1.06382 3.42923 1.60856 3.74714 2.24971C 4.34921 3.63839 4.77203 5.09791 5.00542 6.59313C 5.69678 9.61765 7.25926 12.6353 9.94865 14.1889C 11.4382 14.996 13.0947 15.4474 14.7882 15.5079C 15.1891 15.5079 15.5901 15.5079 15.998 15.5079L 15.4864 15.5079Z"/>
<path id="path68_fill" d="M 4.34865 2.4859C 3.6172 2.4331 2.91045 2.19897 2.29239 1.80471C 1.67433 1.41045 1.16446 0.8685 0.808883 0.227882C 0.534576 0.169587 0.264383 0.093455 5.9076e-06 -4.21465e-06C 0.386788 0.806057 1.0099 1.47555 1.78661 1.91956C 2.56332 2.36356 3.4569 2.56108 4.34865 2.4859Z"/>
<path id="path69_fill" d="M 1.61318 6.47957C 1.61318 6.47957 -0.460895 4.73944 1.61318 1.60445C 1.88868 1.15579 2.26656 0.778629 2.71596 0.503793C 3.16536 0.228957 3.67351 0.064246 4.19885 0.0231336C 3.55859 -0.0520397 2.91014 0.0568313 2.32967 0.336935C 1.74919 0.617039 1.2608 1.05675 0.921821 1.60445C -1.15225 4.73944 0.921821 6.47957 0.921821 6.47957C 2.26765 6.78053 3.64242 6.93336 5.02157 6.93532C 3.87471 6.87845 2.73463 6.726 1.61318 6.47957Z"/>
<path id="path70_fill" d="M 0.275161 0.215627L 0.330471 0.0291923C 0.330471 0.0291923 -0.374715 -0.108921 0.275161 0.215627Z"/>
<path id="path71_fill" d="M 79.7827 15.6903C 79.7161 15.4702 79.6329 15.2555 79.5338 15.0481C 79.5338 14.979 79.4647 14.9238 79.4301 14.8616C 79.3674 14.7383 79.2982 14.6185 79.2227 14.5025L 79.0844 14.323C 79.013 14.2295 78.9368 14.1396 78.8563 14.0537L 78.6973 13.8949C 78.6143 13.8189 78.5313 13.7499 78.4484 13.6877L 78.2755 13.5634L 77.999 13.3977L 77.8262 13.3079L 77.5151 13.1767L 77.356 13.1146C 77.2085 13.0639 77.0588 13.0225 76.9067 12.9903C 75.9007 12.8003 74.8656 12.8286 73.8716 13.0731C 73.8716 13.0731 70.9748 17.3406 72.0879 18.8736L 71.7215 18.7631C 71.7215 18.7631 50.1995 42.752 38.0593 47.206C 37.7505 46.9942 37.4301 46.7962 37.0983 46.6121L 37.0983 42.1237C 37.1084 41.935 37.1084 41.746 37.0983 41.5574C 37.0775 41.3788 37.0475 41.2013 37.0084 41.0257L 37.0983 40.9774L 37.4578 40.7771L 37.9763 40.4595L 38.3082 40.2454C 38.557 40.0751 38.7875 39.8956 38.9995 39.7068L 39.2691 39.472C 39.4351 39.3339 39.5941 39.1889 39.7462 39.037L 40.0227 38.7677C 40.2163 38.5697 40.4007 38.3672 40.5758 38.16L 40.7694 37.9253C 40.9353 37.7181 41.0943 37.5063 41.2464 37.29L 41.44 37C 41.5783 36.7882 41.7096 36.5718 41.8341 36.3509L 41.9585 36.1368C 42.1106 35.8537 42.2558 35.5567 42.3802 35.2529L 42.4909 34.9836C 42.5876 34.7396 42.6775 34.4933 42.7605 34.2447C 42.7605 34.155 42.8227 34.0721 42.8435 33.9823C 42.9402 33.6578 43.0301 33.3332 43.0993 32.9949C 43.0993 32.9258 43.0993 32.8637 43.1338 32.7946C 43.1891 32.5138 43.2329 32.2284 43.2652 31.9384C 43.2652 31.8417 43.2652 31.745 43.2652 31.6484C 43.2652 31.2962 43.3205 30.9578 43.3205 30.578C 43.3208 27.8912 42.3984 25.2857 40.7072 23.1963C 41.6267 21.76 42.2281 20.9106 42.2281 20.9106C 41.6751 20.5308 41.1289 20.1856 40.5896 19.8472L 40.0642 19.5365C 39.7047 19.3224 39.3728 19.1084 38.9857 18.915L 38.3842 18.5974C 38.0593 18.4247 37.7412 18.259 37.4232 18.1071L 36.8079 17.824L 35.8884 17.4235L 35.2869 17.1818C 34.9827 17.0644 34.6785 16.9539 34.3812 16.8503L 33.8143 16.657C 33.5032 16.5603 33.1921 16.4706 32.8879 16.3877L 32.3832 16.2496C 32.0375 16.1667 31.6918 16.0977 31.3531 16.0286L 30.9867 15.9527C 30.5235 15.8698 30.0672 15.8077 29.6039 15.7662C 26.775 15.4634 23.9158 15.9013 21.3076 17.0368C 21.4459 13.7361 21.999 11.0154 23.1605 9.3305L 22.877 9.23381L 22.7802 9.3305C 22.7802 9.3305 22.4415 9.40645 21.9091 9.50313C 21.7411 9.77149 21.591 10.0506 21.4597 10.3387C 21.6921 9.17074 22.1399 8.05615 22.7802 7.05174L 22.4968 6.95508C 22.9047 6.53386 24.3842 4.71778 22.4 1.7416C 20.1185 -1.66961 15.9427 0.982016 15.9427 0.982016C 15.6117 2.10845 15.394 3.26505 15.2928 4.43466C 14.9748 4.30346 14.7467 4.20678 14.6015 4.13082C 12.601 11.1816 11.5113 18.4589 11.359 25.7858C 3.83012 36.4613 0.719017 52.2192 0.110622 55.6166L 0.0622218 55.8859C 0.0207403 56.1345 2.10986e-06 56.2657 2.10986e-06 56.2657L 19.5723 56.7214C 19.5723 56.7905 19.5723 56.8526 19.5723 56.9217L 19.5723 87.878L 5.32346 117.978C 5.32346 117.978 10.7437 118.151 18.9017 119.193L 16.6479 135.29L 15.8943 139.806L 29.4588 139.806C 30.9659 136.795 23.4301 135.29 23.4301 135.29L 23.2642 135.29L 26.2025 120.271C 27.5022 120.487 28.8388 120.717 30.2123 120.961C 32.2261 121.35 34.2672 121.581 36.317 121.652C 38.014 121.711 39.7131 121.637 41.3985 121.431C 42.3941 129.572 41.0874 134.433 40.8385 135.241L 40.7625 135.241L 40.0089 139.757L 53.5733 139.757C 54.8869 137.133 49.3284 135.649 47.8834 135.317L 47.9457 134.875C 48.6434 129.797 48.8217 124.66 48.478 119.546C 50.2284 118.837 51.8603 117.866 53.3175 116.666L 53.5042 116.5L 53.5595 116.445L 43.4588 88.1335C 45.3462 80.1234 38.7783 71.7128 42.2835 67.5075C 45.7886 63.3022 43.6662 57.9368 43.2514 57.0183C 52.7368 52.8752 71.9081 42.5173 77.2869 24.5635C 77.682 23.3012 78.0028 22.017 78.2479 20.7173C 78.2479 20.7173 80.958 19.6194 79.7827 15.6903Z"/>
<path id="path72_fill" d="M 3.04116 0.0242552C 3.04116 0.0242552 -7.23934 32.4169 10.0031 50.3499L 14.9809 46.5451C 14.9809 46.5451 4.79029 11.1901 10.494 2.88994C 0.427824 -0.459118 3.04116 0.0242552 3.04116 0.0242552Z"/>
<path id="path73_fill" d="M 6.53948 6.47313C 6.53948 6.47313 8.61355 4.733 6.53948 1.598C 4.4654 -1.53699 0.614536 0.907476 0.614536 0.907476C 0.614536 0.907476 -0.76818 5.43043 0.614536 6.47313C 1.99725 7.51583 6.53948 6.47313 6.53948 6.47313Z"/>
<path id="path74_fill" d="M 9.75506 4.87514C 9.75506 2.18268 7.57132 1.01152e-05 4.87753 1.01152e-05C 2.18375 1.01152e-05 -4.21971e-06 2.18268 -4.21971e-06 4.87514L -4.21971e-06 9.5638C -4.21971e-06 12.2563 2.18375 14.4389 4.87753 14.4389C 7.57132 14.4389 9.75506 12.2563 9.75506 9.5638L 9.75506 4.87514Z"/>
<path id="path75_fill" d="M 6.21828 43.7449C 6.21828 43.7449 -3.84788 8.82494 1.63459 0.241675C 2.11854 0.151907 2.42964 0.0828676 2.42964 0.0828676L 2.51952 7.58637e-06L 2.77532 0.0828676C -2.92838 8.3692 7.26224 43.738 7.26224 43.738L 2.28445 47.5428L 1.84891 47.0733L 6.21828 43.7449Z"/>
<path id="path76_fill" d="M 10.799 21.5721C 16.7631 21.5721 21.598 16.743 21.598 10.786C 21.598 4.82908 16.7631 7.58637e-06 10.799 7.58637e-06C 4.83488 7.58637e-06 0 4.82908 0 10.786C 0 16.743 4.83488 21.5721 10.799 21.5721Z"/>
<path id="path77_fill" d="M 4.43852 26.0812L 4.43852 21.3857C 4.43812 21.042 4.40103 20.6994 4.3279 20.3637C 6.43679 19.2819 8.13067 17.5369 9.14815 15.3982C 10.1656 13.2594 10.4502 10.8457 9.95789 8.52936C 9.4656 6.21304 8.22384 4.12289 6.4242 2.58142C 4.62455 1.03994 2.36704 0.13283 1.26591e-06 8.12015e-06L 0.6084 8.12015e-06C 3.03077 -0.000752769 5.38306 0.811957 7.28719 2.30755C 9.19133 3.80314 10.5367 5.89475 11.1071 8.24618C 11.6775 10.5976 11.4399 13.0723 10.4323 15.2725C 9.42467 17.4728 7.70569 19.2707 5.5516 20.3775C 5.62474 20.7132 5.66183 21.0558 5.66222 21.3995L 5.66222 26.095C 5.66852 26.7883 5.52541 27.4748 5.24263 28.108C 4.95985 28.7412 4.544 29.3062 4.02332 29.7647C 3.50263 30.2232 2.88929 30.5644 2.22492 30.7653C 1.56054 30.9661 0.860691 31.0219 0.172841 30.9287C 1.35204 30.7761 2.43529 30.1999 3.22028 29.3079C 4.00526 28.4158 4.4383 27.2689 4.43852 26.0812Z"/>
<path id="path78_fill" d="M 1.26591e-06 40.3614C 1.26591e-06 40.3614 20.8306 42.7091 21.598 40.3614C 24.0869 32.7655 17.4499 24.5552 20.7684 20.5432C 24.2252 16.4 21.598 10.7861 21.598 10.7861C 21.598 7.92541 20.4603 5.18194 18.4351 3.15916C 16.4099 1.13638 13.6631 7.58637e-06 10.799 7.58637e-06C 7.93493 7.58637e-06 5.18817 1.13638 3.16296 3.15916C 1.13775 5.18194 1.26591e-06 7.92541 1.26591e-06 10.7861L 1.26591e-06 40.3614Z"/>
<path id="path79_fill" d="M 10.6607 20.5432C 14.1175 16.4 11.4904 10.786 11.4904 10.786C 11.4904 7.92541 10.3526 5.18194 8.32741 3.15916C 6.3022 1.13638 3.55544 7.58637e-06 0.691362 7.58637e-06C 0.4563 7.58637e-06 0.228152 -8.43753e-07 3.79774e-06 0.0345256C 2.73722 0.208263 5.30551 1.41641 7.18296 3.41345C 9.06041 5.4105 10.1061 8.04661 10.1077 10.786C 10.1077 10.786 12.7348 16.4 9.27803 20.5432C 5.93185 24.5552 12.5965 32.7586 10.1077 40.3613C 9.87259 41.0864 7.72247 41.3626 4.86716 41.4041C 8.38617 41.4386 11.2207 41.2038 11.4904 40.3613C 14.0069 32.7517 7.31457 24.5552 10.6607 20.5432Z"/>
<path id="path80_fill" d="M 19.9111 -5.05758e-06C 27.516 10.7653 30.883 27.0342 28.7052 42.6815L 28.643 43.1511L 22.1511 43.1511C 22.1511 43.1511 24.163 37.2333 22.1511 26.7994C 20.918 20.544 17.4112 14.9655 12.3062 11.1382L 6.04246 43.1511L 3.37577e-06 43.1511L 6.04246 -5.05758e-06L 19.9111 -5.05758e-06Z"/>
<path id="path81_fill" d="M 5.89922 7.25387C 5.89922 7.25387 8.40883 6.20427 7.33031 2.59281C 6.25179 -1.01865 1.86859 0.196679 1.86859 0.196679C 1.86859 0.196679 -0.793129 4.11197 0.236994 5.52064C 1.26712 6.92932 5.89922 7.25387 5.89922 7.25387Z"/>
<path id="path82_fill" d="M 6.7454 36.7499C 6.7454 36.7499 39.1079 26.2746 43.6916 1.8368L 37.6975 -4.21465e-06C 37.6975 -4.21465e-06 13.8802 26.5577 3.82096 26.7441C -6.2383 26.9306 6.7454 36.7499 6.7454 36.7499Z"/>
<path id="path83_fill" d="M 36.5175 4.21465e-06L 37.52 0.303838C 32.9363 24.7416 0.573829 35.2169 0.573829 35.2169L 8.43943e-07 34.7681C 3.82321 33.4423 32.2449 22.7943 36.5175 4.21465e-06Z"/>
<path id="path84_fill" d="M 6.2637 -1.68586e-06L 4.21971e-07 32.0129L 1.38272 32.0129L 7.46667 0.939106C 7.08195 0.605812 6.68044 0.292374 6.2637 -1.68586e-06Z"/>
<path id="path85_fill" d="M 1.38271 -5.05758e-06L -5.06366e-06 -5.05758e-06C 7.60493 10.7653 10.9718 27.0342 8.79407 42.6815L 8.73185 43.1511L 10.1146 43.1511L 10.1768 42.6815C 12.3546 27.0342 9.00148 10.7653 1.38271 -5.05758e-06Z"/>
<path id="path86_fill" d="M 3.38766 6.9329C 3.38766 6.9329 5.89728 5.8833 4.81876 2.27184C 4.68776 1.76201 4.43781 1.29038 4.08934 0.895522C 3.74087 0.500668 3.30379 0.193795 2.81382 -5.90051e-06C 3.44806 0.115701 4.03607 0.409769 4.50878 0.847665C 4.98149 1.28556 5.31929 1.84911 5.48248 2.4721C 6.561 6.07665 4.05136 7.13316 4.05136 7.13316C 2.67721 7.02835 1.31866 6.77363 -7.59549e-06 6.37357C 1.11168 6.65375 2.24484 6.84084 3.38766 6.9329Z"/>
<path id="path87_fill" d="M 13.1358 -1.34869e-05L 1.26591e-06 27.6211C 7.66068 28.0028 15.2847 28.9258 22.8148 30.3832C 37.3333 33.1453 44.2469 26.24 44.2469 26.24L 34.879 -1.34869e-05L 13.1358 -1.34869e-05Z"/>
<path id="path88_fill" d="M 6.91358 -1.34869e-05C 6.91358 -1.34869e-05 13.8272 1.38104 12.4444 4.14315L -3.37577e-06 4.14315L 0.691355 -1.34869e-05L 6.91358 -1.34869e-05Z"/>
<path id="path89_fill" d="M 38.716 4.79103C 38.716 4.79103 22.1235 28.269 29.7284 37.9364L -3.37577e-06 37.2458C -3.37577e-06 37.2458 8.29629 -15.9248 38.716 4.79103Z"/>
<path id="path90_fill" d="M 38.716 4.70941C 34.4296 1.78848 30.5857 0.338361 27.1358 2.52879e-06C 30.0362 0.910061 32.7769 2.26595 35.2593 4.01888C 35.2593 4.01888 18.6667 27.4968 26.2716 37.1642L 0.103707 36.5566C 0.0345708 36.9502 -3.37577e-06 37.1642 -3.37577e-06 37.1642L 29.7284 37.8547C 22.1235 28.1874 38.716 4.70941 38.716 4.70941Z"/>
<path id="path91_fill" d="M 6.4642 -1.34869e-05L 4.39012 -1.34869e-05L 13.758 26.24C 13.758 26.24 9.29185 30.694 -2.9538e-06 31.0116C 10.6953 31.3569 15.8321 26.24 15.8321 26.24L 6.4642 -1.34869e-05Z"/>
<path id="path92_fill" d="M 1.38271 -1.34869e-05L -3.37577e-06 -1.34869e-05C -3.37577e-06 -1.34869e-05 6.91358 1.38104 5.53086 4.14315L 6.91358 4.14315C 8.29629 1.38104 1.38271 -1.34869e-05 1.38271 -1.34869e-05Z"/>
<path id="path93_fill" d="M 264.79 -5.05758e-06L -3.37577e-06 -5.05758e-06L -3.37577e-06 10.0127L 264.79 10.0127L 264.79 -5.05758e-06Z"/>
<path id="path94_fill" d="M 275.16 2.10732e-06L 0 2.10732e-06L 0 342.502L 275.16 342.502L 275.16 2.10732e-06Z"/>
<path id="path95_fill" d="M 264.79 -5.05758e-06L -3.37577e-06 -5.05758e-06L -3.37577e-06 317.298L 264.79 317.298L 264.79 -5.05758e-06Z"/>
<path id="path96_fill" d="M 2.41975 4.83369C 3.75615 4.83369 4.83951 3.75163 4.83951 2.41684C 4.83951 1.08205 3.75615 -5.05758e-06 2.41975 -5.05758e-06C 1.08336 -5.05758e-06 0 1.08205 0 2.41684C 0 3.75163 1.08336 4.83369 2.41975 4.83369Z"/>
<path id="path97_fill" d="M 2.41975 4.83369C 3.75614 4.83369 4.8395 3.75163 4.8395 2.41684C 4.8395 1.08205 3.75614 -5.05758e-06 2.41975 -5.05758e-06C 1.08336 -5.05758e-06 -3.37577e-06 1.08205 -3.37577e-06 2.41684C -3.37577e-06 3.75163 1.08336 4.83369 2.41975 4.83369Z"/>
<path id="path98_fill" d="M 232.296 -5.05758e-06L -3.37577e-06 -5.05758e-06L -3.37577e-06 6.21475L 232.296 6.21475L 232.296 -5.05758e-06Z"/>
<path id="path99_fill" d="M 100.247 -5.05758e-06L -3.37577e-06 -5.05758e-06L -3.37577e-06 106.341L 100.247 106.341L 100.247 -5.05758e-06Z"/>
<path id="path100_fill" d="M 96.0988 -5.05758e-06L -3.37577e-06 -5.05758e-06L -3.37577e-06 99.436L 96.0988 99.436L 96.0988 -5.05758e-06Z"/>
<path id="path101_fill" d="M 235.753 -5.05758e-06L -3.37577e-06 -5.05758e-06L -3.37577e-06 73.196L 235.753 73.196L 235.753 -5.05758e-06Z"/>
<path id="path102_fill" d="M 226.765 -5.05758e-06L -3.37577e-06 -5.05758e-06L -3.37577e-06 65.6001L 226.765 65.6001L 226.765 -5.05758e-06Z"/>
<path id="path103_fill" d="M 5.53086 6.21475L 226.765 6.21475L 226.765 -5.05758e-06L -3.37577e-06 -5.05758e-06L -3.37577e-06 65.6001L 5.53086 65.6001L 5.53086 6.21475Z"/>
<path id="path104_fill" d="M 75.358 14.8912C 68.8008 7.27853 59.7729 2.21038 49.8531 0.573009C 39.9333 -1.06436 29.7529 0.833248 21.0921 5.93404C 12.4313 11.0348 5.84135 19.0142 2.47458 28.4767C -0.89218 37.9392 -0.821469 48.2827 2.67435 57.6984C 6.17016 67.1142 12.8686 75.0029 21.5983 79.9851C 30.328 84.9673 40.5334 86.7259 50.4299 84.9534C 60.3264 83.1809 69.2842 77.99 75.7367 70.2886C 82.1893 62.5872 85.726 52.8654 85.7284 42.8231C 85.7407 32.571 82.0598 22.6566 75.358 14.8912ZM 58.0741 68.3864C 52.4318 71.7257 45.8423 73.1077 39.3318 72.3171C 32.8213 71.5266 26.7552 68.6078 22.0783 64.0155C 17.4014 59.4233 14.3762 53.4151 13.4739 46.9269C 12.5715 40.4386 13.8425 33.8344 17.0891 28.1428C 20.3357 22.4511 25.3756 17.9915 31.4239 15.4585C 37.4722 12.9255 44.1893 12.4612 50.5292 14.138C 56.8692 15.8148 62.476 19.5385 66.4766 24.7292C 70.4772 29.92 72.6469 36.2863 72.6479 42.8369C 72.6639 47.9934 71.3291 53.0644 68.7762 57.5464C 66.2232 62.0284 62.5409 65.7654 58.0948 68.3864L 58.0741 68.3864Z"/>
<path id="path105_fill" d="M 21.4667 22.2765L 30.9037 14.1628C 27.0801 9.71548 22.3384 6.14709 17.0041 3.70244C 11.6698 1.25779 5.86905 -0.00524464 -3.37577e-06 1.89128e-05L -3.37577e-06 12.4295C 4.07729 12.4284 8.10664 13.3078 11.8119 15.0074C 15.5171 16.707 18.8106 19.1867 21.4667 22.2765Z"/>
<path id="path106_fill" d="M 16.8346 3.97053C 12.7986 3.97265 8.80923 3.1084 5.1368 1.43631L 1.35031e-05 12.7679C 5.98232 15.4778 12.5314 16.7046 19.0903 16.3439C 25.6491 15.9832 32.0238 14.0458 37.6721 10.6963L 31.3116 -4.21465e-06C 26.9345 2.60733 21.931 3.97959 16.8346 3.97053Z"/>
<path id="path107_fill" d="M 26.3131 26.5784C 26.3254 16.8196 22.8155 7.38345 16.4267 2.52879e-06L 6.98962 8.11371C 9.69939 11.2427 11.6884 14.9277 12.8161 18.9086C 13.9438 22.8895 14.1828 27.069 13.5162 31.1522C 12.8496 35.2354 11.2936 39.1227 8.95811 42.5395C 6.62264 45.9563 3.56462 48.8193 -1.68789e-06 50.9264L 6.3605 61.6227C 12.4441 58.0119 17.4825 52.8825 20.9808 46.7383C 24.479 40.5941 26.3166 33.6466 26.3131 26.5784Z"/>
<path id="path108_fill" d="M 12.4432 40.7411C 12.4432 33.2324 15.4296 26.0313 20.7455 20.7218C 26.0613 15.4123 33.2712 12.4295 40.7889 12.4295L 40.7889 -4.21465e-06C 31.4667 0.000287088 22.4258 3.18989 15.1716 9.03776C 7.91737 14.8856 2.88749 23.0389 0.919428 32.1401C -1.04864 41.2412 0.163844 50.7411 4.35504 59.058C 8.54623 67.3749 15.4632 74.0071 23.9543 77.8501L 29.0911 66.5186C 24.13 64.2735 19.9214 60.6484 16.969 56.077C 14.0166 51.5055 12.4453 46.1812 12.4432 40.7411Z"/>
<path id="path109_fill" d="M 73.2839 -5.05758e-06L -3.37577e-06 -5.05758e-06L -3.37577e-06 12.4295L 73.2839 12.4295L 73.2839 -5.05758e-06Z"/>
<path id="path110_fill" d="M 71.9012 -5.05758e-06L -3.37577e-06 -5.05758e-06L -3.37577e-06 11.0484L 71.9012 11.0484L 71.9012 -5.05758e-06Z"/>
<path id="path111_fill" d="M 52.5432 -5.05758e-06L -3.37577e-06 -5.05758e-06L -3.37577e-06 11.0484L 52.5432 11.0484L 52.5432 -5.05758e-06Z"/>
<path id="path112_fill" d="M 35.9506 -5.05758e-06L -3.37577e-06 -5.05758e-06L -3.37577e-06 11.0484L 35.9506 11.0484L 35.9506 -5.05758e-06Z"/>
<path id="path113_fill" d="M 64.9876 -5.05758e-06L -3.37577e-06 -5.05758e-06L -3.37577e-06 11.0484L 64.9876 11.0484L 64.9876 -5.05758e-06Z"/>
<path id="path114_fill" d="M 103.012 -5.05758e-06L -3.37577e-06 -5.05758e-06L -3.37577e-06 6.21475L 103.012 6.21475L 103.012 -5.05758e-06Z"/>
<path id="path115_fill" d="M 58.0741 -5.05758e-06L -3.37577e-06 -5.05758e-06L -3.37577e-06 6.21475L 58.0741 6.21475L 58.0741 -5.05758e-06Z"/>
<path id="path116_fill" d="M 20.0494 -5.05758e-06L -3.37577e-06 -5.05758e-06L -3.37577e-06 6.21475L 20.0494 6.21475L 20.0494 -5.05758e-06Z"/>
<path id="path117_fill" d="M 7.60493 15.1916C 11.805 15.1916 15.2099 11.7909 15.2099 7.5958C 15.2099 3.40075 11.805 -5.05758e-06 7.60493 -5.05758e-06C 3.40484 -5.05758e-06 -3.37577e-06 3.40075 -3.37577e-06 7.5958C -3.37577e-06 11.7909 3.40484 15.1916 7.60493 15.1916Z"/>
<path id="path118_fill" d="M 5.53086 11.0484C 8.58547 11.0484 11.0617 8.57516 11.0617 5.52422C 11.0617 2.47327 8.58547 -5.05758e-06 5.53086 -5.05758e-06C 2.47625 -5.05758e-06 -3.37577e-06 2.47327 -3.37577e-06 5.52422C -3.37577e-06 8.57516 2.47625 11.0484 5.53086 11.0484Z"/>
<path id="path119_fill" d="M 237.827 -5.05758e-06L -3.37577e-06 -5.05758e-06L -3.37577e-06 83.5539L 237.827 83.5539L 237.827 -5.05758e-06Z"/>
<path id="path120_stroke" d="M -3.37577e-06 1.49999L 210.173 1.49999L 210.173 -1.50001L -3.37577e-06 -1.50001L -3.37577e-06 1.49999Z"/>
<path id="path121_fill" d="M 31.1111 -5.05758e-06L -3.37577e-06 -5.05758e-06L -3.37577e-06 37.979L 31.1111 37.979L 31.1111 -5.05758e-06Z"/>
<path id="path122_fill" d="M 27.6543 -5.05758e-06L -3.37577e-06 -5.05758e-06L -3.37577e-06 35.2169L 27.6543 35.2169L 27.6543 -5.05758e-06Z"/>
<path id="path123_fill" d="M 27.6543 -5.05758e-06L -3.37577e-06 -5.05758e-06L -3.37577e-06 11.0484L 27.6543 11.0484L 27.6543 -5.05758e-06Z"/>
<path id="path124_fill" d="M 27.6543 -5.05758e-06L -3.37577e-06 -5.05758e-06L -3.37577e-06 24.859L 27.6543 24.859L 27.6543 -5.05758e-06Z"/>
<path id="path125_fill" d="M 27.6543 -5.05758e-06L -3.37577e-06 -5.05758e-06L -3.37577e-06 20.7158L 27.6543 20.7158L 27.6543 -5.05758e-06Z"/>
<path id="path126_fill" d="M 226.765 -5.05758e-06L -3.37577e-06 -5.05758e-06L -3.37577e-06 9.66739L 226.765 9.66739L 226.765 -5.05758e-06Z"/>
<path id="path127_fill" d="M 5.53086 -5.05758e-06L -3.37577e-06 -5.05758e-06L -3.37577e-06 72.5054L 5.53086 72.5054L 5.53086 -5.05758e-06Z"/>
<path id="path128_fill" d="M 79.0361 42.8956C 79.0361 42.8196 79.0361 42.7506 79.0361 42.6746C 79.0361 42.5987 79.0361 42.4468 79.0361 42.3363C 79.0361 42.2258 79.0361 42.1913 78.9946 42.1222C 78.9531 42.0532 78.9461 41.915 78.9116 41.8184C 78.877 41.7217 78.8701 41.6871 78.8425 41.6181C 78.8148 41.549 78.7595 41.4248 78.718 41.3281L 78.6351 41.1555C 78.5798 41.0588 78.5175 40.9621 78.4553 40.8724L 78.3654 40.7411C 78.2747 40.6167 78.1778 40.4968 78.0751 40.3821C 77.5237 39.7951 76.8701 39.3131 76.1461 38.9596C 76.7125 38.3518 77.1354 37.6251 77.3837 36.8327C 77.4553 36.6209 77.5108 36.4039 77.5496 36.1836C 77.5496 36.1146 77.5496 36.0456 77.5496 35.9834C 77.5683 35.8506 77.5798 35.7169 77.5842 35.5829C 77.5842 35.5069 77.5842 35.4379 77.5842 35.3619C 77.5842 35.286 77.5842 35.134 77.5842 35.0236C 77.5842 34.9131 77.5842 34.8786 77.5427 34.8095C 77.5012 34.7404 77.4943 34.6023 77.4597 34.5057C 77.4252 34.409 77.4183 34.3745 77.3906 34.3054C 77.363 34.2364 77.3077 34.1121 77.2662 34.0154L 77.1832 33.8428C 77.1279 33.7461 77.0657 33.6494 77.0035 33.5596L 76.9136 33.4284C 76.8229 33.3039 76.726 33.1841 76.6232 33.0694C 75.9336 32.3475 75.0965 31.7823 74.1689 31.4121C 74.1689 31.4121 69.7788 33.0348 69.4884 34.8164C 66.2667 35.5069 47.4894 39.4084 34.5955 39.0977L 34.4987 38.8422C 34.4996 36.7589 33.9316 34.7147 32.856 32.9298C 31.7803 31.1448 30.2377 29.6867 28.3941 28.7122L 28.3941 24.3756C 28.404 24.1916 28.404 24.0072 28.3941 23.8232C 28.3756 23.647 28.3479 23.4718 28.3111 23.2984L 28.3941 23.2501L 28.7466 23.0567L 29.2583 22.746L 29.5832 22.5319C 29.8229 22.3662 30.0533 22.1913 30.2746 22.0071L 30.5373 21.7792C 30.6963 21.6411 30.8484 21.503 31.0005 21.358L 31.2701 21.0956C 31.4591 20.9023 31.6389 20.7043 31.8094 20.5018L 31.996 20.267C 32.1574 20.0644 32.3118 19.8573 32.4593 19.6455L 32.6459 19.3624C 32.7796 19.1552 32.9086 18.9435 33.0331 18.7271L 33.1506 18.52C 33.3027 18.2438 33.441 17.9537 33.5654 17.6637L 33.6692 17.4013C 33.7659 17.1665 33.8535 16.9364 33.9318 16.7108L 34.0148 16.4553C 34.1116 16.1377 34.1946 15.82 34.2637 15.4955C 34.2637 15.4333 34.2637 15.3642 34.2983 15.3021C 34.349 15.0259 34.3904 14.7474 34.4227 14.4666C 34.4227 14.3699 34.4227 14.2801 34.4227 14.1834C 34.4227 13.8382 34.478 13.4929 34.478 13.1407C 34.4779 11.1785 33.9706 9.24961 33.0054 7.54056C 33.7452 7.36102 34.1946 7.21601 34.1393 7.14696C 33.8558 6.76716 33.5724 6.40809 33.2751 6.06282L 32.9916 5.73829C 32.7842 5.50351 32.5837 5.28255 32.3763 5.04777L 32.0444 4.70941C 31.837 4.50226 31.6296 4.30888 31.4222 4.12244L 31.0973 3.83243C 30.8346 3.61146 30.5718 3.3974 30.3091 3.19024L 30.1363 3.05213C 29.8183 2.81735 29.5003 2.59638 29.1753 2.3616L 28.8158 2.14063C 28.6084 2.00943 28.3941 1.88515 28.1798 1.77467L 27.7511 1.5537L 27.1565 1.27056L 26.721 1.07723C 26.5136 0.987462 26.2993 0.911478 26.0849 0.83552L 25.6909 0.690536C 25.3728 0.586957 25.0548 0.49026 24.7368 0.407396L 24.2459 0.29693L 23.7136 0.186422L 23.1812 0.103562L 22.6904 0.0483504L 22.1442 8.4293e-06L 21.6741 8.4293e-06L 21.1279 8.4293e-06C 20.8283 8.4293e-06 20.5287 0.0138173 20.2292 0.0414384C 13.1566 0.621482 6.96197 6.7879 6.96197 16.6141L 6.96197 24.7209L 18.0237 24.7209L 18.0237 28.4083C 16.0355 29.3245 14.3514 30.7899 13.1704 32.6315C 11.9894 34.4731 11.3609 36.6138 11.359 38.8008L 11.359 70.2267L 1.97037 113.309L 1.84593 113.309L -9.28337e-06 121.533L 13.2464 123.674L 13.8203 123.763C 15.203 123.169 12.8869 120.387 11.843 118.239C 11.7363 118.015 11.644 117.784 11.5664 117.549C 11.4206 117.115 11.3323 116.665 11.3037 116.209L 21.4805 82.8633L 21.4321 82.8633L 21.6741 82.0831C 21.6741 82.0831 34.6301 87.6073 37.9625 98.7178C 40.6657 107.695 38.9857 113.537 38.2528 115.429L 38.2045 115.429L 38.2045 115.539C 38.0593 115.898 37.9555 116.098 37.9555 116.098L 38.2045 116.098L 38.2045 122.196L 52.2113 122.196C 53.5111 121.54 50.7526 119.627 49.3768 118.053C 48.9264 117.554 48.6121 116.947 48.4642 116.292L 48.6993 116.292L 48.8099 115.795C 50.5708 107.626 50.1666 99.139 47.6373 91.1738C 45.108 83.2086 40.5411 76.0406 34.3881 70.3786C 34.4137 70.3422 34.4346 70.3028 34.4503 70.2612C 35.7724 66.2204 36.5875 62.0315 36.877 57.7903C 47.5862 58.8123 61.8351 58.0803 72.4889 49.8354C 73.5058 49.0679 74.4776 48.2425 75.3995 47.3633C 76.319 47.2942 77.9299 46.7833 78.8217 44.1869C 78.8934 43.975 78.9488 43.758 78.9877 43.5378C 78.9877 43.4687 78.9877 43.3997 78.9877 43.3375C 79.0125 43.1913 79.0286 43.0437 79.0361 42.8956Z"/>
<path id="path129_fill" d="M 1.42139 11.884C 1.42139 11.884 33.8461 22.1798 51.8076 4.97871L 47.9982 -1.34869e-05C 47.9982 -1.34869e-05 13.1538 7.75461 4.85054 2.07157C -3.45266 -3.61147 1.42139 11.884 1.42139 11.884Z"/>
<path id="path130_fill" d="M 49.9575 0L 50.5936 0.828642C 32.6182 18.0366 0.207426 7.73392 0.207426 7.73392C 0.207426 7.73392 0.124429 7.47152 -1.5191e-05 7.04339C 3.86468 8.19658 33.199 16.0755 49.9575 0Z"/>
<path id="path131_fill" d="M 3.59509 8.07917C 3.59509 8.07917 6.24989 8.67995 7.4736 5.12373C 8.6973 1.56751 4.43165 -1.34869e-05 4.43165 -1.34869e-05C 4.43165 -1.34869e-05 -0.0138068 1.63655 2.03742e-05 3.37668C 0.0138475 5.11681 3.59509 8.07917 3.59509 8.07917Z"/>
<path id="path132_fill" d="M 2.42667 5.96616C 2.42667 5.96616 5.08148 6.56694 6.30518 3.01072C 6.4947 2.51994 6.5653 1.99132 6.51123 1.46807C 6.45716 0.94483 6.27995 0.441763 5.99406 -1.34869e-05C 6.44323 0.462553 6.75084 1.04364 6.88067 1.67485C 7.01049 2.30606 6.95713 2.96117 6.7269 3.56313C 5.5032 7.12626 2.84839 6.51857 2.84839 6.51857C 1.79306 5.63328 0.837911 4.63528 7.85983e-14 3.5424C 0.740065 4.41625 1.55177 5.22698 2.42667 5.96616Z"/>
<path id="path133_fill" d="M 8.43943e-06 0L 9.60298 0C 9.56744 0.451798 9.62994 0.905955 9.78624 1.33141C 9.94255 1.75686 10.189 2.14358 10.5087 2.46519C 11.8015 3.95673 14.401 5.75899 13.1773 6.37356L 8.43943e-06 6.37356L 8.43943e-06 0Z"/>
<path id="path134_fill" d="M 0.915377 2.46519C 0.595694 2.14358 0.349268 1.75686 0.192962 1.33141C 0.0366566 0.905955 -0.0258439 0.451798 0.00970018 7.85039e-14L 0.701058 7.85039e-14C 0.665514 0.451798 0.728014 0.905955 0.88432 1.33141C 1.04063 1.75686 1.28705 2.14358 1.60674 2.46519C 2.89957 3.95673 5.49907 5.75899 4.27537 6.37356L 3.58401 6.37356C 4.80771 5.75899 2.20822 3.96364 0.915377 2.46519Z"/>
<path id="path135_fill" d="M 1.75606 1.01152e-05L 10.7437 1.47084C 10.4952 2.53977 10.64 3.66229 11.1516 4.63343C 12.1333 6.70501 14.3388 9.28762 13.0114 9.84694L 1.68789e-06 7.77536L 1.75606 1.01152e-05Z"/>
<path id="path136_fill" d="M 8.73876 4.65418C 8.22714 3.68304 8.08236 2.56048 8.33086 1.49155L 1.68789e-06 0.110491L 1.68789e-06 -1.68586e-05L 8.98766 1.47081C 8.73915 2.53975 8.88393 3.66231 9.39555 4.63344C 10.3773 6.70502 12.5827 9.28759 11.2553 9.84692L 10.7091 9.75714C 11.7323 9.08043 9.679 6.60146 8.73876 4.65418Z"/>
<path id="path137_fill" d="M 9.75507 4.87514C 9.75507 2.18268 7.57133 1.01152e-05 4.87754 1.01152e-05C 2.18376 1.01152e-05 1.68789e-05 2.18268 1.68789e-05 4.87514L 1.68789e-05 9.5638C 1.68789e-05 12.2563 2.18376 14.4389 4.87754 14.4389C 7.57133 14.4389 9.75507 12.2563 9.75507 9.5638L 9.75507 4.87514Z"/>
<path id="path138_fill" d="M 10.799 21.5721C 16.7632 21.5721 21.598 16.743 21.598 10.786C 21.598 4.82906 16.7632 -1.34869e-05 10.799 -1.34869e-05C 4.83489 -1.34869e-05 -9.28337e-06 4.82906 -9.28337e-06 10.786C -9.28337e-06 16.743 4.83489 21.5721 10.799 21.5721Z"/>
<path id="path139_fill" d="M 4.43852 26.0812L 4.43852 21.3857C 4.43812 21.042 4.40106 20.6994 4.32792 20.3636C 6.43682 19.2818 8.13066 17.537 9.14814 15.3982C 10.1656 13.2594 10.4502 10.8457 9.9579 8.52934C 9.46562 6.21302 8.22383 4.12289 6.42419 2.58142C 4.62454 1.03994 2.36705 0.132809 1.18152e-05 -1.29531e-05L 0.60841 -1.29531e-05C 3.03079 -0.000773843 5.38307 0.811957 7.2872 2.30755C 9.19134 3.80314 10.5367 5.89472 11.1071 8.24616C 11.6776 10.5976 11.4398 13.0723 10.4322 15.2725C 9.42465 17.4727 7.70568 19.2707 5.55159 20.3775C 5.62473 20.7132 5.66184 21.0558 5.66223 21.3994L 5.66223 26.0951C 5.66853 26.7883 5.52541 27.4748 5.24263 28.108C 4.95985 28.7412 4.54402 29.3062 4.02334 29.7647C 3.50266 30.2232 2.88931 30.5644 2.22494 30.7653C 1.56057 30.9661 0.860702 31.0219 0.172851 30.9288C 1.35205 30.7761 2.4353 30.1999 3.22029 29.3079C 4.00527 28.4158 4.4383 27.2689 4.43852 26.0812Z"/>
<path id="path140_fill" d="M -9.28337e-06 40.3614C -9.28337e-06 40.3614 20.8306 42.7091 21.598 40.3614C 26.9975 23.8301 21.598 10.786 21.598 10.786C 21.598 7.92539 20.4603 5.18194 18.4351 3.15916C 16.4098 1.13638 13.6631 -1.34869e-05 10.799 -1.34869e-05C 7.93494 -1.34869e-05 5.18817 1.13638 3.16296 3.15916C 1.13775 5.18194 -9.28337e-06 7.92539 -9.28337e-06 10.786L -9.28337e-06 40.3614Z"/>
<path id="path141_fill" d="M 9.40937 -5.05758e-06L 8.43943e-07 43.1511L 9.40937 43.1511L 19.1644 11.1382C 19.1644 11.1382 31.36 16.3586 34.4918 26.7994C 37.6237 37.2402 34.4918 43.1511 34.4918 43.1511L 44.6133 43.1511L 44.717 42.6815C 46.3798 34.993 45.9904 27.003 43.5879 19.5121C 41.1854 12.0212 36.8542 5.29247 31.0281 -5.05758e-06"/>
<path id="path142_fill" d="M 10.1007 40.3406C 15.5002 23.8094 10.1007 10.7653 10.1007 10.7653C 10.1012 8.02509 9.05744 5.38741 7.18141 3.38795C 5.30539 1.38849 2.73779 0.177192 8.43943e-06 6.74344e-06C 0.228157 6.74344e-06 0.463218 6.74344e-06 0.691366 6.74344e-06C 3.55544 6.74344e-06 6.3022 1.1364 8.3274 3.15918C 10.3526 5.18196 11.4904 7.92541 11.4904 10.786C 11.4904 10.786 16.8899 23.837 11.4904 40.3614C 11.2138 41.2038 8.36543 41.4386 4.82567 41.404C 7.70172 41.3419 9.86568 41.0657 10.1007 40.3406Z"/>
<path id="path143_fill" d="M 10.958 0.58693L 1.38271 32.0129L -9.28337e-06 32.0129L 9.75506 -1.68586e-06C 9.75506 -1.68586e-06 10.2044 0.193329 10.958 0.58693Z"/>
<path id="path144_fill" d="M -1.68789e-06 -5.05758e-06L 1.38271 -5.05758e-06C 7.20877 5.29247 11.54 12.0212 13.9425 19.5121C 16.345 27.003 16.7344 34.993 15.0716 42.6815L 14.9679 43.1511L 13.5852 43.1511L 13.6889 42.6815C 15.3516 34.993 14.9623 27.003 12.5598 19.5121C 10.1573 12.0212 5.82605 5.29247 -1.68789e-06 -5.05758e-06Z"/>
<path id="path145_fill" d="M 15.9012 8.82366L 15.2099 23.3248L -3.37577e-06 23.3248L -3.37577e-06 15.6253C -3.37577e-06 0.164428 16.3644 -5.70508 25.5802 6.71752C 25.8084 7.05588 15.9012 8.82366 15.9012 8.82366Z"/>
<path id="path146_fill" d="M -5.06366e-06 0.0364247C 3.87851 0.354068 7.86765 2.46707 11.0202 6.71382C 11.2484 7.01765 1.34123 8.7854 1.34123 8.7854L 0.649873 23.2865L 2.72395 23.2865L 3.41531 8.7854C 3.41531 8.7854 13.3225 7.01765 13.0943 6.71382C 9.38172 1.70058 4.50074 -0.301934 -5.06366e-06 0.0364247Z"/>
</defs>
</svg>
